<?xml version="1.0" encoding="UTF-8"?>
<svg xmlns="http://www.w3.org/2000/svg" xmlns:xlink="http://www.w3.org/1999/xlink" width="660.472441pt" height="445.03937pt" viewBox="0 0 660.472441 445.03937" version="1.1">
<g id="surface1">
<path style="fill:none;stroke-width:1;stroke-linecap:butt;stroke-linejoin:miter;stroke:rgb(0%,0%,0%);stroke-opacity:1;stroke-miterlimit:10;" d="M 0 113.386719 L 34.015625 73.699219 L 39.683594 22.675781 L 70.867188 22.675781 L 70.867188 0 L 189.921875 0 L 189.921875 22.675781 L 221.101562 22.675781 L 223.9375 70.867188 L 229.605469 76.535156 L 229.605469 36.851562 L 246.613281 22.675781 L 328.820312 22.675781 L 342.992188 36.851562 L 342.992188 76.535156 L 348.660156 70.867188 L 354.332031 0 L 532.914062 0 L 538.582031 70.867188 L 544.253906 76.535156 L 544.253906 36.851562 L 561.261719 22.675781 L 643.464844 22.675781 L 660.472656 36.851562 L 660.472656 73.699219 L 657.636719 79.371094 M 0 331.652344 L 34.015625 371.339844 L 39.683594 422.363281 L 70.867188 422.363281 L 70.867188 445.039062 L 189.921875 445.039062 L 189.921875 422.363281 L 221.101562 422.363281 L 223.9375 374.171875 L 229.605469 368.503906 L 229.605469 408.1875 L 246.613281 422.363281 L 328.820312 422.363281 L 342.992188 408.1875 L 342.992188 368.503906 L 348.660156 374.171875 L 354.332031 445.039062 L 532.914062 445.039062 L 538.582031 374.171875 L 544.253906 368.503906 L 544.253906 408.1875 L 561.261719 422.363281 L 643.464844 422.363281 L 660.472656 408.1875 L 660.472656 371.339844 L 657.636719 365.667969 M 0 113.386719 L 0 331.652344 M 657.636719 79.371094 L 657.636719 365.667969 "/>
</g>
</svg>
