<?xml version="1.0" encoding="UTF-8" standalone="no"?>
<!-- Created with Inkscape (http://www.inkscape.org/) -->

<svg
   xmlns:dc="http://purl.org/dc/elements/1.1/"
   xmlns:cc="http://creativecommons.org/ns#"
   xmlns:rdf="http://www.w3.org/1999/02/22-rdf-syntax-ns#"
   xmlns:svg="http://www.w3.org/2000/svg"
   xmlns="http://www.w3.org/2000/svg"
   xmlns:xlink="http://www.w3.org/1999/xlink"
   xmlns:sodipodi="http://sodipodi.sourceforge.net/DTD/sodipodi-0.dtd"
   xmlns:inkscape="http://www.inkscape.org/namespaces/inkscape"
   width="400mm"
   height="300mm"
   viewBox="0 0 400 300"
   version="1.1"
   id="svg8"
   inkscape:version="0.92.5 (2060ec1f9f, 2020-04-08)"
   sodipodi:docname="bevel_gauge.svg">
  <defs
     id="defs2" />
  <sodipodi:namedview
     id="base"
     pagecolor="#ffffff"
     bordercolor="#666666"
     borderopacity="1.0"
     inkscape:pageopacity="0.0"
     inkscape:pageshadow="2"
     inkscape:zoom="1.1261513"
     inkscape:cx="61.664148"
     inkscape:cy="795.74472"
     inkscape:document-units="mm"
     inkscape:current-layer="layer3"
     showgrid="false"
     inkscape:snap-bbox="false"
     inkscape:snap-smooth-nodes="false"
     inkscape:snap-center="true"
     inkscape:window-width="1619"
     inkscape:window-height="1026"
     inkscape:window-x="61"
     inkscape:window-y="0"
     inkscape:window-maximized="1"
     inkscape:snap-global="true"
     inkscape:snap-object-midpoints="true"
     showguides="true" />
  <metadata
     id="metadata5">
    <rdf:RDF>
      <cc:Work
         rdf:about="">
        <dc:format>image/svg+xml</dc:format>
        <dc:type
           rdf:resource="http://purl.org/dc/dcmitype/StillImage" />
        <dc:title />
      </cc:Work>
    </rdf:RDF>
  </metadata>
  <g
     inkscape:label="cut"
     inkscape:groupmode="layer"
     id="layer1"
     transform="translate(0,3)"
     style="display:inline">
    <text
       xml:space="preserve"
       style="font-style:normal;font-variant:normal;font-weight:normal;font-stretch:normal;font-size:2.82222223px;line-height:125%;font-family:Arial;-inkscape-font-specification:Arial;letter-spacing:0px;word-spacing:0px;fill:#000000;fill-opacity:1;stroke:none;stroke-width:0.26458332px;stroke-linecap:butt;stroke-linejoin:miter;stroke-opacity:1"
       x="-0.29825729"
       y="310.11273"
       id="text4994"><tspan
         sodipodi:role="line"
         id="tspan4992"
         x="-0.29825729"
         y="312.65485"
         style="stroke-width:0.26458332px" /></text>
    <path
       style="opacity:1;vector-effect:none;fill:none;fill-opacity:1;stroke:#000000;stroke-width:0.1;stroke-linecap:butt;stroke-linejoin:miter;stroke-miterlimit:4;stroke-dasharray:none;stroke-dashoffset:0;stroke-opacity:1"
       d="M 27.482151,-0.05024811 A 24.999994,24.999994 0 0 0 18.804127,1.8659146 l 1.686719,8.2108674 a 1,1 0 0 1 0.7059,0.486275 1,1 0 0 1 -0.365869,1.366324 1,1 0 0 1 -1.366325,-0.366384 1,1 0 0 1 0.05116,-1.077455 L 13.824586,4.614065 a 24.999994,24.999994 0 0 0 -5.5769201,5.472536 l 5.7360841,5.962943 a 1,1 0 0 1 0.990637,0.0041 1,1 0 0 1 0.365869,1.365808 1,1 0 0 1 -1.365808,0.365869 1,1 0 0 1 -0.495577,-0.781346 L 5.2855727,15.394804 a 24.999994,24.999994 0 0 0 -1.8060914,7.103959 l 7.9700557,1.948709 a 1,1 0 0 1 0.881084,-0.528135 1,1 0 0 1 0.999939,0.99994 1,1 0 0 1 -0.999939,1.000469 1,1 0 0 1 -0.907438,-0.583433 l -7.9700565,1.951302 a 24.999994,24.999994 0 0 0 1.8820555,7.397486 l 8.142139,-1.841738 a 1,1 0 0 1 0.497127,-0.790152 1,1 0 0 1 1.365808,0.366395 1,1 0 0 1 -0.365869,1.365806 1,1 0 0 1 -1.119828,-0.08165 L 7.8740451,39.231595 A 24.999994,24.999994 0 0 0 13.1931,44.776997 l 6.232695,-5.576411 a 1,1 0 0 1 0.03876,-0.924481 1,1 0 0 1 1.366325,-0.366395 1,1 0 0 1 0.02222,0.01447 l 0.09198,-0.08268 -0.04754,0.111098 a 1,1 0 0 1 0.299206,1.323446 1,1 0 0 1 -1.070736,0.477467 l -3.172933,7.409894 a 24.999994,24.999994 0 0 0 9.299691,2.65565 l 1.648994,-7.996926 a 1,1 0 0 1 -0.571024,-0.902785 1,1 0 0 1 0.96325,-0.998378 l 0.0021,-0.0098 0.0021,0.0088 a 1,1 0 0 1 0.03256,0 1,1 0 0 1 0.999937,0.99994 1,1 0 0 1 -0.661458,0.940012 l 1.526005,7.962291 a 24.999994,24.999994 0 0 0 9.662459,-2.749179 l -3.234944,-7.341156 a 1,1 0 0 1 -1.158068,-0.455268 1,1 0 0 1 0.357601,-1.361149 l -0.03721,-0.08475 0.06615,0.06924 a 1,1 0 0 1 1.345652,0.376714 1,1 0 0 1 -0.01085,1.015973 l 5.68234,5.929868 a 24.999994,24.999994 0 0 0 6.546887,-6.892104 l -6.440434,-4.796076 a 1,1 0 0 1 -1.287775,0.251672 1,1 0 0 1 -0.365871,-1.365832 1,1 0 0 1 0.05064,-0.07906 l -0.119891,-0.0894 0.149347,0.0522 a 1,1 0 0 1 1.285708,-0.250111 1,1 0 0 1 0.498679,0.870215 l 7.710122,2.680996 a 24.999994,24.999994 0 0 0 2.382285,-9.197393 l -8.009848,-1.14255 A 1,1 0 0 1 44.3308,25.9203 a 1,1 0 0 1 -0.997355,-0.931201 1,1 0 0 1 -0.0026,-0.06874 1,1 0 0 1 0.999937,-0.99994 1,1 0 0 1 0.984954,0.828913 l 7.955071,-0.960146 A 24.999994,24.999994 0 0 0 50.142782,12.775842 l -6.998538,3.858678 a 1,1 0 0 1 -0.457338,1.151868 1,1 0 0 1 -1.365808,-0.365868 1,1 0 0 1 0.365871,-1.365808 1,1 0 0 1 1.250569,0.206187 L 48.9997,10.921692 A 24.999994,24.999994 0 0 0 41.338153,3.6244625 l -4.339789,6.6957155 a 1,1 0 0 1 0.198438,1.243851 1,1 0 0 1 -1.366324,0.366387 1,1 0 0 1 -0.365869,-1.366324 1,1 0 0 1 1.213879,-0.437185 l 3.0024,-7.45019 A 24.999994,24.999994 0 0 0 29.239665,-0.03577804 l -0.7121,7.97470564 a 1,1 0 0 1 0.0016,5.159e-4 1,1 0 0 1 0.09715,0.024805 1,1 0 0 1 0.09353,0.034107 1,1 0 0 1 0.39429,0.2997227 1,1 0 0 1 0.05685,0.079065 1,1 0 0 1 10e-4,0.00207 1,1 0 0 1 0.09043,0.1782842 1,1 0 0 1 0.03101,0.092501 1,1 0 0 1 5.16e-4,0.00207 1,1 0 0 1 0.0217,0.095602 1,1 0 0 1 5.19e-4,0.00207 1,1 0 0 1 0.01189,0.097152 1,1 0 0 1 0.0026,0.072348 1,1 0 0 1 -0.0052,0.099735 1,1 0 0 1 0,5.159e-4 1,1 0 0 1 -0.01499,0.098187 1,1 0 0 1 0,5.159e-4 1,1 0 0 1 -0.02481,0.096636 1,1 0 0 1 0,5.16e-4 1,1 0 0 1 -0.03411,0.093017 1,1 0 0 1 0,5.159e-4 1,1 0 0 1 -0.0956,0.1746673 1,1 0 0 1 0,5.16e-4 1,1 0 0 1 -0.128674,0.1524476 1,1 0 0 1 -0.675929,0.2826702 l -0.0077,0.083198 -0.0072,-0.082682 a 1,1 0 0 1 -0.0057,0 1,1 0 0 1 -0.717269,-0.3038581 1,1 0 0 1 -0.214974,-0.3338301 1,1 0 0 1 0,-5.159e-4 1,1 0 0 1 -0.03152,-0.094567 1,1 0 0 1 0,-5.186e-4 1,1 0 0 1 -0.0217,-0.096634 1,1 0 0 1 0,-0.00103 1,1 0 0 1 -0.01188,-0.098184 1,1 0 0 1 0,-0.00103 1,1 0 0 1 -0.0026,-0.070279 1,1 0 0 1 0,-0.00465 1,1 0 0 1 0.04496,-0.2909385 1,1 0 0 1 0.03359,-0.093533 1,1 0 0 1 5.16e-4,-5.186e-4 1,1 0 0 1 0.04341,-0.0894 1,1 0 0 1 0,-5.159e-4 1,1 0 0 1 0.0522,-0.084749 1,1 0 0 1 0,-5.186e-4 1,1 0 0 1 0.06046,-0.079065 1,1 0 0 1 0,-5.16e-4 1,1 0 0 1 0.06821,-0.072348 1,1 0 0 1 0.07493,-0.066146 1,1 0 0 1 5.16e-4,-5.159e-4 1,1 0 0 1 0.02274,-0.01602 1,1 0 0 1 0.352949,-0.1689815 1,1 0 0 1 0.08113,-0.017568 z"
       id="path4583"
       inkscape:connector-curvature="0" />
    <g
       transform="translate(0.33226205,-10.309765)"
       style="display:inline"
       id="g5582">
      <path
         inkscape:connector-curvature="0"
         id="use1383"
         d="m 45.791153,94.258889 a 1,1 0 0 0 -0.998895,-0.97259 1,1 0 0 0 -1.000466,0.99995 1,1 0 0 0 1.000475,0.99993 1,1 0 0 0 0.995831,-0.92498 l -0.286809,-0.0558 0.05008,-2e-5 z"
         style="opacity:1;vector-effect:none;fill:none;fill-opacity:1;stroke:#000000;stroke-width:0.1;stroke-linecap:butt;stroke-linejoin:miter;stroke-miterlimit:4;stroke-dasharray:none;stroke-dashoffset:0;stroke-opacity:1" />
      <path
         inkscape:connector-curvature="0"
         id="use1385"
         d="m 41.077438,105.67 a 1,1 0 0 0 -9.95e-4,-1.41374 1,1 0 0 0 -1.414125,-1e-5 1,1 0 0 0 0,1.41413 1,1 0 0 0 1.328252,0.0764 l -0.155311,-0.24371 0.03508,0.0351 z"
         style="opacity:1;vector-effect:none;fill:none;fill-opacity:1;stroke:#000000;stroke-width:0.1;stroke-linecap:butt;stroke-linejoin:miter;stroke-miterlimit:4;stroke-dasharray:none;stroke-dashoffset:0;stroke-opacity:1" />
      <path
         inkscape:connector-curvature="0"
         id="use1387"
         d="m 29.692223,110.38608 a 1,1 0 0 0 0.999934,-0.99995 1,1 0 0 0 -0.999934,-0.99993 1,1 0 0 0 -1.000455,0.99993 1,1 0 0 0 0.849065,0.98752 l 0.0734,-0.27441 -7.1e-5,0.0501 0.063,0.23614 a 1,1 0 0 0 0.015,5.5e-4 z"
         style="opacity:1;vector-effect:none;fill:none;fill-opacity:1;stroke:#000000;stroke-width:0.1;stroke-linecap:butt;stroke-linejoin:miter;stroke-miterlimit:4;stroke-dasharray:none;stroke-dashoffset:0;stroke-opacity:1" />
      <path
         inkscape:connector-curvature="0"
         id="use1389"
         d="m 18.307389,105.67053 a 1,1 0 0 0 1.4145,3.6e-4 1,1 0 0 0 -3.72e-4,-1.41449 1,1 0 0 0 -1.414128,0 1,1 0 0 0 -0.123867,1.26249 l 0.246649,-0.12827 -0.03509,0.0351 -0.112905,0.21671 a 1,1 0 0 0 0.02517,0.0281 z"
         style="opacity:1;vector-effect:none;fill:none;fill-opacity:1;stroke:#000000;stroke-width:0.1;stroke-linecap:butt;stroke-linejoin:miter;stroke-miterlimit:4;stroke-dasharray:none;stroke-dashoffset:0;stroke-opacity:1" />
      <path
         inkscape:connector-curvature="0"
         id="use1391"
         d="m 13.591939,94.286319 a 1,1 0 0 0 0.999942,0.99994 1,1 0 0 0 0.999939,-0.99994 1,1 0 0 0 -0.999942,-0.99994 1,1 0 0 0 -0.972558,0.77256 l 0.255273,0.093 -0.04963,-2e-5 -0.230481,0.0837 a 1,1 0 0 0 -0.0026,0.0506 z"
         style="opacity:1;vector-effect:none;fill:none;fill-opacity:1;stroke:#000000;stroke-width:0.1;stroke-linecap:butt;stroke-linejoin:miter;stroke-miterlimit:4;stroke-dasharray:none;stroke-dashoffset:0;stroke-opacity:1" />
      <path
         inkscape:connector-curvature="0"
         id="use1393"
         d="m 18.307651,82.901729 a 1,1 0 0 0 1e-6,1.41413 1,1 0 0 0 1.414128,0 1,1 0 0 0 -10e-7,-1.41413 1,1 0 0 0 -1.203657,-0.15932 l 0.101213,0.24445 -0.03543,-0.0354 -0.226932,-0.0939 a 1,1 0 0 0 -0.04932,0.0442 z"
         style="opacity:1;vector-effect:none;fill:none;fill-opacity:1;stroke:#000000;stroke-width:0.1;stroke-linecap:butt;stroke-linejoin:miter;stroke-miterlimit:4;stroke-dasharray:none;stroke-dashoffset:0;stroke-opacity:1" />
      <path
         inkscape:connector-curvature="0"
         id="use1395"
         d="m 29.692228,78.186377 a 1,1 0 0 0 -1.000456,0.99994 1,1 0 0 0 1.000456,0.99994 1,1 0 0 0 0.999939,-0.99994 1,1 0 0 0 -0.682646,-0.947737 l -0.105936,0.226853 v -0.05014 l -0.10387,-0.223229 a 1,1 0 0 0 -0.107487,-0.0057 z"
         style="opacity:1;vector-effect:none;fill:none;fill-opacity:1;stroke:#000000;stroke-width:0.1;stroke-linecap:butt;stroke-linejoin:miter;stroke-miterlimit:4;stroke-dasharray:none;stroke-dashoffset:0;stroke-opacity:1" />
      <path
         inkscape:connector-curvature="0"
         id="path1357"
         d="m 25.811328,69.639622 a 25,25 0 0 0 -10.859285,4.493259 l 3.667476,8.854229 -0.03566,-0.03564 -8.8418373,-3.662309 A 25,25 0 0 0 4.97229,90.911698 l 8.902299,3.240114 h -0.04961 l -8.9033328,3.240643 a 25,25 0 0 0 5.1573078,12.346015 l 8.351428,-4.34806 -0.03514,0.0351 -4.34392,8.34522 a 25,25 0 0 0 13.141316,5.36607 l 2.421041,-9.03769 5.17e-4,0.0501 2.410705,8.99633 a 25,25 0 0 0 13.81311,-5.78982 l -5.002278,-7.85273 0.03462,0.0351 7.807275,4.97385 a 25,25 0 0 0 5.916435,-14.439426 l -9.092985,-1.767337 h 0.05013 l 9.027356,-1.755458 A 25,25 0 0 0 48.449222,77.80088 l -7.578865,5.307171 5.320089,-7.597987 a 25,25 0 0 0 -12.204423,-5.79964 l -4.082438,8.755009 v -0.05014 z"
         style="opacity:1;vector-effect:none;fill:none;fill-opacity:1;stroke:#000000;stroke-width:0.1;stroke-linecap:butt;stroke-linejoin:miter;stroke-miterlimit:4;stroke-dasharray:none;stroke-dashoffset:0;stroke-opacity:1" />
      <path
         inkscape:transform-center-y="-10.696196"
         inkscape:transform-center-x="-10.6959"
         inkscape:connector-curvature="0"
         id="use1381"
         d="m 41.038639,82.867159 a 1,1 0 0 0 -1.376492,0.0347 1,1 0 0 0 3e-6,1.41413 1,1 0 0 0 1.414129,0 1,1 0 0 0 0.0343,-1.37612 l -0.240473,0.16807 z"
         style="opacity:1;vector-effect:none;fill:none;fill-opacity:1;stroke:#000000;stroke-width:0.1;stroke-linecap:butt;stroke-linejoin:miter;stroke-miterlimit:4;stroke-dasharray:none;stroke-dashoffset:0;stroke-opacity:1" />
    </g>
  </g>
  <g
     inkscape:groupmode="layer"
     id="layer3"
     inkscape:label="engrave"
     style="display:inline">
    <flowRoot
       xml:space="preserve"
       id="flowRoot4803"
       style="font-style:normal;font-variant:normal;font-weight:normal;font-stretch:normal;font-size:10.66666698px;line-height:125%;font-family:Arial;-inkscape-font-specification:Arial;letter-spacing:0px;word-spacing:0px;fill:#000000;fill-opacity:1;stroke:none;stroke-width:1px;stroke-linecap:butt;stroke-linejoin:miter;stroke-opacity:1"
       transform="matrix(0.28207639,0,0,0.28207639,28.738442,-291.6955)"
       inkscape:transform-center-y="-13.065132"
       inkscape:tile-cx="-2.0011689e-08"
       inkscape:tile-cy="300"
       inkscape:tile-w="2.9999999"
       inkscape:tile-h="2.1302644"
       inkscape:tile-x0="-1.5"
       inkscape:tile-y0="285.86973"><flowRegion
         id="flowRegion4805"><rect
           id="rect4807"
           width="20.708128"
           height="19.192898"
           x="-7.5761442"
           y="1080.8253" /></flowRegion><flowPara
         id="flowPara4809">10</flowPara></flowRoot>    <flowRoot
       inkscape:tile-y0="285.86973"
       inkscape:tile-x0="-1.5"
       inkscape:transform-center-y="-13.065132"
       transform="matrix(0.28207639,0,0,0.28207639,28.738442,-291.6955)"
       style="font-style:normal;font-variant:normal;font-weight:normal;font-stretch:normal;font-size:10.66666698px;line-height:125%;font-family:Arial;-inkscape-font-specification:Arial;letter-spacing:0px;word-spacing:0px;fill:#000000;fill-opacity:1;stroke:none;stroke-width:1px;stroke-linecap:butt;stroke-linejoin:miter;stroke-opacity:1"
       id="use4811"
       xml:space="preserve"><flowRegion
         id="flowRegion4837"><rect
           y="1080.8253"
           x="-7.5761442"
           height="19.192898"
           width="20.708128"
           id="rect4835" /></flowRegion><flowPara
         id="flowPara4839">10</flowPara></flowRoot>    <flowRoot
       inkscape:tile-y0="285.86973"
       inkscape:tile-x0="-1.5"
       inkscape:transform-center-y="-13.065132"
       transform="matrix(0.24428531,0.14103819,-0.14103819,0.24428531,188.49136,-248.67126)"
       style="font-style:normal;font-variant:normal;font-weight:normal;font-stretch:normal;font-size:10.66666698px;line-height:125%;font-family:Arial;-inkscape-font-specification:Arial;letter-spacing:0px;word-spacing:0px;fill:#000000;fill-opacity:1;stroke:none;stroke-width:1px;stroke-linecap:butt;stroke-linejoin:miter;stroke-opacity:1"
       id="use4813"
       xml:space="preserve"><flowRegion
         id="flowRegion4845"><rect
           y="1080.8253"
           x="-7.5761442"
           height="19.192898"
           width="20.708128"
           id="rect4843" /></flowRegion><flowPara
         id="flowPara4847">11</flowPara></flowRoot>    <flowRoot
       inkscape:tile-y0="290.83017"
       inkscape:tile-x0="9.1030662"
       inkscape:transform-center-y="-6.3053883"
       transform="matrix(0.15864023,0.23323885,-0.23323885,0.15864023,292.83825,-151.4952)"
       style="font-style:normal;font-variant:normal;font-weight:normal;font-stretch:normal;font-size:10.66666698px;line-height:125%;font-family:Arial;-inkscape-font-specification:Arial;letter-spacing:0px;word-spacing:0px;fill:#000000;fill-opacity:1;stroke:none;stroke-width:1px;stroke-linecap:butt;stroke-linejoin:miter;stroke-opacity:1"
       id="use4815"
       xml:space="preserve"
       inkscape:transform-center-x="-11.505625"
       inkscape:tile-cx="8.7937654e-08"
       inkscape:tile-cy="300"
       inkscape:tile-w="4.8051177"
       inkscape:tile-h="5.7288708"><flowRegion
         id="flowRegion4853"><rect
           y="1080.8253"
           x="-7.5761442"
           height="19.785124"
           width="23.073919"
           id="rect4851" /></flowRegion><flowPara
         id="flowPara4855">12.5</flowPara></flowRoot>    <flowRoot
       inkscape:tile-y0="285.86973"
       inkscape:tile-x0="-1.5"
       inkscape:transform-center-y="-13.065132"
       transform="matrix(0,0.28207639,-0.28207639,0,347.9457,28.327479)"
       style="font-style:normal;font-variant:normal;font-weight:normal;font-stretch:normal;font-size:10.66666698px;line-height:125%;font-family:Arial;-inkscape-font-specification:Arial;letter-spacing:0px;word-spacing:0px;fill:#000000;fill-opacity:1;stroke:none;stroke-width:1px;stroke-linecap:butt;stroke-linejoin:miter;stroke-opacity:1"
       id="use4817"
       xml:space="preserve"><flowRegion
         id="flowRegion4861"><rect
           y="1080.8253"
           x="-7.5761442"
           height="19.192898"
           width="20.708128"
           id="rect4859" /></flowRegion><flowPara
         id="flowPara4863">15</flowPara></flowRoot>    <flowRoot
       inkscape:tile-y0="285.86973"
       inkscape:tile-x0="-1.5"
       inkscape:transform-center-y="-13.065132"
       transform="matrix(-0.24428531,0.14103819,-0.14103819,-0.24428531,187.7849,304.91838)"
       style="font-style:normal;font-variant:normal;font-weight:normal;font-stretch:normal;font-size:10.66666698px;line-height:125%;font-family:Arial;-inkscape-font-specification:Arial;letter-spacing:0px;word-spacing:0px;fill:#000000;fill-opacity:1;stroke:none;stroke-width:1px;stroke-linecap:butt;stroke-linejoin:miter;stroke-opacity:1"
       id="use4821"
       xml:space="preserve"><flowRegion
         id="flowRegion4877"><rect
           y="1080.8253"
           x="-7.5761442"
           height="19.192898"
           width="20.708128"
           id="rect4875" /></flowRegion><flowPara
         id="flowPara4879">20</flowPara></flowRoot>    <flowRoot
       inkscape:tile-y0="285.86973"
       inkscape:tile-x0="-1.5"
       inkscape:transform-center-y="-13.065132"
       transform="matrix(-0.24428531,-0.14103819,0.14103819,-0.24428531,-131.83022,304.51049)"
       style="font-style:normal;font-variant:normal;font-weight:normal;font-stretch:normal;font-size:10.66666698px;line-height:125%;font-family:Arial;-inkscape-font-specification:Arial;letter-spacing:0px;word-spacing:0px;fill:#000000;fill-opacity:1;stroke:none;stroke-width:1px;stroke-linecap:butt;stroke-linejoin:miter;stroke-opacity:1"
       id="use4825"
       xml:space="preserve"><flowRegion
         id="flowRegion4893"><rect
           y="1080.8253"
           x="-7.5761442"
           height="19.192898"
           width="20.708128"
           id="rect4891" /></flowRegion><flowPara
         id="flowPara4895">25</flowPara></flowRoot>    <flowRoot
       inkscape:tile-y0="285.86973"
       inkscape:tile-x0="-1.5"
       inkscape:transform-center-y="-13.065132"
       transform="matrix(0,-0.28207639,0.28207639,0,-291.28456,27.511749)"
       style="font-style:normal;font-variant:normal;font-weight:normal;font-stretch:normal;font-size:10.66666698px;line-height:125%;font-family:Arial;-inkscape-font-specification:Arial;letter-spacing:0px;word-spacing:0px;fill:#000000;fill-opacity:1;stroke:none;stroke-width:1px;stroke-linecap:butt;stroke-linejoin:miter;stroke-opacity:1"
       id="use4829"
       xml:space="preserve"><flowRegion
         id="flowRegion4909"><rect
           y="1080.8253"
           x="-7.5761442"
           height="19.192898"
           width="20.708128"
           id="rect4907" /></flowRegion><flowPara
         id="flowPara4911">30</flowPara></flowRoot>    <flowRoot
       inkscape:tile-y0="285.86973"
       inkscape:tile-x0="-1.5"
       inkscape:transform-center-y="-13.065132"
       transform="matrix(0.24428531,-0.14103819,0.14103819,0.24428531,-131.12376,-249.07913)"
       style="font-style:normal;font-variant:normal;font-weight:normal;font-stretch:normal;font-size:10.66666698px;line-height:125%;font-family:Arial;-inkscape-font-specification:Arial;letter-spacing:0px;word-spacing:0px;fill:#000000;fill-opacity:1;stroke:none;stroke-width:1px;stroke-linecap:butt;stroke-linejoin:miter;stroke-opacity:1"
       id="use4833"
       xml:space="preserve"><flowRegion
         id="flowRegion4925"><rect
           y="1080.8253"
           x="-7.5761442"
           height="19.192898"
           width="20.708128"
           id="rect4923" /></flowRegion><flowPara
         id="flowPara4927">35</flowPara></flowRoot>    <use
       x="0"
       y="0"
       inkscape:tiled-clone-of="#use4815"
       xlink:href="#use4815"
       id="use4939"
       inkscape:transform-center-x="-11.505625"
       inkscape:transform-center-y="214.31961"
       width="100%"
       height="100%" />
    <flowRoot
       inkscape:transform-center-x="-11.207368"
       xml:space="preserve"
       id="use4941"
       style="font-style:normal;font-variant:normal;font-weight:normal;font-stretch:normal;font-size:10.66666698px;line-height:125%;font-family:Arial;-inkscape-font-specification:Arial;letter-spacing:0px;word-spacing:0px;fill:#000000;fill-opacity:1;stroke:none;stroke-width:1px;stroke-linecap:butt;stroke-linejoin:miter;stroke-opacity:1"
       transform="matrix(-0.12267065,0.25400589,-0.25400589,-0.12267065,315.96221,167.28258)"
       inkscape:transform-center-y="6.8073424"
       inkscape:tile-x0="9.0660828"
       inkscape:tile-y0="303.88067"
       inkscape:tile-cx="-2.9309094e-07"
       inkscape:tile-cy="300"
       inkscape:tile-w="4.2825696"
       inkscape:tile-h="5.8533388"><flowRegion
         id="flowRegion4970"><rect
           id="rect4968"
           width="23.073919"
           height="19.785124"
           x="-7.5761442"
           y="1080.8253" /></flowRegion><flowPara
         id="flowPara4972">17.5</flowPara></flowRoot>    <flowRoot
       inkscape:transform-center-x="-11.505625"
       xml:space="preserve"
       id="use4945"
       style="font-style:normal;font-variant:normal;font-weight:normal;font-stretch:normal;font-size:10.66666698px;line-height:125%;font-family:Arial;-inkscape-font-specification:Arial;letter-spacing:0px;word-spacing:0px;fill:#000000;fill-opacity:1;stroke:none;stroke-width:1px;stroke-linecap:butt;stroke-linejoin:miter;stroke-opacity:1"
       transform="matrix(-0.15864023,-0.23323885,0.23323885,-0.15864023,-236.17711,207.33443)"
       inkscape:transform-center-y="-6.3053883"
       inkscape:tile-x0="9.1030662"
       inkscape:tile-y0="290.83017"><flowRegion
         id="flowRegion4978"><rect
           id="rect4976"
           width="23.073919"
           height="19.785124"
           x="-7.5761442"
           y="1080.8253" /></flowRegion><flowPara
         id="flowPara4980">27.5</flowPara></flowRoot>    <flowRoot
       inkscape:transform-center-x="-11.505625"
       xml:space="preserve"
       id="use4947"
       style="font-style:normal;font-variant:normal;font-weight:normal;font-stretch:normal;font-size:10.66666698px;line-height:125%;font-family:Arial;-inkscape-font-specification:Arial;letter-spacing:0px;word-spacing:0px;fill:#000000;fill-opacity:1;stroke:none;stroke-width:1px;stroke-linecap:butt;stroke-linejoin:miter;stroke-opacity:1"
       transform="matrix(0.12267065,-0.25400589,0.25400589,0.12267065,-259.30107,-111.44334)"
       inkscape:transform-center-y="-6.3053883"
       inkscape:tile-x0="9.1030662"
       inkscape:tile-y0="290.83017"><flowRegion
         id="flowRegion4986"><rect
           id="rect4984"
           width="23.073919"
           height="19.785124"
           x="-7.5761442"
           y="1080.8253" /></flowRegion><flowPara
         id="flowPara4988">32.5</flowPara></flowRoot>    <use
       x="0"
       y="0"
       inkscape:tiled-clone-of="#use4941"
       xlink:href="#use4941"
       id="use4996"
       inkscape:transform-center-x="-11.207368"
       inkscape:transform-center-y="227.43234"
       width="100%"
       height="100%" />
    <flowRoot
       inkscape:tile-y0="285.86973"
       inkscape:tile-x0="-1.5"
       transform="matrix(-0.28207639,0,0,-0.28207639,29.13401,347.53476)"
       style="font-style:normal;font-variant:normal;font-weight:normal;font-stretch:normal;font-size:10.66666698px;line-height:125%;font-family:Arial;-inkscape-font-specification:Arial;letter-spacing:0px;word-spacing:0px;fill:#000000;fill-opacity:1;stroke:none;stroke-width:1px;stroke-linecap:butt;stroke-linejoin:miter;stroke-opacity:1"
       id="use4811-0"
       xml:space="preserve"
       inkscape:transform-center-y="13.065131"><flowRegion
         id="flowRegion4837-6"><rect
           y="1080.8253"
           x="-7.5761442"
           height="14.455333"
           width="23.550652"
           id="rect4835-2" /></flowRegion><flowPara
         id="flowPara4839-6">22.5</flowPara></flowRoot>    <g
       style="display:inline"
       id="g5538"
       transform="translate(0.33226205,-7.3097651)">
      <flowRoot
         inkscape:transform-center-y="-8.0802346"
         inkscape:transform-center-x="-8.3551806"
         transform="matrix(0.18708867,0.18708867,-0.18708867,0.18708867,241.23664,-118.43315)"
         style="font-style:normal;font-variant:normal;font-weight:normal;font-stretch:normal;font-size:10.66666698px;line-height:125%;font-family:Arial;-inkscape-font-specification:Arial;letter-spacing:0px;word-spacing:0px;fill:#000000;fill-opacity:1;stroke:none;stroke-width:1px;stroke-linecap:butt;stroke-linejoin:miter;stroke-opacity:1"
         id="flowRoot5346"
         xml:space="preserve"><flowRegion
           id="flowRegion5348"><rect
             y="1084.8823"
             x="-8.1626587"
             height="21.662455"
             width="29.51115"
             id="rect5350" /></flowRegion><flowPara
           style="font-size:21.33333397px"
           id="flowPara5352">20</flowPara></flowRoot>      <flowRoot
         transform="matrix(0,0.26458333,-0.26458333,0,329.20151,94.471529)"
         style="font-style:normal;font-variant:normal;font-weight:normal;font-stretch:normal;font-size:10.66666698px;line-height:125%;font-family:Arial;-inkscape-font-specification:Arial;letter-spacing:0px;word-spacing:0px;fill:#000000;fill-opacity:1;stroke:none;stroke-width:1px;stroke-linecap:butt;stroke-linejoin:miter;stroke-opacity:1"
         id="flowRoot5367"
         xml:space="preserve"><flowRegion
           id="flowRegion5369"><rect
             y="1083.6265"
             x="-12.557936"
             height="50.261696"
             width="69.556526"
             id="rect5371" /></flowRegion><flowPara
           style="font-size:21.33333397px"
           id="flowPara5373">22</flowPara></flowRoot>      <flowRoot
         transform="matrix(-0.18708867,0.18708867,-0.18708867,-0.18708867,240.47444,308.29877)"
         style="font-style:normal;font-variant:normal;font-weight:normal;font-stretch:normal;font-size:10.66666698px;line-height:125%;font-family:Arial;-inkscape-font-specification:Arial;letter-spacing:0px;word-spacing:0px;fill:#000000;fill-opacity:1;stroke:none;stroke-width:1px;stroke-linecap:butt;stroke-linejoin:miter;stroke-opacity:1"
         id="flowRoot5428"
         xml:space="preserve"><flowRegion
           id="flowRegion5430"><rect
             y="1086.3513"
             x="-19.535563"
             height="39.515118"
             width="63.490582"
             id="rect5432" /></flowRegion><flowPara
           style="font-size:21.33333397px"
           id="flowPara5434">25</flowPara></flowRoot>      <flowRoot
         transform="matrix(-0.26458333,0,0,-0.26458333,21.97217,364.27266)"
         style="font-style:normal;font-variant:normal;font-weight:normal;font-stretch:normal;font-size:10.66666698px;line-height:125%;font-family:Arial;-inkscape-font-specification:Arial;letter-spacing:0px;word-spacing:0px;fill:#000000;fill-opacity:1;stroke:none;stroke-width:1px;stroke-linecap:butt;stroke-linejoin:miter;stroke-opacity:1"
         id="flowRoot5442"
         xml:space="preserve"><flowRegion
           id="flowRegion5444"><rect
             y="971.23297"
             x="-40.81329"
             height="107.99825"
             width="131.85832"
             id="rect5446" /></flowRegion><flowPara
           style="font-size:21.33333397px"
           id="flowPara5448">30</flowPara></flowRoot>      <flowRoot
         transform="matrix(-0.18708867,-0.18708867,0.18708867,-0.18708867,-168.67504,286.388)"
         style="font-style:normal;font-variant:normal;font-weight:normal;font-stretch:normal;font-size:10.66666698px;line-height:125%;font-family:Arial;-inkscape-font-specification:Arial;letter-spacing:0px;word-spacing:0px;fill:#000000;fill-opacity:1;stroke:none;stroke-width:1px;stroke-linecap:butt;stroke-linejoin:miter;stroke-opacity:1"
         id="flowRoot5456"
         xml:space="preserve"><flowRegion
           id="flowRegion5458"><rect
             y="993.52332"
             x="-27.941406"
             height="52.743332"
             width="62.78968"
             id="rect5460" /></flowRegion><flowPara
           style="font-size:21.33333397px"
           id="flowPara5462">35</flowPara></flowRoot>      <flowRoot
         transform="matrix(0,-0.26458333,0.26458333,0,-236.24319,84.350749)"
         style="font-style:normal;font-variant:normal;font-weight:normal;font-stretch:normal;font-size:10.66666698px;line-height:125%;font-family:Arial;-inkscape-font-specification:Arial;letter-spacing:0px;word-spacing:0px;fill:#000000;fill-opacity:1;stroke:none;stroke-width:1px;stroke-linecap:butt;stroke-linejoin:miter;stroke-opacity:1"
         id="flowRoot5470"
         xml:space="preserve"><flowRegion
           id="flowRegion5472"><rect
             y="956.16345"
             x="-48.975948"
             height="74.719719"
             width="110.50983"
             id="rect5474" /></flowRegion><flowPara
           style="font-size:21.33333397px"
           id="flowPara5476">40</flowPara></flowRoot>      <flowRoot
         transform="matrix(0.18708867,-0.18708867,0.18708867,0.18708867,-154.99674,-104.13853)"
         style="font-style:normal;font-variant:normal;font-weight:normal;font-stretch:normal;font-size:10.66666698px;line-height:125%;font-family:Arial;-inkscape-font-specification:Arial;letter-spacing:0px;word-spacing:0px;fill:#000000;fill-opacity:1;stroke:none;stroke-width:1px;stroke-linecap:butt;stroke-linejoin:miter;stroke-opacity:1"
         id="flowRoot5484"
         xml:space="preserve"><flowRegion
           id="flowRegion5486"><rect
             y="974.3725"
             x="-48.348053"
             height="72.20813"
             width="87.277657"
             id="rect5488" /></flowRegion><flowPara
           style="font-size:21.33333397px"
           id="flowPara5490">45</flowPara></flowRoot>      <flowRoot
         transform="matrix(0.26458333,0,0,0.26458333,51.334487,-145.69691)"
         style="font-style:normal;font-variant:normal;font-weight:normal;font-stretch:normal;font-size:10.66666698px;line-height:125%;font-family:Arial;-inkscape-font-specification:Arial;letter-spacing:0px;word-spacing:0px;fill:#000000;fill-opacity:1;stroke:none;stroke-width:1px;stroke-linecap:butt;stroke-linejoin:miter;stroke-opacity:1"
         id="flowRoot5498"
         xml:space="preserve"><flowRegion
           id="flowRegion5500"><rect
             y="858.21155"
             x="-92.928726"
             height="151.95102"
             width="192.13641"
             id="rect5502" /></flowRegion><flowPara
           style="font-size:21.33333397px"
           id="flowPara5504">50</flowPara></flowRoot>    </g>
  </g>
</svg>
