<?xml version="1.0" encoding="UTF-8" standalone="no"?>
<svg
   xmlns:dc="http://purl.org/dc/elements/1.1/"
   xmlns:cc="http://creativecommons.org/ns#"
   xmlns:rdf="http://www.w3.org/1999/02/22-rdf-syntax-ns#"
   xmlns:svg="http://www.w3.org/2000/svg"
   xmlns="http://www.w3.org/2000/svg"
   xmlns:sodipodi="http://sodipodi.sourceforge.net/DTD/sodipodi-0.dtd"
   xmlns:inkscape="http://www.inkscape.org/namespaces/inkscape"
   version="1.1"
   width="653.5"
   height="653.5"
   viewBox="299.5,-21.35001,653.5,653.5"
   id="svg1045"
   sodipodi:docname="computer_sind_scheisse_v3_raw.svg"
   inkscape:version="0.92.5 (2060ec1f9f, 2020-04-08)">
  <metadata
     id="metadata1051">
    <rdf:RDF>
      <cc:Work
         rdf:about="">
        <dc:format>image/svg+xml</dc:format>
        <dc:type
           rdf:resource="http://purl.org/dc/dcmitype/StillImage" />
        <dc:title></dc:title>
      </cc:Work>
    </rdf:RDF>
  </metadata>
  <defs
     id="defs1049" />
  <sodipodi:namedview
     pagecolor="#ffffff"
     bordercolor="#666666"
     borderopacity="1"
     objecttolerance="10"
     gridtolerance="10"
     guidetolerance="10"
     inkscape:pageopacity="0"
     inkscape:pageshadow="2"
     inkscape:window-width="1305"
     inkscape:window-height="744"
     id="namedview1047"
     showgrid="false"
     inkscape:snap-global="true"
     inkscape:zoom="0.35355339"
     inkscape:cx="252.50337"
     inkscape:cy="324.43615"
     inkscape:window-x="61"
     inkscape:window-y="0"
     inkscape:window-maximized="1"
     inkscape:current-layer="layer1" />
  <g
     inkscape:groupmode="layer"
     id="layer1"
     inkscape:label="Layer 1"
     style="display:inline">
    <rect
       style="opacity:1;vector-effect:none;fill:#000000;fill-opacity:1;fill-rule:nonzero;stroke:none;stroke-width:11.39082336;stroke-linecap:butt;stroke-linejoin:round;stroke-miterlimit:4;stroke-dasharray:none;stroke-dashoffset:0;stroke-opacity:1"
       id="rect1101"
       width="653.49707"
       height="653.49707"
       x="299.50293"
       y="-21.347082" />
    <g
       id="g1325"
       style="font-family:none;mix-blend-mode:normal;fill:none;fill-rule:nonzero;stroke:none;stroke-linejoin:miter;stroke-miterlimit:10;stroke-dasharray:none;stroke-dashoffset:0"
       text-anchor="none"
       font-size="none"
       font-weight="none"
       stroke-miterlimit="10"
       stroke-linecap="none"
       stroke-width="none"
       transform="matrix(0.91884773,0,0,0.91884773,77.338112,51.300379)">
      <g
         id="g1313"
         style="stroke:none">
        <path
           id="path1239"
           d="m 352.5,631.64999 v -600 h 600 v 600 z"
           inkscape:connector-curvature="0"
           style="fill:#000000;stroke-width:1;stroke-linecap:butt;stroke-dasharray:none" />
        <path
           id="path1241"
           d="M 0,100 V 0 h 100 v 100 z"
           transform="matrix(1.01,0,0,1.01,352,31.14999)"
           inkscape:connector-curvature="0"
           style="fill:#240038;stroke-width:3;stroke-linecap:round;stroke-dasharray:4, 10" />
        <path
           id="path1243"
           d="M 100,100 V 0 h 100 v 100 z"
           transform="matrix(1.01,0,0,1.01,351,31.14999)"
           inkscape:connector-curvature="0"
           style="fill:#670295;stroke-width:3;stroke-linecap:round;stroke-dasharray:4, 10" />
        <path
           id="path1245"
           d="M 200,100 V 0 h 100 v 100 z"
           transform="matrix(1.01,0,0,1.01,350,31.14999)"
           inkscape:connector-curvature="0"
           style="fill:#b239ff;stroke-width:3;stroke-linecap:round;stroke-dasharray:4, 10" />
        <path
           id="path1247"
           d="M 300,100 V 0 h 100 v 100 z"
           transform="matrix(1.01,0,0,1.01,349,31.14999)"
           inkscape:connector-curvature="0"
           style="fill:#b239ff;stroke-width:3;stroke-linecap:round;stroke-dasharray:4, 10" />
        <path
           id="path1249"
           d="M 400,100 V 0 h 100 v 100 z"
           transform="matrix(1.01,0,0,1.01,348,31.14999)"
           inkscape:connector-curvature="0"
           style="fill:#440069;stroke-width:3;stroke-linecap:round;stroke-dasharray:4, 10" />
        <path
           id="path1251"
           d="M 500,100 V 0 h 100 v 100 z"
           transform="matrix(1.01,0,0,1.01,347,31.14999)"
           inkscape:connector-curvature="0"
           style="fill:#240038;stroke-width:3;stroke-linecap:round;stroke-dasharray:4, 10" />
        <path
           id="path1253"
           d="M 0,200 V 100 h 100 v 100 z"
           transform="matrix(1.01,0,0,1.01,352,30.14999)"
           inkscape:connector-curvature="0"
           style="fill:none;stroke-width:3;stroke-linecap:round;stroke-dasharray:4, 10" />
        <path
           id="path1255"
           d="M 100,200 V 100 h 100 v 100 z"
           transform="matrix(1.01,0,0,1.01,351,30.14999)"
           inkscape:connector-curvature="0"
           style="fill:#240038;stroke-width:3;stroke-linecap:round;stroke-dasharray:4, 10" />
        <path
           id="path1257"
           d="M 200,200 V 100 h 100 v 100 z"
           transform="matrix(1.01,0,0,1.01,350,30.14999)"
           inkscape:connector-curvature="0"
           style="fill:#440069;stroke-width:3;stroke-linecap:round;stroke-dasharray:4, 10" />
        <path
           id="path1259"
           d="M 300,200 V 100 h 100 v 100 z"
           transform="matrix(1.01,0,0,1.01,349,30.14999)"
           inkscape:connector-curvature="0"
           style="fill:#670295;stroke-width:3;stroke-linecap:round;stroke-dasharray:4, 10" />
        <path
           id="path1261"
           d="M 400,200 V 100 h 100 v 100 z"
           transform="matrix(1.01,0,0,1.01,348,30.14999)"
           inkscape:connector-curvature="0"
           style="fill:#670295;stroke-width:3;stroke-linecap:round;stroke-dasharray:4, 10" />
        <path
           id="path1263"
           d="M 500,200 V 100 h 100 v 100 z"
           transform="matrix(1.01,0,0,1.01,347,30.14999)"
           inkscape:connector-curvature="0"
           style="fill:#440069;stroke-width:3;stroke-linecap:round;stroke-dasharray:4, 10" />
        <path
           id="path1265"
           d="M 0,300 V 200 h 100 v 100 z"
           transform="matrix(1.01,0,0,1.01,352,29.14999)"
           inkscape:connector-curvature="0"
           style="fill:none;stroke-width:3;stroke-linecap:round;stroke-dasharray:4, 10" />
        <path
           id="path1267"
           d="M 100,300 V 200 h 100 v 100 z"
           transform="matrix(1.01,0,0,1.01,351,29.14999)"
           inkscape:connector-curvature="0"
           style="fill:none;stroke-width:3;stroke-linecap:round;stroke-dasharray:4, 10" />
        <path
           id="path1269"
           d="M 200,300 V 200 h 100 v 100 z"
           transform="matrix(1.01,0,0,1.01,350,29.14999)"
           inkscape:connector-curvature="0"
           style="fill:#240038;stroke-width:3;stroke-linecap:round;stroke-dasharray:4, 10" />
        <path
           id="path1271"
           d="M 300,300 V 200 h 100 v 100 z"
           transform="matrix(1.01,0,0,1.01,349,29.14999)"
           inkscape:connector-curvature="0"
           style="fill:#440069;stroke-width:3;stroke-linecap:round;stroke-dasharray:4, 10" />
        <path
           id="path1273"
           d="M 400,300 V 200 h 100 v 100 z"
           transform="matrix(1.01,0,0,1.01,348,29.14999)"
           inkscape:connector-curvature="0"
           style="fill:#670295;stroke-width:3;stroke-linecap:round;stroke-dasharray:4, 10" />
        <path
           id="path1275"
           d="M 500,300 V 200 h 100 v 100 z"
           transform="matrix(1.01,0,0,1.01,347,29.14999)"
           inkscape:connector-curvature="0"
           style="fill:#b239ff;stroke-width:3;stroke-linecap:round;stroke-dasharray:4, 10" />
        <path
           id="path1277"
           d="M 0,400 V 300 h 100 v 100 z"
           transform="matrix(1.01,0,0,1.01,352,28.14999)"
           inkscape:connector-curvature="0"
           style="fill:none;stroke-width:3;stroke-linecap:round;stroke-dasharray:4, 10" />
        <path
           id="path1279"
           d="M 100,400 V 300 h 100 v 100 z"
           transform="matrix(1.01,0,0,1.01,351,28.14999)"
           inkscape:connector-curvature="0"
           style="fill:none;stroke-width:3;stroke-linecap:round;stroke-dasharray:4, 10" />
        <path
           id="path1281"
           d="M 200,400 V 300 h 100 v 100 z"
           transform="matrix(1.01,0,0,1.01,350,28.14999)"
           inkscape:connector-curvature="0"
           style="fill:none;stroke-width:3;stroke-linecap:round;stroke-dasharray:4, 10" />
        <path
           id="path1283"
           d="M 300,400 V 300 h 100 v 100 z"
           transform="matrix(1.01,0,0,1.01,349,28.14999)"
           inkscape:connector-curvature="0"
           style="fill:#440069;stroke-width:3;stroke-linecap:round;stroke-dasharray:4, 10" />
        <path
           id="path1285"
           d="M 400,400 V 300 h 100 v 100 z"
           transform="matrix(1.01,0,0,1.01,348,28.14999)"
           inkscape:connector-curvature="0"
           style="fill:#b239ff;stroke-width:3;stroke-linecap:round;stroke-dasharray:4, 10" />
        <path
           id="path1287"
           d="M 500,400 V 300 h 100 v 100 z"
           transform="matrix(1.01,0,0,1.01,347,28.14999)"
           inkscape:connector-curvature="0"
           style="fill:#b239ff;stroke-width:3;stroke-linecap:round;stroke-dasharray:4, 10" />
        <path
           id="path1289"
           d="M 0,500 V 400 h 100 v 100 z"
           transform="matrix(1.01,0,0,1.01,352,27.14999)"
           inkscape:connector-curvature="0"
           style="fill:none;stroke-width:3;stroke-linecap:round;stroke-dasharray:4, 10" />
        <path
           id="path1291"
           d="M 100,500 V 400 h 100 v 100 z"
           transform="matrix(1.01,0,0,1.01,351,27.14999)"
           inkscape:connector-curvature="0"
           style="fill:none;stroke-width:3;stroke-linecap:round;stroke-dasharray:4, 10" />
        <path
           id="path1293"
           d="M 200,500 V 400 h 100 v 100 z"
           transform="matrix(1.01,0,0,1.01,350,27.14999)"
           inkscape:connector-curvature="0"
           style="fill:none;stroke-width:3;stroke-linecap:round;stroke-dasharray:4, 10" />
        <path
           id="path1295"
           d="M 300,500 V 400 h 100 v 100 z"
           transform="matrix(1.01,0,0,1.01,349,27.14999)"
           inkscape:connector-curvature="0"
           style="fill:#440069;stroke-width:3;stroke-linecap:round;stroke-dasharray:4, 10" />
        <path
           id="path1297"
           d="M 400,500 V 400 h 100 v 100 z"
           transform="matrix(1.01,0,0,1.01,348,27.14999)"
           inkscape:connector-curvature="0"
           style="fill:#670295;stroke-width:3;stroke-linecap:round;stroke-dasharray:4, 10" />
        <path
           id="path1299"
           d="M 500,500 V 400 h 100 v 100 z"
           transform="matrix(1.01,0,0,1.01,347,27.14999)"
           inkscape:connector-curvature="0"
           style="fill:#b239ff;stroke-width:3;stroke-linecap:round;stroke-dasharray:4, 10" />
        <path
           id="path1301"
           d="M 0,600 V 500 h 100 v 100 z"
           transform="matrix(1.01,0,0,1.01,352,26.14999)"
           inkscape:connector-curvature="0"
           style="fill:none;stroke-width:3;stroke-linecap:round;stroke-dasharray:4, 10" />
        <path
           id="path1303"
           d="M 100,600 V 500 h 100 v 100 z"
           transform="matrix(1.01,0,0,1.01,351,26.14999)"
           inkscape:connector-curvature="0"
           style="fill:none;stroke-width:3;stroke-linecap:round;stroke-dasharray:4, 10" />
        <path
           id="path1305"
           d="M 200,600 V 500 h 100 v 100 z"
           transform="matrix(1.01,0,0,1.01,350,26.14999)"
           inkscape:connector-curvature="0"
           style="fill:none;stroke-width:3;stroke-linecap:round;stroke-dasharray:4, 10" />
        <path
           id="path1307"
           d="M 300,600 V 500 h 100 v 100 z"
           transform="matrix(1.01,0,0,1.01,349,26.14999)"
           inkscape:connector-curvature="0"
           style="fill:#240038;stroke-width:3;stroke-linecap:round;stroke-dasharray:4, 10" />
        <path
           id="path1309"
           d="M 400,600 V 500 h 100 v 100 z"
           transform="matrix(1.01,0,0,1.01,348,26.14999)"
           inkscape:connector-curvature="0"
           style="fill:#440069;stroke-width:3;stroke-linecap:round;stroke-dasharray:4, 10" />
        <path
           id="path1311"
           d="M 500,600 V 500 h 100 v 100 z"
           transform="matrix(1.01,0,0,1.01,347,26.14999)"
           inkscape:connector-curvature="0"
           style="fill:#440069;stroke-width:3;stroke-linecap:round;stroke-dasharray:4, 10" />
      </g>
      <path
         id="path1315"
         d="m 852.5,131.64999 v -100 h 100 v 100 z"
         inkscape:connector-curvature="0"
         style="fill:none;stroke:none;stroke-width:3;stroke-linecap:round;stroke-dasharray:4, 10" />
      <g
         id="g1323"
         style="stroke-linecap:butt;stroke-dasharray:none">
        <path
           id="path1317"
           d="m 302.5,581.64999 v -600 h 600 v 600 z"
           inkscape:connector-curvature="0"
           style="fill:none;stroke:#ffffff;stroke-width:6" />
        <g
           id="g1321"
           style="fill:#ffffff;stroke:none;stroke-width:1">
          <path
             id="path1319"
             d=""
             inkscape:connector-curvature="0" />
        </g>
      </g>
    </g>
    <g
       aria-label="COMPUTER
    SIND
 SCHEIßE"
       transform="translate(276.0625,-55.72501)"
       style="font-style:normal;font-variant:normal;font-weight:normal;font-stretch:normal;font-size:10.66666698px;line-height:125%;font-family:'Press Start 2P';-inkscape-font-specification:'Press Start 2P';letter-spacing:0px;word-spacing:0px;display:inline;fill:#000000;fill-opacity:1;stroke:none;stroke-width:1px;stroke-linecap:butt;stroke-linejoin:miter;stroke-opacity:1"
       id="flowRoot1379">
      <path
         d="m 117.27344,162.87344 v -4 h 16 16 v 4 4 h 4 4 v 4 4 h -8 -8 v -4 -4 h -8 -8 v 4 4 h -4 -4 v 12 12 h 4 4 v 4 4 h 8 8 v -4 -4 h 8 8 v 4 4 h -4 -4 v 4 4 h -16 -16 v -4 -4 h -4 -4 v -4 -4 h -4 -4 v -12 -12 h 4 4 v -4 -4 h 4 4 z"
         style="font-size:64px;line-height:279.99999523%;fill:#ffffff"
         id="path872" />
      <path
         d="m 173.27344,162.87344 v -4 h 20 20 v 4 4 h 4 4 v 20 20 h -4 -4 v 4 4 h -20 -20 v -4 -4 h -4 -4 v -20 -20 h 4 4 z m 32,24 v -20 h -12 -12 v 20 20 h 12 12 z"
         style="font-size:64px;line-height:279.99999523%;fill:#ffffff"
         id="path874" />
      <path
         d="m 229.27344,186.87344 v -28 h 8 8 v 4 4 h 4 4 v 4 4 h 4 4 v -4 -4 h 4 4 v -4 -4 h 8 8 v 28 28 h -8 -8 v -12 -12 h -4 -4 v 4 4 h -4 -4 v -4 -4 h -4 -4 v 12 12 h -8 -8 z"
         style="font-size:64px;line-height:279.99999523%;fill:#ffffff"
         id="path876" />
      <path
         d="m 293.27344,186.87344 v -28 h 24 24 v 4 4 h 4 4 v 12 12 h -4 -4 v 4 4 h -16 -16 v 8 8 h -8 -8 z m 40,-8 v -12 h -12 -12 v 12 12 h 12 12 z"
         style="font-size:64px;line-height:279.99999523%;fill:#ffffff"
         id="path878" />
      <path
         d="m 357.27344,182.87344 v -24 h 8 8 v 24 24 h 12 12 v -24 -24 h 8 8 v 24 24 h -4 -4 v 4 4 h -20 -20 v -4 -4 h -4 -4 z"
         style="font-size:64px;line-height:279.99999523%;fill:#ffffff"
         id="path880" />
      <path
         d="m 429.27344,162.87344 v -4 h 24 24 v 4 4 h -8 -8 v 24 24 h -8 -8 v -24 -24 h -8 -8 z"
         style="font-size:64px;line-height:279.99999523%;fill:#ffffff"
         id="path882" />
      <path
         d="m 485.27344,186.87344 v -28 h 28 28 v 4 4 h -20 -20 v 8 8 h 16 16 v 4 4 h -16 -16 v 8 8 h 20 20 v 4 4 h -28 -28 z"
         style="font-size:64px;line-height:279.99999523%;fill:#ffffff"
         id="path884" />
      <path
         d="m 549.27344,186.87344 v -28 h 24 24 v 4 4 h 4 4 v 12 12 h -8 -8 v 4 4 h 4 4 v 4 4 h 4 4 v 4 4 h -12 -12 v -4 -4 h -4 -4 v -4 -4 h -4 -4 v 8 8 h -8 -8 z m 40,-12 v -8 h -12 -12 v 12 12 h 8 8 v -4 -4 h 4 4 z"
         style="font-size:64px;line-height:279.99999523%;fill:#ffffff"
         id="path886" />
      <path
         d="m 365.27344,342.07345 v -4 h 16 16 v 4 4 h 4 4 v 4 4 h -8 -8 v -4 -4 h -8 -8 v 8 8 h 16 16 v 4 4 h 4 4 v 8 8 h -4 -4 v 4 4 h -20 -20 v -4 -4 h -4 -4 v -4 -4 h 8 8 v 4 4 h 12 12 v -8 -8 h -16 -16 v -4 -4 h -4 -4 v -8 -8 h 4 4 z"
         style="font-size:64px;line-height:279.99999523%;fill:#ffffff"
         id="path888" />
      <path
         d="m 429.27344,342.07345 v -4 h 24 24 v 4 4 h -8 -8 v 20 20 h 8 8 v 4 4 h -24 -24 v -4 -4 h 8 8 v -20 -20 h -8 -8 z"
         style="font-size:64px;line-height:279.99999523%;fill:#ffffff"
         id="path890" />
      <path
         d="m 485.27344,366.07345 v -28 h 8 8 v 4 4 h 4 4 v 4 4 h 4 4 v 4 4 h 4 4 v -12 -12 h 8 8 v 28 28 h -8 -8 v -4 -4 h -4 -4 v -4 -4 h -4 -4 v -4 -4 h -4 -4 v 12 12 h -8 -8 z"
         style="font-size:64px;line-height:279.99999523%;fill:#ffffff"
         id="path892" />
      <path
         d="m 549.27344,366.07345 v -28 h 20 20 v 4 4 h 4 4 v 4 4 h 4 4 v 12 12 h -4 -4 v 4 4 h -4 -4 v 4 4 h -20 -20 z m 32,-16 v -4 h -8 -8 v 20 20 h 8 8 v -4 -4 h 4 4 v -12 -12 h -4 -4 z"
         style="font-size:64px;line-height:279.99999523%;fill:#ffffff"
         id="path894" />
      <path
         d="m 173.27344,518.07346 v -4 h 16 16 v 4 4 h 4 4 v 4 4 h -8 -8 v -4 -4 h -8 -8 v 8 8 h 16 16 v 4 4 h 4 4 v 8 8 h -4 -4 v 4 4 h -20 -20 v -4 -4 h -4 -4 v -4 -4 h 8 8 v 4 4 h 12 12 v -8 -8 h -16 -16 v -4 -4 h -4 -4 v -8 -8 h 4 4 z"
         style="font-size:64px;line-height:270.00000477%;fill:#ffffff"
         id="path896" />
      <path
         d="m 245.27344,518.07346 v -4 h 16 16 v 4 4 h 4 4 v 4 4 h -8 -8 v -4 -4 h -8 -8 v 4 4 h -4 -4 v 12 12 h 4 4 v 4 4 h 8 8 v -4 -4 h 8 8 v 4 4 h -4 -4 v 4 4 h -16 -16 v -4 -4 h -4 -4 v -4 -4 h -4 -4 v -12 -12 h 4 4 v -4 -4 h 4 4 z"
         style="font-size:64px;line-height:270.00000477%;fill:#ffffff"
         id="path898" />
      <path
         d="m 293.27344,542.07346 v -28 h 8 8 v 12 12 h 12 12 v -12 -12 h 8 8 v 28 28 h -8 -8 v -12 -12 h -12 -12 v 12 12 h -8 -8 z"
         style="font-size:64px;line-height:270.00000477%;fill:#ffffff"
         id="path900" />
      <path
         d="m 357.27344,542.07346 v -28 h 28 28 v 4 4 h -20 -20 v 8 8 h 16 16 v 4 4 h -16 -16 v 8 8 h 20 20 v 4 4 h -28 -28 z"
         style="font-size:64px;line-height:270.00000477%;fill:#ffffff"
         id="path902" />
      <path
         d="m 429.27344,518.07346 v -4 h 24 24 v 4 4 h -8 -8 v 20 20 h 8 8 v 4 4 h -24 -24 v -4 -4 h 8 8 v -20 -20 h -8 -8 z"
         style="font-size:64px;line-height:270.00000477%;fill:#ffffff"
         id="path904" />
      <path
         d="m 501.27344,518.07346 v -4 h 16 16 v 4 4 h 4 4 v 8 8 h -4 -4 v 4 4 h 4 4 v 8 8 h -4 -4 v 4 4 h -8 -8 v -4 -4 h -4 -4 v 4 4 h -8 -8 v -24 -24 h 4 4 z m 24,12 v -8 h -8 -8 v 16 16 h 4 4 v 4 4 h 4 4 v -8 -8 h -4 -4 v -4 -4 h 4 4 z"
         style="font-size:64px;line-height:270.00000477%;fill:#ffffff"
         id="path906" />
      <path
         d="m 549.27344,542.07346 v -28 h 28 28 v 4 4 h -20 -20 v 8 8 h 16 16 v 4 4 h -16 -16 v 8 8 h 20 20 v 4 4 h -28 -28 z"
         style="font-size:64px;line-height:270.00000477%;fill:#ffffff"
         id="path908" />
    </g>
  </g>
</svg>
