<?xml version="1.0" encoding="UTF-8" standalone="no"?>
<svg
   version="1.1"
   width="653.5"
   height="653.5"
   viewBox="299.5,-21.35001,653.5,653.5"
   id="svg1045"
   sodipodi:docname="computer_sind_scheisse_v3_raw.svg"
   inkscape:version="1.1.2 (0a00cf5339, 2022-02-04)"
   inkscape:export-filename="/media/ramdisk/computer_sind_scheisse_v4_2.png"
   inkscape:export-xdpi="44.070389"
   inkscape:export-ydpi="44.070389"
   xmlns:inkscape="http://www.inkscape.org/namespaces/inkscape"
   xmlns:sodipodi="http://sodipodi.sourceforge.net/DTD/sodipodi-0.dtd"
   xmlns="http://www.w3.org/2000/svg"
   xmlns:svg="http://www.w3.org/2000/svg"
   xmlns:rdf="http://www.w3.org/1999/02/22-rdf-syntax-ns#"
   xmlns:cc="http://creativecommons.org/ns#"
   xmlns:dc="http://purl.org/dc/elements/1.1/">
  <metadata
     id="metadata1051">
    <rdf:RDF>
      <cc:Work
         rdf:about="">
        <dc:format>image/svg+xml</dc:format>
        <dc:type
           rdf:resource="http://purl.org/dc/dcmitype/StillImage" />
        <dc:title />
      </cc:Work>
    </rdf:RDF>
  </metadata>
  <defs
     id="defs1049">
    <rect
       x="468.78008"
       y="473.16909"
       width="41.11932"
       height="72.347176"
       id="rect20037" />
    <rect
       x="233.41545"
       y="98.950786"
       width="131.57951"
       height="33.547654"
       id="rect13652" />
    <rect
       x="468.78009"
       y="473.1691"
       width="41.11932"
       height="72.347176"
       id="rect20037-9" />
  </defs>
  <sodipodi:namedview
     pagecolor="#ffffff"
     bordercolor="#666666"
     borderopacity="1"
     objecttolerance="10"
     gridtolerance="10"
     guidetolerance="10"
     inkscape:pageopacity="0"
     inkscape:pageshadow="2"
     inkscape:window-width="1305"
     inkscape:window-height="744"
     id="namedview1047"
     showgrid="false"
     inkscape:snap-global="false"
     inkscape:zoom="0.41478654"
     inkscape:cx="-108.48954"
     inkscape:cy="382.12426"
     inkscape:window-x="61"
     inkscape:window-y="0"
     inkscape:window-maximized="1"
     inkscape:current-layer="layer4"
     inkscape:pagecheckerboard="0" />
  <g
     inkscape:groupmode="layer"
     id="layer1"
     inkscape:label="Layer 1"
     style="display:inline">
    <rect
       style="opacity:1;vector-effect:none;fill:#000000;fill-opacity:1;fill-rule:nonzero;stroke:none;stroke-width:11.39082336;stroke-linecap:butt;stroke-linejoin:round;stroke-miterlimit:4;stroke-dasharray:none;stroke-dashoffset:0;stroke-opacity:1"
       id="rect1101"
       width="653.49707"
       height="653.49707"
       x="299.50293"
       y="-21.347082" />
    <g
       id="g1325"
       style="font-family:none;mix-blend-mode:normal;fill:none;fill-rule:nonzero;stroke:none;stroke-linejoin:miter;stroke-miterlimit:10;stroke-dasharray:none;stroke-dashoffset:0"
       text-anchor="none"
       font-size="none"
       font-weight="none"
       stroke-miterlimit="10"
       stroke-linecap="none"
       stroke-width="none"
       transform="matrix(0.91884773,0,0,0.91884773,77.338112,51.300379)">
      <g
         id="g1313"
         style="stroke:none">
        <path
           id="path1239"
           d="m 352.5,631.64999 v -600 h 600 v 600 z"
           inkscape:connector-curvature="0"
           style="fill:#000000;stroke-width:1;stroke-linecap:butt;stroke-dasharray:none" />
        <path
           id="path1241"
           d="M 0,100 V 0 h 100 v 100 z"
           transform="matrix(1.01,0,0,1.01,352,31.14999)"
           inkscape:connector-curvature="0"
           style="fill:#240038;stroke-width:3;stroke-linecap:round;stroke-dasharray:4, 10" />
        <path
           id="path1243"
           d="M 100,100 V 0 h 100 v 100 z"
           transform="matrix(1.01,0,0,1.01,351,31.14999)"
           inkscape:connector-curvature="0"
           style="fill:#670295;stroke-width:3;stroke-linecap:round;stroke-dasharray:4, 10" />
        <path
           id="path1245"
           d="M 200,100 V 0 h 100 v 100 z"
           transform="matrix(1.01,0,0,1.01,350,31.14999)"
           inkscape:connector-curvature="0"
           style="fill:#b239ff;stroke-width:3;stroke-linecap:round;stroke-dasharray:4, 10" />
        <path
           id="path1247"
           d="M 300,100 V 0 h 100 v 100 z"
           transform="matrix(1.01,0,0,1.01,349,31.14999)"
           inkscape:connector-curvature="0"
           style="fill:#b239ff;stroke-width:3;stroke-linecap:round;stroke-dasharray:4, 10" />
        <path
           id="path1249"
           d="M 400,100 V 0 h 100 v 100 z"
           transform="matrix(1.01,0,0,1.01,348,31.14999)"
           inkscape:connector-curvature="0"
           style="fill:#440069;stroke-width:3;stroke-linecap:round;stroke-dasharray:4, 10" />
        <path
           id="path1251"
           d="M 500,100 V 0 h 100 v 100 z"
           transform="matrix(1.01,0,0,1.01,347,31.14999)"
           inkscape:connector-curvature="0"
           style="fill:#240038;stroke-width:3;stroke-linecap:round;stroke-dasharray:4, 10" />
        <path
           id="path1253"
           d="M 0,200 V 100 h 100 v 100 z"
           transform="matrix(1.01,0,0,1.01,352,30.14999)"
           inkscape:connector-curvature="0"
           style="fill:none;stroke-width:3;stroke-linecap:round;stroke-dasharray:4, 10" />
        <path
           id="path1255"
           d="M 100,200 V 100 h 100 v 100 z"
           transform="matrix(1.01,0,0,1.01,351,30.14999)"
           inkscape:connector-curvature="0"
           style="fill:#240038;stroke-width:3;stroke-linecap:round;stroke-dasharray:4, 10" />
        <path
           id="path1257"
           d="M 200,200 V 100 h 100 v 100 z"
           transform="matrix(1.01,0,0,1.01,350,30.14999)"
           inkscape:connector-curvature="0"
           style="fill:#440069;stroke-width:3;stroke-linecap:round;stroke-dasharray:4, 10" />
        <path
           id="path1259"
           d="M 300,200 V 100 h 100 v 100 z"
           transform="matrix(1.01,0,0,1.01,349,30.14999)"
           inkscape:connector-curvature="0"
           style="fill:#670295;stroke-width:3;stroke-linecap:round;stroke-dasharray:4, 10" />
        <path
           id="path1261"
           d="M 400,200 V 100 h 100 v 100 z"
           transform="matrix(1.01,0,0,1.01,348,30.14999)"
           inkscape:connector-curvature="0"
           style="fill:#670295;stroke-width:3;stroke-linecap:round;stroke-dasharray:4, 10" />
        <path
           id="path1263"
           d="M 500,200 V 100 h 100 v 100 z"
           transform="matrix(1.01,0,0,1.01,347,30.14999)"
           inkscape:connector-curvature="0"
           style="fill:#440069;stroke-width:3;stroke-linecap:round;stroke-dasharray:4, 10" />
        <path
           id="path1265"
           d="M 0,300 V 200 h 100 v 100 z"
           transform="matrix(1.01,0,0,1.01,352,29.14999)"
           inkscape:connector-curvature="0"
           style="fill:none;stroke-width:3;stroke-linecap:round;stroke-dasharray:4, 10" />
        <path
           id="path1267"
           d="M 100,300 V 200 h 100 v 100 z"
           transform="matrix(1.01,0,0,1.01,351,29.14999)"
           inkscape:connector-curvature="0"
           style="fill:none;stroke-width:3;stroke-linecap:round;stroke-dasharray:4, 10" />
        <path
           id="path1269"
           d="M 200,300 V 200 h 100 v 100 z"
           transform="matrix(1.01,0,0,1.01,350,29.14999)"
           inkscape:connector-curvature="0"
           style="fill:#240038;stroke-width:3;stroke-linecap:round;stroke-dasharray:4, 10" />
        <path
           id="path1271"
           d="M 300,300 V 200 h 100 v 100 z"
           transform="matrix(1.01,0,0,1.01,349,29.14999)"
           inkscape:connector-curvature="0"
           style="fill:#440069;stroke-width:3;stroke-linecap:round;stroke-dasharray:4, 10" />
        <path
           id="path1273"
           d="M 400,300 V 200 h 100 v 100 z"
           transform="matrix(1.01,0,0,1.01,348,29.14999)"
           inkscape:connector-curvature="0"
           style="fill:#670295;stroke-width:3;stroke-linecap:round;stroke-dasharray:4, 10" />
        <path
           id="path1275"
           d="M 500,300 V 200 h 100 v 100 z"
           transform="matrix(1.01,0,0,1.01,347,29.14999)"
           inkscape:connector-curvature="0"
           style="fill:#b239ff;stroke-width:3;stroke-linecap:round;stroke-dasharray:4, 10" />
        <path
           id="path1277"
           d="M 0,400 V 300 h 100 v 100 z"
           transform="matrix(1.01,0,0,1.01,352,28.14999)"
           inkscape:connector-curvature="0"
           style="fill:none;stroke-width:3;stroke-linecap:round;stroke-dasharray:4, 10" />
        <path
           id="path1279"
           d="M 100,400 V 300 h 100 v 100 z"
           transform="matrix(1.01,0,0,1.01,351,28.14999)"
           inkscape:connector-curvature="0"
           style="fill:none;stroke-width:3;stroke-linecap:round;stroke-dasharray:4, 10" />
        <path
           id="path1281"
           d="M 200,400 V 300 h 100 v 100 z"
           transform="matrix(1.01,0,0,1.01,350,28.14999)"
           inkscape:connector-curvature="0"
           style="fill:none;stroke-width:3;stroke-linecap:round;stroke-dasharray:4, 10" />
        <path
           id="path1283"
           d="M 300,400 V 300 h 100 v 100 z"
           transform="matrix(1.01,0,0,1.01,349,28.14999)"
           inkscape:connector-curvature="0"
           style="fill:#440069;stroke-width:3;stroke-linecap:round;stroke-dasharray:4, 10" />
        <path
           id="path1285"
           d="M 400,400 V 300 h 100 v 100 z"
           transform="matrix(1.01,0,0,1.01,348,28.14999)"
           inkscape:connector-curvature="0"
           style="fill:#b239ff;stroke-width:3;stroke-linecap:round;stroke-dasharray:4, 10" />
        <path
           id="path1287"
           d="M 500,400 V 300 h 100 v 100 z"
           transform="matrix(1.01,0,0,1.01,347,28.14999)"
           inkscape:connector-curvature="0"
           style="fill:#b239ff;stroke-width:3;stroke-linecap:round;stroke-dasharray:4, 10" />
        <path
           id="path1289"
           d="M 0,500 V 400 h 100 v 100 z"
           transform="matrix(1.01,0,0,1.01,352,27.14999)"
           inkscape:connector-curvature="0"
           style="fill:none;stroke-width:3;stroke-linecap:round;stroke-dasharray:4, 10" />
        <path
           id="path1291"
           d="M 100,500 V 400 h 100 v 100 z"
           transform="matrix(1.01,0,0,1.01,351,27.14999)"
           inkscape:connector-curvature="0"
           style="fill:none;stroke-width:3;stroke-linecap:round;stroke-dasharray:4, 10" />
        <path
           id="path1293"
           d="M 200,500 V 400 h 100 v 100 z"
           transform="matrix(1.01,0,0,1.01,350,27.14999)"
           inkscape:connector-curvature="0"
           style="fill:none;stroke-width:3;stroke-linecap:round;stroke-dasharray:4, 10" />
        <path
           id="path1295"
           d="M 300,500 V 400 h 100 v 100 z"
           transform="matrix(1.01,0,0,1.01,349,27.14999)"
           inkscape:connector-curvature="0"
           style="fill:#440069;stroke-width:3;stroke-linecap:round;stroke-dasharray:4, 10" />
        <path
           id="path1297"
           d="M 400,500 V 400 h 100 v 100 z"
           transform="matrix(1.01,0,0,1.01,348,27.14999)"
           inkscape:connector-curvature="0"
           style="fill:#670295;stroke-width:3;stroke-linecap:round;stroke-dasharray:4, 10" />
        <path
           id="path1299"
           d="M 500,500 V 400 h 100 v 100 z"
           transform="matrix(1.01,0,0,1.01,347,27.14999)"
           inkscape:connector-curvature="0"
           style="fill:#b239ff;stroke-width:3;stroke-linecap:round;stroke-dasharray:4, 10" />
        <path
           id="path1301"
           d="M 0,600 V 500 h 100 v 100 z"
           transform="matrix(1.01,0,0,1.01,352,26.14999)"
           inkscape:connector-curvature="0"
           style="fill:none;stroke-width:3;stroke-linecap:round;stroke-dasharray:4, 10" />
        <path
           id="path1303"
           d="M 100,600 V 500 h 100 v 100 z"
           transform="matrix(1.01,0,0,1.01,351,26.14999)"
           inkscape:connector-curvature="0"
           style="fill:none;stroke-width:3;stroke-linecap:round;stroke-dasharray:4, 10" />
        <path
           id="path1305"
           d="M 200,600 V 500 h 100 v 100 z"
           transform="matrix(1.01,0,0,1.01,350,26.14999)"
           inkscape:connector-curvature="0"
           style="fill:none;stroke-width:3;stroke-linecap:round;stroke-dasharray:4, 10" />
        <path
           id="path1307"
           d="M 300,600 V 500 h 100 v 100 z"
           transform="matrix(1.01,0,0,1.01,349,26.14999)"
           inkscape:connector-curvature="0"
           style="fill:#240038;stroke-width:3;stroke-linecap:round;stroke-dasharray:4, 10" />
        <path
           id="path1309"
           d="M 400,600 V 500 h 100 v 100 z"
           transform="matrix(1.01,0,0,1.01,348,26.14999)"
           inkscape:connector-curvature="0"
           style="fill:#440069;stroke-width:3;stroke-linecap:round;stroke-dasharray:4, 10" />
        <path
           id="path1311"
           d="M 500,600 V 500 h 100 v 100 z"
           transform="matrix(1.01,0,0,1.01,347,26.14999)"
           inkscape:connector-curvature="0"
           style="fill:#440069;stroke-width:3;stroke-linecap:round;stroke-dasharray:4, 10" />
      </g>
      <path
         id="path1315"
         d="m 852.5,131.64999 v -100 h 100 v 100 z"
         inkscape:connector-curvature="0"
         style="fill:none;stroke:none;stroke-width:3;stroke-linecap:round;stroke-dasharray:4, 10" />
      <g
         id="g1323"
         style="stroke-linecap:butt;stroke-dasharray:none">
        <path
           id="path1317"
           d="m 302.5,581.64999 v -600 h 600 v 600 z"
           inkscape:connector-curvature="0"
           style="fill:none;stroke:#ffffff;stroke-width:6" />
        <g
           id="g1321"
           style="fill:#ffffff;stroke:none;stroke-width:1">
          <path
             id="path1319"
             d=""
             inkscape:connector-curvature="0" />
        </g>
      </g>
    </g>
    <text
       xml:space="preserve"
       transform="translate(299.5,-21.35001)"
       id="text13650"
       style="fill:black;stroke:none;stroke-opacity:1;stroke-width:1px;stroke-linejoin:miter;stroke-linecap:butt;fill-opacity:1;font-family:'Press Start 2P';font-style:normal;font-weight:normal;font-size:10.66666667px;line-height:125%;letter-spacing:0px;word-spacing:0px;-inkscape-font-specification:'Press Start 2P';font-stretch:normal;font-variant:normal;white-space:pre;shape-inside:url(#rect13652)" />
  </g>
  <g
     inkscape:groupmode="layer"
     id="layer2"
     inkscape:label="text full"
     style="display:none">
    <g
       aria-label="COMPUTER     SIND  SCHEIßE"
       transform="translate(276.0625,-55.72501)"
       style="font-style:normal;font-variant:normal;font-weight:normal;font-stretch:normal;font-size:10.6667px;line-height:125%;font-family:'Press Start 2P';-inkscape-font-specification:'Press Start 2P';letter-spacing:0px;word-spacing:0px;display:inline;fill:#000000;fill-opacity:1;stroke:none;stroke-width:1px;stroke-linecap:butt;stroke-linejoin:miter;stroke-opacity:1"
       id="g14182">
      <path
         d="m 117.27344,162.87344 v -4 h 16 16 v 4 4 h 4 4 v 4 4 h -8 -8 v -4 -4 h -8 -8 v 4 4 h -4 -4 v 12 12 h 4 4 v 4 4 h 8 8 v -4 -4 h 8 8 v 4 4 h -4 -4 v 4 4 h -16 -16 v -4 -4 h -4 -4 v -4 -4 h -4 -4 v -12 -12 h 4 4 v -4 -4 h 4 4 z"
         style="font-size:64px;line-height:280%;fill:#ffffff"
         id="path14144" />
      <path
         d="m 173.27344,162.87344 v -4 h 20 20 v 4 4 h 4 4 v 20 20 h -4 -4 v 4 4 h -20 -20 v -4 -4 h -4 -4 v -20 -20 h 4 4 z m 32,24 v -20 h -12 -12 v 20 20 h 12 12 z"
         style="font-size:64px;line-height:280%;fill:#ffffff"
         id="path14146" />
      <path
         d="m 229.27344,186.87344 v -28 h 8 8 v 4 4 h 4 4 v 4 4 h 4 4 v -4 -4 h 4 4 v -4 -4 h 8 8 v 28 28 h -8 -8 v -12 -12 h -4 -4 v 4 4 h -4 -4 v -4 -4 h -4 -4 v 12 12 h -8 -8 z"
         style="font-size:64px;line-height:280%;fill:#ffffff"
         id="path14148" />
      <path
         d="m 293.27344,186.87344 v -28 h 24 24 v 4 4 h 4 4 v 12 12 h -4 -4 v 4 4 h -16 -16 v 8 8 h -8 -8 z m 40,-8 v -12 h -12 -12 v 12 12 h 12 12 z"
         style="font-size:64px;line-height:280%;fill:#ffffff"
         id="path14150" />
      <path
         d="m 357.27344,182.87344 v -24 h 8 8 v 24 24 h 12 12 v -24 -24 h 8 8 v 24 24 h -4 -4 v 4 4 h -20 -20 v -4 -4 h -4 -4 z"
         style="font-size:64px;line-height:280%;fill:#ffffff"
         id="path14152" />
      <path
         d="m 429.27344,162.87344 v -4 h 24 24 v 4 4 h -8 -8 v 24 24 h -8 -8 v -24 -24 h -8 -8 z"
         style="font-size:64px;line-height:280%;fill:#ffffff"
         id="path14154" />
      <path
         d="m 485.27344,186.87344 v -28 h 28 28 v 4 4 h -20 -20 v 8 8 h 16 16 v 4 4 h -16 -16 v 8 8 h 20 20 v 4 4 h -28 -28 z"
         style="font-size:64px;line-height:280%;fill:#ffffff"
         id="path14156" />
      <path
         d="m 549.27344,186.87344 v -28 h 24 24 v 4 4 h 4 4 v 12 12 h -8 -8 v 4 4 h 4 4 v 4 4 h 4 4 v 4 4 h -12 -12 v -4 -4 h -4 -4 v -4 -4 h -4 -4 v 8 8 h -8 -8 z m 40,-12 v -8 h -12 -12 v 12 12 h 8 8 v -4 -4 h 4 4 z"
         style="font-size:64px;line-height:280%;fill:#ffffff"
         id="path14158" />
      <path
         d="m 365.27344,342.07345 v -4 h 16 16 v 4 4 h 4 4 v 4 4 h -8 -8 v -4 -4 h -8 -8 v 8 8 h 16 16 v 4 4 h 4 4 v 8 8 h -4 -4 v 4 4 h -20 -20 v -4 -4 h -4 -4 v -4 -4 h 8 8 v 4 4 h 12 12 v -8 -8 h -16 -16 v -4 -4 h -4 -4 v -8 -8 h 4 4 z"
         style="font-size:64px;line-height:280%;fill:#ffffff"
         id="path14160" />
      <path
         d="m 429.27344,342.07345 v -4 h 24 24 v 4 4 h -8 -8 v 20 20 h 8 8 v 4 4 h -24 -24 v -4 -4 h 8 8 v -20 -20 h -8 -8 z"
         style="font-size:64px;line-height:280%;fill:#ffffff"
         id="path14162" />
      <path
         d="m 485.27344,366.07345 v -28 h 8 8 v 4 4 h 4 4 v 4 4 h 4 4 v 4 4 h 4 4 v -12 -12 h 8 8 v 28 28 h -8 -8 v -4 -4 h -4 -4 v -4 -4 h -4 -4 v -4 -4 h -4 -4 v 12 12 h -8 -8 z"
         style="font-size:64px;line-height:280%;fill:#ffffff"
         id="path14164" />
      <path
         d="m 549.27344,366.07345 v -28 h 20 20 v 4 4 h 4 4 v 4 4 h 4 4 v 12 12 h -4 -4 v 4 4 h -4 -4 v 4 4 h -20 -20 z m 32,-16 v -4 h -8 -8 v 20 20 h 8 8 v -4 -4 h 4 4 v -12 -12 h -4 -4 z"
         style="font-size:64px;line-height:280%;fill:#ffffff"
         id="path14166" />
      <path
         d="m 173.27344,518.07346 v -4 h 16 16 v 4 4 h 4 4 v 4 4 h -8 -8 v -4 -4 h -8 -8 v 8 8 h 16 16 v 4 4 h 4 4 v 8 8 h -4 -4 v 4 4 h -20 -20 v -4 -4 h -4 -4 v -4 -4 h 8 8 v 4 4 h 12 12 v -8 -8 h -16 -16 v -4 -4 h -4 -4 v -8 -8 h 4 4 z"
         style="font-size:64px;line-height:270%;fill:#ffffff"
         id="path14168" />
      <path
         d="m 245.27344,518.07346 v -4 h 16 16 v 4 4 h 4 4 v 4 4 h -8 -8 v -4 -4 h -8 -8 v 4 4 h -4 -4 v 12 12 h 4 4 v 4 4 h 8 8 v -4 -4 h 8 8 v 4 4 h -4 -4 v 4 4 h -16 -16 v -4 -4 h -4 -4 v -4 -4 h -4 -4 v -12 -12 h 4 4 v -4 -4 h 4 4 z"
         style="font-size:64px;line-height:270%;fill:#ffffff"
         id="path14170" />
      <path
         d="m 293.27344,542.07346 v -28 h 8 8 v 12 12 h 12 12 v -12 -12 h 8 8 v 28 28 h -8 -8 v -12 -12 h -12 -12 v 12 12 h -8 -8 z"
         style="font-size:64px;line-height:270%;fill:#ffffff"
         id="path14172" />
      <path
         d="m 357.27344,542.07346 v -28 h 28 28 v 4 4 h -20 -20 v 8 8 h 16 16 v 4 4 h -16 -16 v 8 8 h 20 20 v 4 4 h -28 -28 z"
         style="font-size:64px;line-height:270%;fill:#ffffff"
         id="path14174" />
      <path
         d="m 429.27344,518.07346 v -4 h 24 24 v 4 4 h -8 -8 v 20 20 h 8 8 v 4 4 h -24 -24 v -4 -4 h 8 8 v -20 -20 h -8 -8 z"
         style="font-size:64px;line-height:270%;fill:#ffffff"
         id="path14176" />
      <path
         d="m 501.27344,518.07346 v -4 h 16 16 v 4 4 h 4 4 v 8 8 h -4 -4 v 4 4 h 4 4 v 8 8 h -4 -4 v 4 4 h -8 -8 v -4 -4 h -4 -4 v 4 4 h -8 -8 v -24 -24 h 4 4 z m 24,12 v -8 h -8 -8 v 16 16 h 4 4 v 4 4 h 4 4 v -8 -8 h -4 -4 v -4 -4 h 4 4 z"
         style="font-size:64px;line-height:270%;fill:#ffffff"
         id="path14178" />
      <path
         d="m 549.27344,542.07346 v -28 h 28 28 v 4 4 h -20 -20 v 8 8 h 16 16 v 4 4 h -16 -16 v 8 8 h 20 20 v 4 4 h -28 -28 z"
         style="font-size:64px;line-height:270%;fill:#ffffff"
         id="path14180" />
    </g>
  </g>
  <g
     inkscape:groupmode="layer"
     id="layer4"
     inkscape:label="text missing 2"
     style="display:inline">
    <path
       d="m 393.33594,107.14843 v -4 h 16 16 v 4 4 h 4 4 v 4 4 h -8 -8 v -4 -4 h -8 -8 v 4 4 h -4 -4 v 12 12 h 4 4 v 4 4 h 8 8 v -4 -4 h 8 8 v 4 4 h -4 -4 v 4 4 h -16 -16 v -4 -4 h -4 -4 v -4 -4 h -4 -4 v -12 -12 h 4 4 v -4 -4 h 4 4 z"
       style="font-style:normal;font-variant:normal;font-weight:normal;font-stretch:normal;font-size:64px;line-height:280%;font-family:'Press Start 2P';-inkscape-font-specification:'Press Start 2P';letter-spacing:0px;word-spacing:0px;fill:#ffffff;fill-opacity:1;stroke:none;stroke-width:1px;stroke-linecap:butt;stroke-linejoin:miter;stroke-opacity:1"
       id="path14446" />
    <path
       d="m 449.33594,107.14843 v -4 h 20 20 v 4 4 h 4 4 v 20 20 h -4 -4 v 4 4 h -20 -20 v -4 -4 h -4 -4 v -20 -20 h 4 4 z m 32,24 v -20 h -12 -12 v 20 20 h 12 12 z"
       style="font-style:normal;font-variant:normal;font-weight:normal;font-stretch:normal;font-size:64px;line-height:280%;font-family:'Press Start 2P';-inkscape-font-specification:'Press Start 2P';letter-spacing:0px;word-spacing:0px;fill:#ffffff;fill-opacity:1;stroke:none;stroke-width:1px;stroke-linecap:butt;stroke-linejoin:miter;stroke-opacity:1"
       id="path14448" />
    <path
       d="m 505.33594,131.14843 v -28 h 8 8 v 4 4 h 4 4 v 4 4 h 4 4 v -4 -4 h 4 4 v -4 -4 h 8 8 v 28 28 h -8 -8 v -12 -12 h -4 -4 v 4 4 h -4 -4 v -4 -4 h -4 -4 v 12 12 h -8 -8 z"
       style="font-style:normal;font-variant:normal;font-weight:normal;font-stretch:normal;font-size:64px;line-height:280%;font-family:'Press Start 2P';-inkscape-font-specification:'Press Start 2P';letter-spacing:0px;word-spacing:0px;fill:#ffffff;fill-opacity:1;stroke:none;stroke-width:1px;stroke-linecap:butt;stroke-linejoin:miter;stroke-opacity:1"
       id="path14450" />
    <path
       d="m 569.33594,131.14843 v -28 h 24 24 v 4 4 h 4 4 v 12 12 h -4 -4 v 4 4 h -16 -16 v 8 8 h -8 -8 z m 40,-8 v -12 h -12 -12 v 12 12 h 12 12 z"
       style="font-style:normal;font-variant:normal;font-weight:normal;font-stretch:normal;font-size:64px;line-height:280%;font-family:'Press Start 2P';-inkscape-font-specification:'Press Start 2P';letter-spacing:0px;word-spacing:0px;fill:#ffffff;fill-opacity:1;stroke:none;stroke-width:1px;stroke-linecap:butt;stroke-linejoin:miter;stroke-opacity:1"
       id="path14452" />
    <path
       d="m 633.33594,127.14843 v -24 h 8 8 v 24 24 h 12 12 v -24 -24 h 8 8 v 24 24 h -4 -4 v 4 4 h -20 -20 v -4 -4 h -4 -4 z"
       style="font-style:normal;font-variant:normal;font-weight:normal;font-stretch:normal;font-size:64px;line-height:280%;font-family:'Press Start 2P';-inkscape-font-specification:'Press Start 2P';letter-spacing:0px;word-spacing:0px;fill:#ffffff;fill-opacity:1;stroke:none;stroke-width:1px;stroke-linecap:butt;stroke-linejoin:miter;stroke-opacity:1"
       id="path14454" />
    <path
       d="m 705.33594,107.14843 v -4 h 24 24 v 4 4 h -8 -8 v 24 24 h -8 -8 v -24 -24 h -8 -8 z"
       style="font-style:normal;font-variant:normal;font-weight:normal;font-stretch:normal;font-size:64px;line-height:280%;font-family:'Press Start 2P';-inkscape-font-specification:'Press Start 2P';letter-spacing:0px;word-spacing:0px;fill:#ffffff;fill-opacity:1;stroke:none;stroke-width:1px;stroke-linecap:butt;stroke-linejoin:miter;stroke-opacity:1"
       id="path14456" />
    <path
       d="m 761.33594,131.14843 v -28 h 28 28 v 4 4 h -20 -20 v 8 8 h 16 16 v 4 4 h -16 -16 v 8 8 h 20 20 v 4 4 h -28 -28 z"
       style="font-style:normal;font-variant:normal;font-weight:normal;font-stretch:normal;font-size:64px;line-height:280%;font-family:'Press Start 2P';-inkscape-font-specification:'Press Start 2P';letter-spacing:0px;word-spacing:0px;fill:#ffffff;fill-opacity:1;stroke:none;stroke-width:1px;stroke-linecap:butt;stroke-linejoin:miter;stroke-opacity:1"
       id="path14458" />
    <path
       d="m 825.33594,131.14843 v -28 h 24 24 v 4 4 h 4 4 v 12 12 h -8 -8 v 4 4 h 4 4 v 4 4 h 4 4 v 4 4 h -12 -12 v -4 -4 h -4 -4 v -4 -4 h -4 -4 v 8 8 h -8 -8 z m 40,-12 v -8 h -12 -12 v 12 12 h 8 8 v -4 -4 h 4 4 z"
       style="font-style:normal;font-variant:normal;font-weight:normal;font-stretch:normal;font-size:64px;line-height:280%;font-family:'Press Start 2P';-inkscape-font-specification:'Press Start 2P';letter-spacing:0px;word-spacing:0px;fill:#ffffff;fill-opacity:1;stroke:none;stroke-width:1px;stroke-linecap:butt;stroke-linejoin:miter;stroke-opacity:1"
       id="path14460" />
    <path
       d="m 641.33594,286.34844 v -4 h 16 16 v 4 4 h 4 4 v 4 4 h -8 -8 v -4 -4 h -8 -8 v 8 8 h 16 16 v 4 4 h 4 4 v 8 8 h -4 -4 v 4 4 h -20 -20 v -4 -4 h -4 -4 v -4 -4 h 8 8 v 4 4 h 12 12 v -8 -8 h -16 -16 v -4 -4 h -4 -4 v -8 -8 h 4 4 z"
       style="font-style:normal;font-variant:normal;font-weight:normal;font-stretch:normal;font-size:64px;line-height:280%;font-family:'Press Start 2P';-inkscape-font-specification:'Press Start 2P';letter-spacing:0px;word-spacing:0px;fill:#ffffff;fill-opacity:1;stroke:none;stroke-width:1px;stroke-linecap:butt;stroke-linejoin:miter;stroke-opacity:1"
       id="path14462" />
    <path
       d="m 705.33594,286.34844 v -4 h 24 24 v 4 4 h -8 -8 v 20 20 h 8 8 v 4 4 h -24 -24 v -4 -4 h 8 8 v -20 -20 h -8 -8 z"
       style="font-style:normal;font-variant:normal;font-weight:normal;font-stretch:normal;font-size:64px;line-height:280%;font-family:'Press Start 2P';-inkscape-font-specification:'Press Start 2P';letter-spacing:0px;word-spacing:0px;fill:#ffffff;fill-opacity:1;stroke:none;stroke-width:1px;stroke-linecap:butt;stroke-linejoin:miter;stroke-opacity:1"
       id="path14464" />
    <path
       d="m 761.33594,310.34844 v -28 h 8 8 v 4 4 h 4 4 v 4 4 h 4 4 v 4 4 h 4 4 v -12 -12 h 8 8 v 28 28 h -8 -8 v -4 -4 h -4 -4 v -4 -4 h -4 -4 v -4 -4 h -4 -4 v 12 12 h -8 -8 z"
       style="font-style:normal;font-variant:normal;font-weight:normal;font-stretch:normal;font-size:64px;line-height:280%;font-family:'Press Start 2P';-inkscape-font-specification:'Press Start 2P';letter-spacing:0px;word-spacing:0px;fill:#ffffff;fill-opacity:1;stroke:none;stroke-width:1px;stroke-linecap:butt;stroke-linejoin:miter;stroke-opacity:1"
       id="path14466" />
    <path
       d="m 825.33594,310.34844 v -28 h 20 20 v 4 4 h 4 4 v 4 4 h 4 4 v 12 12 h -4 -4 v 4 4 h -4 -4 v 4 4 h -20 -20 z m 32,-16 v -4 h -8 -8 v 20 20 h 8 8 v -4 -4 h 4 4 v -12 -12 h -4 -4 z"
       style="font-style:normal;font-variant:normal;font-weight:normal;font-stretch:normal;font-size:64px;line-height:280%;font-family:'Press Start 2P';-inkscape-font-specification:'Press Start 2P';letter-spacing:0px;word-spacing:0px;fill:#ffffff;fill-opacity:1;stroke:none;stroke-width:1px;stroke-linecap:butt;stroke-linejoin:miter;stroke-opacity:1"
       id="path14468" />
    <path
       d="m 449.33594,462.34845 v -4 h 16 16 v 4 4 h 4 4 v 4 4 h -8 -8 v -4 -4 h -8 -8 v 8 8 h 16 16 v 4 4 h 4 4 v 8 8 h -4 -4 v 4 4 h -20 -20 v -4 -4 h -4 -4 v -4 -4 h 8 8 v 4 4 h 12 12 v -8 -8 h -16 -16 v -4 -4 h -4 -4 v -8 -8 h 4 4 z"
       style="font-style:normal;font-variant:normal;font-weight:normal;font-stretch:normal;font-size:64px;line-height:270%;font-family:'Press Start 2P';-inkscape-font-specification:'Press Start 2P';letter-spacing:0px;word-spacing:0px;fill:#ffffff;fill-opacity:1;stroke:none;stroke-width:1px;stroke-linecap:butt;stroke-linejoin:miter;stroke-opacity:1"
       id="path14470" />
    <path
       d="m 521.33594,462.34845 v -4 h 16 16 v 4 4 h 4 4 v 4 4 h -8 -8 v -4 -4 h -8 -8 v 4 4 h -4 -4 v 12 12 h 4 4 v 4 4 h 8 8 v -4 -4 h 8 8 v 4 4 h -4 -4 v 4 4 h -16 -16 v -4 -4 h -4 -4 v -4 -4 h -4 -4 v -12 -12 h 4 4 v -4 -4 h 4 4 z"
       style="font-style:normal;font-variant:normal;font-weight:normal;font-stretch:normal;font-size:64px;line-height:270%;font-family:'Press Start 2P';-inkscape-font-specification:'Press Start 2P';letter-spacing:0px;word-spacing:0px;fill:#ffffff;fill-opacity:1;stroke:none;stroke-width:1px;stroke-linecap:butt;stroke-linejoin:miter;stroke-opacity:1"
       id="path14472" />
    <path
       d="m 569.33594,486.34845 v -28 h 8 8 v 12 12 h 12 12 v -12 -12 h 8 8 v 28 28 h -8 -8 v -12 -12 h -12 -12 v 12 12 h -8 -8 z"
       style="font-style:normal;font-variant:normal;font-weight:normal;font-stretch:normal;font-size:64px;line-height:270%;font-family:'Press Start 2P';-inkscape-font-specification:'Press Start 2P';letter-spacing:0px;word-spacing:0px;fill:#ffffff;fill-opacity:1;stroke:none;stroke-width:1px;stroke-linecap:butt;stroke-linejoin:miter;stroke-opacity:1"
       id="path14474" />
    <path
       d="m 633.33594,486.34845 v -28 h 28 28 v 4 4 h -20 -20 v 8 8 h 16 16 v 4 4 h -16 -16 v 8 8 h 20 20 v 4 4 h -28 -28 z"
       style="font-style:normal;font-variant:normal;font-weight:normal;font-stretch:normal;font-size:64px;line-height:270%;font-family:'Press Start 2P';-inkscape-font-specification:'Press Start 2P';letter-spacing:0px;word-spacing:0px;fill:#ffffff;fill-opacity:1;stroke:none;stroke-width:1px;stroke-linecap:butt;stroke-linejoin:miter;stroke-opacity:1"
       id="path14476" />
    <path
       d="m 705.33594,462.34845 v -4 h 24 24 v 4 4 h -8 -8 v 20 20 h 8 8 v 4 4 h -24 -24 v -4 -4 h 8 8 v -20 -20 h -8 -8 z"
       style="font-style:normal;font-variant:normal;font-weight:normal;font-stretch:normal;font-size:64px;line-height:270%;font-family:'Press Start 2P';-inkscape-font-specification:'Press Start 2P';letter-spacing:0px;word-spacing:0px;fill:#ffffff;fill-opacity:1;stroke:none;stroke-width:1px;stroke-linecap:butt;stroke-linejoin:miter;stroke-opacity:1"
       id="path14478" />
    <path
       d="m 825.33594,486.34845 v -28 h 28 28 v 4 4 h -20 -20 v 8 8 h 16 16 v 4 4 h -16 -16 v 8 8 h 20 20 v 4 4 h -28 -28 z"
       style="font-style:normal;font-variant:normal;font-weight:normal;font-stretch:normal;font-size:64px;line-height:270%;font-family:'Press Start 2P';-inkscape-font-specification:'Press Start 2P';letter-spacing:0px;word-spacing:0px;fill:#ffffff;fill-opacity:1;stroke:none;stroke-width:1px;stroke-linecap:butt;stroke-linejoin:miter;stroke-opacity:1"
       id="path14482" />
    <g
       id="g35068">
      <text
         xml:space="preserve"
         transform="matrix(2.0327226,0,0,2.9000429,-183.905,-922.21256)"
         id="text20035"
         style="font-style:normal;font-variant:normal;font-weight:normal;font-stretch:normal;font-size:10.6667px;line-height:125%;font-family:'Press Start 2P';-inkscape-font-specification:'Press Start 2P';letter-spacing:0px;word-spacing:0px;white-space:pre;shape-inside:url(#rect20037);display:inline;fill:#ffffff;fill-opacity:1;stroke:none;stroke-width:1px;stroke-linecap:butt;stroke-linejoin:miter;stroke-opacity:1"><tspan
           x="468.7793"
           y="485.16996"
           id="tspan35191">02
</tspan></text>
      <rect
         style="display:inline;fill:none;stroke:#ffffff;stroke-width:3.77953;stroke-linecap:round;stroke-miterlimit:4;stroke-dasharray:none"
         id="rect14672"
         width="56.43985"
         height="88.652496"
         x="760.45306"
         y="442.94531" />
      <text
         xml:space="preserve"
         transform="matrix(2.0327226,0,0,2.9000429,-184.49537,-879.21673)"
         id="text20035-0"
         style="font-style:normal;font-variant:normal;font-weight:normal;font-stretch:normal;font-size:10.6667px;line-height:125%;font-family:'Press Start 2P';-inkscape-font-specification:'Press Start 2P';letter-spacing:0px;word-spacing:0px;white-space:pre;shape-inside:url(#rect20037-9);display:inline;fill:#ffffff;fill-opacity:1;stroke:none;stroke-width:1px;stroke-linecap:butt;stroke-linejoin:miter;stroke-opacity:1"><tspan
           x="468.7793"
           y="485.16996"
           id="tspan35193">23</tspan></text>
    </g>
  </g>
  <g
     inkscape:groupmode="layer"
     id="layer3"
     inkscape:label="text missing 1"
     style="display:none">
    <path
       d="m 393.33594,107.14843 v -4 h 16 16 v 4 4 h 4 4 v 4 4 h -8 -8 v -4 -4 h -8 -8 v 4 4 h -4 -4 v 12 12 h 4 4 v 4 4 h 8 8 v -4 -4 h 8 8 v 4 4 h -4 -4 v 4 4 h -16 -16 v -4 -4 h -4 -4 v -4 -4 h -4 -4 v -12 -12 h 4 4 v -4 -4 h 4 4 z"
       style="font-style:normal;font-variant:normal;font-weight:normal;font-stretch:normal;font-size:64px;line-height:280%;font-family:'Press Start 2P';-inkscape-font-specification:'Press Start 2P';letter-spacing:0px;word-spacing:0px;fill:#ffffff;fill-opacity:1;stroke:none;stroke-width:1px;stroke-linecap:butt;stroke-linejoin:miter;stroke-opacity:1"
       id="path872" />
    <path
       d="m 449.33594,107.14843 v -4 h 20 20 v 4 4 h 4 4 v 20 20 h -4 -4 v 4 4 h -20 -20 v -4 -4 h -4 -4 v -20 -20 h 4 4 z m 32,24 v -20 h -12 -12 v 20 20 h 12 12 z"
       style="font-style:normal;font-variant:normal;font-weight:normal;font-stretch:normal;font-size:64px;line-height:280%;font-family:'Press Start 2P';-inkscape-font-specification:'Press Start 2P';letter-spacing:0px;word-spacing:0px;fill:#ffffff;fill-opacity:1;stroke:none;stroke-width:1px;stroke-linecap:butt;stroke-linejoin:miter;stroke-opacity:1"
       id="path874" />
    <path
       d="m 505.33594,131.14843 v -28 h 8 8 v 4 4 h 4 4 v 4 4 h 4 4 v -4 -4 h 4 4 v -4 -4 h 8 8 v 28 28 h -8 -8 v -12 -12 h -4 -4 v 4 4 h -4 -4 v -4 -4 h -4 -4 v 12 12 h -8 -8 z"
       style="font-style:normal;font-variant:normal;font-weight:normal;font-stretch:normal;font-size:64px;line-height:280%;font-family:'Press Start 2P';-inkscape-font-specification:'Press Start 2P';letter-spacing:0px;word-spacing:0px;fill:#ffffff;fill-opacity:1;stroke:none;stroke-width:1px;stroke-linecap:butt;stroke-linejoin:miter;stroke-opacity:1"
       id="path876" />
    <path
       d="m 569.33594,131.14843 v -28 h 24 24 v 4 4 h 4 4 v 12 12 h -4 -4 v 4 4 h -16 -16 v 8 8 h -8 -8 z m 40,-8 v -12 h -12 -12 v 12 12 h 12 12 z"
       style="font-style:normal;font-variant:normal;font-weight:normal;font-stretch:normal;font-size:64px;line-height:280%;font-family:'Press Start 2P';-inkscape-font-specification:'Press Start 2P';letter-spacing:0px;word-spacing:0px;fill:#ffffff;fill-opacity:1;stroke:none;stroke-width:1px;stroke-linecap:butt;stroke-linejoin:miter;stroke-opacity:1"
       id="path878" />
    <path
       d="m 633.33594,127.14843 v -24 h 8 8 v 24 24 h 12 12 v -24 -24 h 8 8 v 24 24 h -4 -4 v 4 4 h -20 -20 v -4 -4 h -4 -4 z"
       style="font-style:normal;font-variant:normal;font-weight:normal;font-stretch:normal;font-size:64px;line-height:280%;font-family:'Press Start 2P';-inkscape-font-specification:'Press Start 2P';letter-spacing:0px;word-spacing:0px;fill:#ffffff;fill-opacity:1;stroke:none;stroke-width:1px;stroke-linecap:butt;stroke-linejoin:miter;stroke-opacity:1"
       id="path880" />
    <path
       d="m 705.33594,107.14843 v -4 h 24 24 v 4 4 h -8 -8 v 24 24 h -8 -8 v -24 -24 h -8 -8 z"
       style="font-style:normal;font-variant:normal;font-weight:normal;font-stretch:normal;font-size:64px;line-height:280%;font-family:'Press Start 2P';-inkscape-font-specification:'Press Start 2P';letter-spacing:0px;word-spacing:0px;fill:#ffffff;fill-opacity:1;stroke:none;stroke-width:1px;stroke-linecap:butt;stroke-linejoin:miter;stroke-opacity:1"
       id="path882" />
    <path
       d="m 761.33594,131.14843 v -28 h 28 28 v 4 4 h -20 -20 v 8 8 h 16 16 v 4 4 h -16 -16 v 8 8 h 20 20 v 4 4 h -28 -28 z"
       style="font-style:normal;font-variant:normal;font-weight:normal;font-stretch:normal;font-size:64px;line-height:280%;font-family:'Press Start 2P';-inkscape-font-specification:'Press Start 2P';letter-spacing:0px;word-spacing:0px;fill:#ffffff;fill-opacity:1;stroke:none;stroke-width:1px;stroke-linecap:butt;stroke-linejoin:miter;stroke-opacity:1"
       id="path884" />
    <path
       d="m 825.33594,131.14843 v -28 h 24 24 v 4 4 h 4 4 v 12 12 h -8 -8 v 4 4 h 4 4 v 4 4 h 4 4 v 4 4 h -12 -12 v -4 -4 h -4 -4 v -4 -4 h -4 -4 v 8 8 h -8 -8 z m 40,-12 v -8 h -12 -12 v 12 12 h 8 8 v -4 -4 h 4 4 z"
       style="font-style:normal;font-variant:normal;font-weight:normal;font-stretch:normal;font-size:64px;line-height:280%;font-family:'Press Start 2P';-inkscape-font-specification:'Press Start 2P';letter-spacing:0px;word-spacing:0px;fill:#ffffff;fill-opacity:1;stroke:none;stroke-width:1px;stroke-linecap:butt;stroke-linejoin:miter;stroke-opacity:1"
       id="path886" />
    <path
       d="m 641.33594,286.34844 v -4 h 16 16 v 4 4 h 4 4 v 4 4 h -8 -8 v -4 -4 h -8 -8 v 8 8 h 16 16 v 4 4 h 4 4 v 8 8 h -4 -4 v 4 4 h -20 -20 v -4 -4 h -4 -4 v -4 -4 h 8 8 v 4 4 h 12 12 v -8 -8 h -16 -16 v -4 -4 h -4 -4 v -8 -8 h 4 4 z"
       style="font-style:normal;font-variant:normal;font-weight:normal;font-stretch:normal;font-size:64px;line-height:280%;font-family:'Press Start 2P';-inkscape-font-specification:'Press Start 2P';letter-spacing:0px;word-spacing:0px;fill:#ffffff;fill-opacity:1;stroke:none;stroke-width:1px;stroke-linecap:butt;stroke-linejoin:miter;stroke-opacity:1"
       id="path888" />
    <path
       d="m 705.33594,286.34844 v -4 h 24 24 v 4 4 h -8 -8 v 20 20 h 8 8 v 4 4 h -24 -24 v -4 -4 h 8 8 v -20 -20 h -8 -8 z"
       style="font-style:normal;font-variant:normal;font-weight:normal;font-stretch:normal;font-size:64px;line-height:280%;font-family:'Press Start 2P';-inkscape-font-specification:'Press Start 2P';letter-spacing:0px;word-spacing:0px;fill:#ffffff;fill-opacity:1;stroke:none;stroke-width:1px;stroke-linecap:butt;stroke-linejoin:miter;stroke-opacity:1"
       id="path890" />
    <path
       d="m 761.33594,310.34844 v -28 h 8 8 v 4 4 h 4 4 v 4 4 h 4 4 v 4 4 h 4 4 v -12 -12 h 8 8 v 28 28 h -8 -8 v -4 -4 h -4 -4 v -4 -4 h -4 -4 v -4 -4 h -4 -4 v 12 12 h -8 -8 z"
       style="font-style:normal;font-variant:normal;font-weight:normal;font-stretch:normal;font-size:64px;line-height:280%;font-family:'Press Start 2P';-inkscape-font-specification:'Press Start 2P';letter-spacing:0px;word-spacing:0px;fill:#ffffff;fill-opacity:1;stroke:none;stroke-width:1px;stroke-linecap:butt;stroke-linejoin:miter;stroke-opacity:1"
       id="path892" />
    <path
       d="m 825.33594,310.34844 v -28 h 20 20 v 4 4 h 4 4 v 4 4 h 4 4 v 12 12 h -4 -4 v 4 4 h -4 -4 v 4 4 h -20 -20 z m 32,-16 v -4 h -8 -8 v 20 20 h 8 8 v -4 -4 h 4 4 v -12 -12 h -4 -4 z"
       style="font-style:normal;font-variant:normal;font-weight:normal;font-stretch:normal;font-size:64px;line-height:280%;font-family:'Press Start 2P';-inkscape-font-specification:'Press Start 2P';letter-spacing:0px;word-spacing:0px;fill:#ffffff;fill-opacity:1;stroke:none;stroke-width:1px;stroke-linecap:butt;stroke-linejoin:miter;stroke-opacity:1"
       id="path894" />
    <path
       d="m 449.33594,462.34845 v -4 h 16 16 v 4 4 h 4 4 v 4 4 h -8 -8 v -4 -4 h -8 -8 v 8 8 h 16 16 v 4 4 h 4 4 v 8 8 h -4 -4 v 4 4 h -20 -20 v -4 -4 h -4 -4 v -4 -4 h 8 8 v 4 4 h 12 12 v -8 -8 h -16 -16 v -4 -4 h -4 -4 v -8 -8 h 4 4 z"
       style="font-style:normal;font-variant:normal;font-weight:normal;font-stretch:normal;font-size:64px;line-height:270%;font-family:'Press Start 2P';-inkscape-font-specification:'Press Start 2P';letter-spacing:0px;word-spacing:0px;fill:#ffffff;fill-opacity:1;stroke:none;stroke-width:1px;stroke-linecap:butt;stroke-linejoin:miter;stroke-opacity:1"
       id="path896" />
    <path
       d="m 521.33594,462.34845 v -4 h 16 16 v 4 4 h 4 4 v 4 4 h -8 -8 v -4 -4 h -8 -8 v 4 4 h -4 -4 v 12 12 h 4 4 v 4 4 h 8 8 v -4 -4 h 8 8 v 4 4 h -4 -4 v 4 4 h -16 -16 v -4 -4 h -4 -4 v -4 -4 h -4 -4 v -12 -12 h 4 4 v -4 -4 h 4 4 z"
       style="font-style:normal;font-variant:normal;font-weight:normal;font-stretch:normal;font-size:64px;line-height:270%;font-family:'Press Start 2P';-inkscape-font-specification:'Press Start 2P';letter-spacing:0px;word-spacing:0px;fill:#ffffff;fill-opacity:1;stroke:none;stroke-width:1px;stroke-linecap:butt;stroke-linejoin:miter;stroke-opacity:1"
       id="path898" />
    <path
       d="m 569.33594,486.34845 v -28 h 8 8 v 12 12 h 12 12 v -12 -12 h 8 8 v 28 28 h -8 -8 v -12 -12 h -12 -12 v 12 12 h -8 -8 z"
       style="font-style:normal;font-variant:normal;font-weight:normal;font-stretch:normal;font-size:64px;line-height:270%;font-family:'Press Start 2P';-inkscape-font-specification:'Press Start 2P';letter-spacing:0px;word-spacing:0px;fill:#ffffff;fill-opacity:1;stroke:none;stroke-width:1px;stroke-linecap:butt;stroke-linejoin:miter;stroke-opacity:1"
       id="path900" />
    <path
       d="m 633.33594,486.34845 v -28 h 28 28 v 4 4 h -20 -20 v 8 8 h 16 16 v 4 4 h -16 -16 v 8 8 h 20 20 v 4 4 h -28 -28 z"
       style="font-style:normal;font-variant:normal;font-weight:normal;font-stretch:normal;font-size:64px;line-height:270%;font-family:'Press Start 2P';-inkscape-font-specification:'Press Start 2P';letter-spacing:0px;word-spacing:0px;fill:#ffffff;fill-opacity:1;stroke:none;stroke-width:1px;stroke-linecap:butt;stroke-linejoin:miter;stroke-opacity:1"
       id="path902" />
    <path
       d="m 705.33594,462.34845 v -4 h 24 24 v 4 4 h -8 -8 v 20 20 h 8 8 v 4 4 h -24 -24 v -4 -4 h 8 8 v -20 -20 h -8 -8 z"
       style="font-style:normal;font-variant:normal;font-weight:normal;font-stretch:normal;font-size:64px;line-height:270%;font-family:'Press Start 2P';-inkscape-font-specification:'Press Start 2P';letter-spacing:0px;word-spacing:0px;fill:#ffffff;fill-opacity:1;stroke:none;stroke-width:1px;stroke-linecap:butt;stroke-linejoin:miter;stroke-opacity:1"
       id="path904" />
    <path
       d="m 825.33594,486.34845 v -28 h 28 28 v 4 4 h -20 -20 v 8 8 h 16 16 v 4 4 h -16 -16 v 8 8 h 20 20 v 4 4 h -28 -28 z"
       style="font-style:normal;font-variant:normal;font-weight:normal;font-stretch:normal;font-size:64px;line-height:270%;font-family:'Press Start 2P';-inkscape-font-specification:'Press Start 2P';letter-spacing:0px;word-spacing:0px;fill:#ffffff;fill-opacity:1;stroke:none;stroke-width:1px;stroke-linecap:butt;stroke-linejoin:miter;stroke-opacity:1"
       id="path908" />
    <path
       id="rect14023"
       style="fill:#ffffff;stroke:#0000ff;stroke-width:0.00786255;stroke-linecap:round"
       d="m 489.54883,467.86133 -31.03321,40.16211 31.03321,40.16406 31.0332,-40.16406 z m 0.20312,3.17969 28.73438,37.1875 -28.73438,37.1875 -28.73437,-37.1875 z m 0.37305,16.05664 c -3.31291,0 -6.19779,0.65623 -8.6543,1.96875 l -0.60937,7.83007 c 1.87055,-1.54584 3.93382,-2.31835 6.1875,-2.31836 1.69026,0 3.0871,0.59909 4.1914,1.79493 1.1043,1.19584 1.65625,2.77041 1.65625,4.72461 0,2.12921 -0.95376,4.82049 -2.85937,8.07422 -1.90311,3.25051 -2.85352,6.56779 -2.85352,9.95117 h 5.13868 c 0,-1.57502 0.66446,-3.42744 1.99414,-5.55664 2.25368,-3.6167 3.48076,-5.64452 3.68359,-6.08203 1.32967,-2.74172 1.99609,-5.62874 1.99609,-8.66211 0,-3.3542 -0.95936,-6.14534 -2.875,-8.375 -1.91562,-2.23292 -4.24661,-3.34961 -6.99609,-3.34961 z m -4.29492,36.79296 v 9.1875 h 7.84375 v -9.1875 z"
       transform="translate(299.5,-21.35001)" />
  </g>
</svg>
