<?xml version="1.0" encoding="UTF-8" standalone="no"?>
<!-- Created with Inkscape (http://www.inkscape.org/) -->

<svg
   xmlns:dc="http://purl.org/dc/elements/1.1/"
   xmlns:cc="http://creativecommons.org/ns#"
   xmlns:rdf="http://www.w3.org/1999/02/22-rdf-syntax-ns#"
   xmlns:svg="http://www.w3.org/2000/svg"
   xmlns="http://www.w3.org/2000/svg"
   xmlns:sodipodi="http://sodipodi.sourceforge.net/DTD/sodipodi-0.dtd"
   xmlns:inkscape="http://www.inkscape.org/namespaces/inkscape"
   width="400mm"
   height="300mm"
   viewBox="0 0 400 300"
   version="1.1"
   id="svg5141"
   inkscape:version="0.92.3 (2405546, 2018-03-11)"
   sodipodi:docname="radare2_key_chain_cut.svg">
  <defs
     id="defs5135" />
  <sodipodi:namedview
     id="base"
     pagecolor="#ffffff"
     bordercolor="#666666"
     borderopacity="1.0"
     inkscape:pageopacity="0.0"
     inkscape:pageshadow="2"
     inkscape:zoom="2.5455844"
     inkscape:cx="145.63307"
     inkscape:cy="976.29984"
     inkscape:document-units="mm"
     inkscape:current-layer="layer1"
     showgrid="false"
     inkscape:window-width="1631"
     inkscape:window-height="1026"
     inkscape:window-x="0"
     inkscape:window-y="0"
     inkscape:window-maximized="1" />
  <metadata
     id="metadata5138">
    <rdf:RDF>
      <cc:Work
         rdf:about="">
        <dc:format>image/svg+xml</dc:format>
        <dc:type
           rdf:resource="http://purl.org/dc/dcmitype/StillImage" />
        <dc:title></dc:title>
      </cc:Work>
    </rdf:RDF>
  </metadata>
  <g
     inkscape:label="cut"
     inkscape:groupmode="layer"
     id="layer1"
     transform="translate(0,3)"
     style="display:inline">
    <circle
       style="fill:none;fill-opacity:1;stroke:#000000;stroke-width:0.08276872;stroke-opacity:1"
       id="path5168"
       cx="14.483547"
       cy="17.255327"
       r="2.9586155" />
    <path
       style="opacity:1;vector-effect:none;fill:none;fill-opacity:1;stroke:#000000;stroke-width:0.05;stroke-linecap:butt;stroke-linejoin:miter;stroke-miterlimit:4;stroke-dasharray:none;stroke-dashoffset:0;stroke-opacity:1"
       d="m 19.508652,5.230213 a 12,12 0 0 0 -10.3926468,6.000141 12,12 0 0 0 0,11.99978 12,12 0 0 0 10.3926468,6.000168 H 68.50876 c 1.662002,0 2.99982,-1.337812 2.99982,-2.999819 V 8.2305351 C 71.508577,6.5685549 70.170762,5.230213 68.50876,5.230213 Z"
       id="path838"
       inkscape:connector-curvature="0" />
    <g
       id="g5156"
       transform="matrix(0.16068378,0,0,0.16067951,40.070744,-2.0619829)"
       style="display:inline;fill:none;fill-opacity:1">
      <path
         inkscape:connector-curvature="0"
         id="path5098"
         d="m -63.252384,76.868858 c -0.02771,5.404596 -0.046,10.808467 -0.324011,16.201078 -3.17387,-4.798338 -7.127986,-9.272139 -12.106238,-12.242663 -8.707747,-4.85591 -19.858994,-5.711627 -28.953267,-1.405082 -6.66877,3.15795 -11.37551,10.376103 -10.87026,17.832971 0.0362,8.281158 5.33263,16.570958 13.30835,19.269678 4.108094,1.47153 8.621812,1.39335 12.89482,0.84025 6.221628,-1.26761 11.836245,-5.66297 14.192931,-11.60445 1.76035,-5.4458 0.421304,-11.296621 0.980818,-16.839804 1.894129,-0.563179 3.144118,1.615026 4.21318,2.796728 3.522771,4.54956 4.754436,10.361206 4.907079,15.964506 0.712447,17.05014 0.317281,34.14232 0.433682,51.21072 -4.409724,0 -8.819444,0 -13.229167,0 0.172781,1.50291 -0.347951,3.69934 0.264583,4.7625 22.40139,0 44.802777,0 67.204163,0 -0.17278,-1.50291 0.3479497,-3.69934 -0.26458,-4.7625 -3.08681,0 -6.17361,0 -9.260416,0 0,-25.31043 0,-50.62085 0,-75.931281 3.130904,-0.04814 6.261816,-0.09587 9.392706,-0.144694 -0.18088,-1.404089 0.35604,-3.503888 -0.26445,-4.481893 -15.281811,-0.367139 -30.543531,-1.187022 -45.807216,-1.924444 -2.235279,-0.09526 -4.473001,-0.05781 -6.709606,-0.0682 l -0.0016,0.264579 z"
         style="display:inline;fill:none;fill-opacity:1;stroke:#000000;stroke-width:0.26458332;stroke-opacity:1" />
      <path
         inkscape:connector-curvature="0"
         id="path5096"
         d="m 67.544799,75.340269 c -5.01824,2.079655 -9.76896,4.788203 -14.67913,7.117228 -22.70856,11.390892 -45.4941103,22.633253 -68.07399,34.276623 -1.386562,0.93146 -3.222122,1.41895 -4.317016,2.70372 0.24002,1.18659 2.069063,1.28121 2.924887,2.01279 26.4380287,13.42297 52.916029,26.77534 79.577089,39.75037 1.4831,0.67478 2.91457,1.47721 4.44569,2.03985 0.77577,-1.42983 0.15324,-3.24733 0.42013,-4.80591 0.35573,-27.77668 0.42265,-55.55628 0.40307,-83.334966 -0.23357,0.0801 -0.46715,0.160197 -0.70073,0.240295 z"
         style="display:inline;fill:none;fill-opacity:1;stroke:#000000;stroke-width:0.26458332;stroke-opacity:1" />
      <path
         inkscape:connector-curvature="0"
         id="path5092"
         d="m 155.39008,75.569712 c -22.94237,11.191158 -45.69916,22.770523 -68.515921,34.219638 -6.05883,3.09922 -12.18866,6.0757 -18.18163,9.2945 -0.98648,0.67365 0.80838,1.16325 1.32049,1.528 26.7408,13.5591 53.546241,26.99701 80.472881,40.18224 1.82271,0.80439 3.56137,1.8323 5.45817,2.45347 0.58423,-2.23318 0.12562,-4.64902 0.30983,-6.94579 0.0978,-26.19999 0.22267,-52.40295 -0.0785,-78.601668 -0.13446,-0.607113 0.2753,-2.337063 -0.78534,-2.13039 z"
         style="display:inline;fill:none;fill-opacity:1;stroke:#000000;stroke-width:0.26458332;stroke-opacity:1" />
    </g>
  </g>
</svg>
