<?xml version="1.0" encoding="UTF-8" standalone="no"?>
<!-- Created with Inkscape (http://www.inkscape.org/) -->

<svg
   xmlns:dc="http://purl.org/dc/elements/1.1/"
   xmlns:cc="http://creativecommons.org/ns#"
   xmlns:rdf="http://www.w3.org/1999/02/22-rdf-syntax-ns#"
   xmlns:svg="http://www.w3.org/2000/svg"
   xmlns="http://www.w3.org/2000/svg"
   xmlns:sodipodi="http://sodipodi.sourceforge.net/DTD/sodipodi-0.dtd"
   xmlns:inkscape="http://www.inkscape.org/namespaces/inkscape"
   width="400mm"
   height="300mm"
   viewBox="0 0 400 300"
   version="1.1"
   id="svg8"
   inkscape:version="0.92.4 (5da689c313, 2019-01-14)"
   sodipodi:docname="salt_stand_v2.svg">
  <defs
     id="defs2" />
  <sodipodi:namedview
     id="base"
     pagecolor="#ffffff"
     bordercolor="#666666"
     borderopacity="1.0"
     inkscape:pageopacity="0.0"
     inkscape:pageshadow="2"
     inkscape:zoom="0.98994949"
     inkscape:cx="341.44664"
     inkscape:cy="735.98037"
     inkscape:document-units="mm"
     inkscape:current-layer="layer2"
     showgrid="false"
     inkscape:window-width="1827"
     inkscape:window-height="1057"
     inkscape:window-x="-8"
     inkscape:window-y="-8"
     inkscape:window-maximized="1" />
  <metadata
     id="metadata5">
    <rdf:RDF>
      <cc:Work
         rdf:about="">
        <dc:format>image/svg+xml</dc:format>
        <dc:type
           rdf:resource="http://purl.org/dc/dcmitype/StillImage" />
        <dc:title></dc:title>
      </cc:Work>
    </rdf:RDF>
  </metadata>
  <g
     inkscape:groupmode="layer"
     id="layer2"
     inkscape:label="cut"
     style="display:inline">
    <path
       transform="translate(0,3.0000001)"
       style="fill:none;fill-opacity:1;stroke:#000000;stroke-width:0.05408741;stroke-miterlimit:4;stroke-dasharray:none;stroke-opacity:1;paint-order:markers stroke fill"
       d="m 34.20029,72.197653 c 18.537448,-8e-5 21.073398,9.63739 33.74894,9.99996 12.184151,-0.22936 16.449984,-9.95663 33.74894,-9.99996 16.93221,-0.0424 31.24901,15.01814 31.24901,33.672957 0,18.65482 -13.93707,33.69408 -31.24901,33.67295 -18.216972,-0.0222 -20.625643,-9.82628 -33.74894,-9.99995 -11.905426,0.15601 -16.907412,9.99806 -33.74894,9.99995 -17.311954,0.002 -31.2490168,-15.01813 -31.2490168,-33.67295 0,-18.654817 13.9370618,-33.672887 31.2490168,-33.672957 z"
       id="rect832"
       inkscape:connector-curvature="0"
       sodipodi:nodetypes="scssscsss" />
    <circle
       transform="translate(0,3.0000001)"
       style="fill:none;fill-opacity:1;stroke:#000000;stroke-width:0.05;stroke-miterlimit:4;stroke-dasharray:none;stroke-opacity:1;paint-order:markers stroke fill"
       id="path815-4"
       cx="36.522499"
       cy="34.900204"
       r="28.750002" />
    <path
       transform="translate(0,3.0000001)"
       style="fill:none;fill-opacity:1;stroke:#000000;stroke-width:0.05408741;stroke-miterlimit:4;stroke-dasharray:none;stroke-opacity:1;paint-order:markers stroke fill"
       d="m 34.023557,1.3022467 c 18.537449,-8e-5 21.073398,9.6373903 33.74894,9.9999603 12.184153,-0.22936 16.449985,-9.9566303 33.748933,-9.9999603 16.93221,-0.0424 31.24901,15.0181403 31.24901,33.6729603 0,18.65482 -13.93707,33.69408 -31.24901,33.67295 -18.216965,-0.0222 -20.625634,-9.82628 -33.748933,-9.99995 -11.905424,0.15601 -16.907412,9.99806 -33.74894,9.99995 -17.311954,0.002 -31.2490157,-15.01813 -31.2490157,-33.67295 0,-18.65482 13.9370607,-33.6728903 31.2490157,-33.6729603 z"
       id="rect832-0"
       inkscape:connector-curvature="0"
       sodipodi:nodetypes="scssscsss" />
    <circle
       transform="translate(0,3.0000001)"
       r="28.750002"
       style="fill:none;fill-opacity:1;stroke:#000000;stroke-width:0.05;stroke-miterlimit:4;stroke-dasharray:none;stroke-opacity:1;paint-order:markers stroke fill"
       id="path815-8-3"
       cx="99.072495"
       cy="34.900204" />
  </g>
  <g
     inkscape:groupmode="layer"
     id="layer3"
     inkscape:label="engrave"
     style="display:inline">
    <circle
       transform="translate(0,3.0000001)"
       style="fill:#000000;fill-opacity:1;stroke:#000000;stroke-width:0.05;stroke-miterlimit:4;stroke-dasharray:none;stroke-opacity:1;paint-order:markers stroke fill"
       id="path815"
       cx="36.699234"
       cy="105.79562"
       r="23.75" />
    <circle
       transform="translate(0,3.0000001)"
       style="fill:#000000;fill-opacity:1;stroke:#000000;stroke-width:0.05;stroke-miterlimit:4;stroke-dasharray:none;stroke-opacity:1;paint-order:markers stroke fill"
       id="path815-8"
       cx="99.249222"
       cy="105.79562"
       r="23.75" />
  </g>
</svg>
