<?xml version="1.0" encoding="UTF-8" standalone="no"?>
<!-- Created with Inkscape (http://www.inkscape.org/) -->

<svg
   xmlns:dc="http://purl.org/dc/elements/1.1/"
   xmlns:cc="http://creativecommons.org/ns#"
   xmlns:rdf="http://www.w3.org/1999/02/22-rdf-syntax-ns#"
   xmlns:svg="http://www.w3.org/2000/svg"
   xmlns="http://www.w3.org/2000/svg"
   xmlns:sodipodi="http://sodipodi.sourceforge.net/DTD/sodipodi-0.dtd"
   xmlns:inkscape="http://www.inkscape.org/namespaces/inkscape"
   width="400mm"
   height="300mm"
   viewBox="0 0 400 300"
   version="1.1"
   id="svg8"
   inkscape:version="0.92.4 (5da689c313, 2019-01-14)"
   sodipodi:docname="5_25_inch_floppy_coaster.svg">
  <defs
     id="defs2" />
  <sodipodi:namedview
     id="base"
     pagecolor="#ffffff"
     bordercolor="#666666"
     borderopacity="1.0"
     inkscape:pageopacity="0.0"
     inkscape:pageshadow="2"
     inkscape:zoom="0.64"
     inkscape:cx="-14.848791"
     inkscape:cy="631.37942"
     inkscape:document-units="mm"
     inkscape:current-layer="layer1"
     showgrid="false"
     inkscape:window-width="1619"
     inkscape:window-height="1021"
     inkscape:window-x="61"
     inkscape:window-y="0"
     inkscape:window-maximized="1" />
  <metadata
     id="metadata5">
    <rdf:RDF>
      <cc:Work
         rdf:about="">
        <dc:format>image/svg+xml</dc:format>
        <dc:type
           rdf:resource="http://purl.org/dc/dcmitype/StillImage" />
        <dc:title />
      </cc:Work>
    </rdf:RDF>
  </metadata>
  <g
     inkscape:label="cut"
     inkscape:groupmode="layer"
     id="layer1"
     transform="translate(0,3)"
     style="display:inline">
    <g
       id="g906"
       transform="translate(4.7777658,-159.6065)">
      <path
         id="rect837"
         transform="matrix(0.26458333,0,0,0.26458333,0,-3)"
         d="m 0.09375,627.30664 v 506.45706 h 194.0625 a 5.5581289,5.5581089 0 0 1 -0.0254,-0.4883 5.5581289,5.5581089 0 0 1 5.55859,-5.5586 5.5581289,5.5581089 0 0 1 5.5586,5.5586 5.5581289,5.5581089 0 0 1 -0.0234,0.4883 h 94.51562 a 5.558129,5.558109 0 0 1 -0.0312,-0.5313 5.558129,5.558109 0 0 1 5.5586,-5.5566 5.558129,5.558109 0 0 1 5.55859,5.5566 5.558129,5.558109 0 0 1 -0.0254,0.5313 h 195.75 V 764.90039 h -14.10156 v -24.24414 h 14.10156 V 627.30664 Z"
         style="fill:none;fill-opacity:1;stroke:#000000;stroke-width:0.18897638;stroke-miterlimit:4;stroke-dasharray:none;stroke-opacity:1;paint-order:markers stroke fill"
         inkscape:connector-curvature="0" />
      <path
         id="path882"
         d="m 81.951012,229.84853 a 15,15 0 0 1 -15,15 15,15 0 0 1 -15,-15 15,15 0 0 1 15,-15 15,15 0 0 1 15,15 z"
         style="fill:none;fill-opacity:1;stroke:#000000;stroke-width:0.05;stroke-miterlimit:4;stroke-dasharray:none;stroke-opacity:1;paint-order:markers stroke fill"
         inkscape:connector-curvature="0" />
    </g>
  </g>
  <g
     inkscape:groupmode="layer"
     id="layer3"
     inkscape:label="engrave"
     style="display:inline">
    <flowRoot
       xml:space="preserve"
       id="flowRoot979"
       style="font-style:normal;font-weight:normal;font-size:40px;line-height:1.25;font-family:sans-serif;letter-spacing:0px;word-spacing:0px;fill:#000000;fill-opacity:1;stroke:none"
       transform="scale(0.26458333)"><flowRegion
         id="flowRegion981"><rect
           id="rect983"
           width="77.529205"
           height="51.26524"
           x="25.75889"
           y="655.29852" /></flowRegion><flowPara
         id="flowPara985">Part No.</flowPara></flowRoot>    <path
       style="fill:#000000;fill-opacity:1;stroke:#000000;stroke-width:0.05;stroke-miterlimit:4;stroke-dasharray:none;stroke-opacity:1;paint-order:markers stroke fill"
       d="m 71.695128,53.442504 a 20,20 0 0 0 -19.999814,19.99981 20,20 0 0 0 19.999814,20.00033 20,20 0 0 0 20.000328,-20.00033 20,20 0 0 0 -20.000328,-19.99981 z m 0.03359,4.7997 a 15,15 0 0 1 15.000117,14.99961 15,15 0 0 1 -15.000118,15.00011 15,15 0 0 1 -15.000118,-15.00011 15,15 0 0 1 15.000119,-14.99961 z"
       id="path910"
       inkscape:connector-curvature="0" />
    <path
       inkscape:connector-curvature="0"
       style="fill:#000000;fill-opacity:1;stroke:#000000;stroke-width:0.05;stroke-miterlimit:4;stroke-dasharray:none;stroke-opacity:1;paint-order:markers stroke fill"
       d="m 99.484621,80.224444 a 3,3 0 0 1 -3,3 3,3 0 0 1 -3,-3 3,3 0 0 1 3,-3 3,3 0 0 1 3,3 z"
       id="path914" />
    <path
       inkscape:connector-curvature="0"
       style="fill:#000000;fill-opacity:1;stroke:#000000;stroke-width:0.05;stroke-miterlimit:4;stroke-dasharray:none;stroke-opacity:1;paint-order:markers stroke fill"
       d="m 71.585055,101.8399 c 3.664479,0 6.614583,3.122 6.614583,7 v 21.52976 c 0,3.878 -2.950104,7 -6.614583,7 -3.664479,0 -6.614583,-3.122 -6.614583,-7 V 108.8399 c 0,-3.878 2.950105,-7 6.614583,-7 z"
       id="rect916" />
    <path
       inkscape:connector-curvature="0"
       style="fill:none;fill-opacity:1;stroke:#000000;stroke-width:0.25;stroke-miterlimit:4;stroke-dasharray:none;stroke-opacity:1;paint-order:markers stroke fill"
       d="m 81.428065,8.007324 h 46.648805 c 1.108,0 2,0.892 2,2 v 27.18304 c 0,1.108 -0.892,2 -2,2 H 81.428065 c -1.108001,0 -2,-0.892 -2,-2 v -27.18304 c 0,-1.108 0.891999,-2 2,-2 z"
       id="rect918" />
    <path
       inkscape:connector-curvature="0"
       style="fill:#000000;fill-opacity:1;stroke:#000000;stroke-width:0.04796601;stroke-miterlimit:4;stroke-dasharray:none;stroke-opacity:1;paint-order:markers stroke fill"
       d="m 81.801753,11.694324 h 45.548157 v 0.52175 H 81.801753 Z"
       id="rect920" />
    <path
       inkscape:connector-curvature="0"
       style="display:inline;fill:#000000;fill-opacity:1;stroke:#000000;stroke-width:0.04796601;stroke-miterlimit:4;stroke-dasharray:none;stroke-opacity:1;paint-order:markers stroke fill"
       d="m 81.801753,17.573834 h 45.548157 v 0.52175 H 81.801753 Z"
       id="rect920-3" />
    <path
       inkscape:connector-curvature="0"
       style="display:inline;fill:#000000;fill-opacity:1;stroke:#000000;stroke-width:0.04796601;stroke-miterlimit:4;stroke-dasharray:none;stroke-opacity:1;paint-order:markers stroke fill"
       d="m 81.801753,23.385224 h 45.548157 v 0.52175 H 81.801753 Z"
       id="rect920-2" />
    <path
       inkscape:connector-curvature="0"
       style="display:inline;fill:#000000;fill-opacity:1;stroke:#000000;stroke-width:0.04796601;stroke-miterlimit:4;stroke-dasharray:none;stroke-opacity:1;paint-order:markers stroke fill"
       d="m 81.801753,29.149354 h 45.548157 v 0.52175 H 81.801753 Z"
       id="rect920-8" />
    <path
       inkscape:connector-curvature="0"
       style="display:inline;fill:#000000;fill-opacity:1;stroke:#000000;stroke-width:0.04796601;stroke-miterlimit:4;stroke-dasharray:none;stroke-opacity:1;paint-order:markers stroke fill"
       d="m 81.801753,34.818754 h 45.548157 v 0.52175 H 81.801753 Z"
       id="rect920-6" />
    <path
       inkscape:connector-curvature="0"
       style="display:inline;fill:none;fill-opacity:1;stroke:#000000;stroke-width:0.25;stroke-miterlimit:4;stroke-dasharray:none;stroke-opacity:1;paint-order:markers stroke fill"
       d="m 10.841009,8.668794 h 46.64881 c 1.108,0 2,0.892 2,2 v 27.18303 c 0,1.108 -0.892,2 -2,2 h -46.64881 c -1.1080003,0 -2.0000003,-0.892 -2.0000003,-2 v -27.18303 c 0,-1.108 0.892,-2 2.0000003,-2 z"
       id="rect918-5" />
    <g
       aria-label="Part No."
       style="font-style:normal;font-weight:normal;font-size:3.52777767px;line-height:1.25;font-family:sans-serif;letter-spacing:0px;word-spacing:0px;fill:#000000;fill-opacity:1;stroke:none;stroke-width:0.26458332"
       id="text989"
       transform="matrix(0.87240458,0,0,0.87240458,-5.4767222,-116.24734)">
      <path
         d="m 22.465944,145.83372 q -0.158475,0.13092 -0.354845,0.19637 -0.194648,0.0637 -0.470256,0.0637 H 21.26705 l -0.222208,0.96118 h -0.34451 l 0.592557,-2.56488 h 0.675238 q 0.234267,0 0.387574,0.0413 0.153306,0.0413 0.251492,0.11885 0.10163,0.0775 0.155029,0.18948 0.0534,0.11024 0.0534,0.267 0,0.21015 -0.09129,0.39963 -0.0913,0.18776 -0.258382,0.32728 z m -0.0155,-0.66835 q 0,-0.0879 -0.02928,-0.16364 -0.02928,-0.0758 -0.0913,-0.12402 -0.07407,-0.0568 -0.1757,-0.081 -0.09991,-0.0258 -0.261827,-0.0258 h -0.318671 l -0.242879,1.04559 H 21.6374 q 0.206706,0 0.342787,-0.0379 0.137804,-0.0379 0.237712,-0.12058 0.117133,-0.0982 0.173977,-0.22048 0.05857,-0.12231 0.05857,-0.27217 z"
         style="font-style:italic;font-variant:normal;font-weight:normal;font-stretch:normal;font-family:sans-serif;-inkscape-font-specification:'sans-serif Italic';stroke-width:0.26458332"
         id="path991"
         inkscape:connector-curvature="0" />
      <path
         d="m 24.214329,146.04043 q -0.265272,0.0103 -0.471978,0.0413 -0.204983,0.0293 -0.339342,0.0861 -0.139526,0.0568 -0.211873,0.15503 -0.07235,0.0965 -0.07235,0.24115 0,0.12403 0.08441,0.18948 0.08441,0.0655 0.261827,0.0655 0.156752,0 0.318671,-0.0689 0.163643,-0.0706 0.304891,-0.16881 z m -0.187757,0.80959 q -0.04651,0.0276 -0.127469,0.0792 -0.07924,0.05 -0.161919,0.0861 -0.08785,0.0396 -0.196371,0.0655 -0.10852,0.0276 -0.249769,0.0276 -0.229099,0 -0.37207,-0.13264 -0.142972,-0.13436 -0.142972,-0.34968 0,-0.2291 0.09991,-0.38585 0.10163,-0.15847 0.299723,-0.25838 0.194648,-0.0982 0.468533,-0.14125 0.275608,-0.0448 0.627007,-0.0551 0.01034,-0.0482 0.01723,-0.0827 0.0069,-0.0362 0.0069,-0.0741 0,-0.0827 -0.03273,-0.13436 -0.03273,-0.0517 -0.09302,-0.0827 -0.06029,-0.031 -0.141249,-0.0413 -0.07924,-0.0121 -0.1757,-0.0121 -0.146416,0 -0.334174,0.0482 -0.187758,0.0465 -0.304891,0.093 h -0.01722 l 0.06373,-0.32384 q 0.09818,-0.0258 0.287665,-0.0586 0.189481,-0.0327 0.363458,-0.0327 0.35829,0 0.537435,0.11197 0.179145,0.11196 0.179145,0.35484 0,0.0465 -0.0086,0.0999 -0.0069,0.0517 -0.01722,0.0982 l -0.301446,1.30569 H 23.97834 Z"
         style="font-style:italic;font-variant:normal;font-weight:normal;font-stretch:normal;font-family:sans-serif;-inkscape-font-specification:'sans-serif Italic';stroke-width:0.26458332"
         id="path993"
         inkscape:connector-curvature="0" />
      <path
         d="m 26.481202,145.47199 h -0.01723 q -0.0689,-0.0172 -0.129191,-0.0241 -0.05857,-0.009 -0.142971,-0.009 -0.16192,0 -0.322116,0.0741 -0.158475,0.0723 -0.304891,0.1757 l -0.310059,1.36598 H 24.92746 l 0.43925,-1.92409 h 0.327284 l -0.06546,0.28422 q 0.229099,-0.16019 0.387573,-0.22221 0.160197,-0.062 0.306614,-0.062 0.0844,0 0.1223,0.005 0.0379,0.003 0.110244,0.0155 z"
         style="font-style:italic;font-variant:normal;font-weight:normal;font-stretch:normal;font-family:sans-serif;-inkscape-font-specification:'sans-serif Italic';stroke-width:0.26458332"
         id="path995"
         inkscape:connector-curvature="0" />
      <path
         d="m 27.879911,145.13092 -0.05857,0.26183 h -0.668348 l -0.206706,0.88711 q -0.01722,0.0672 -0.03101,0.15503 -0.01378,0.0861 -0.01378,0.1378 0,0.12575 0.06373,0.18776 0.06373,0.0603 0.235989,0.0603 0.07062,0 0.167087,-0.0241 0.09819,-0.0241 0.132637,-0.0379 h 0.01722 l -0.06029,0.27905 q -0.09646,0.0241 -0.206706,0.0396 -0.10852,0.0155 -0.192925,0.0155 -0.237712,0 -0.368625,-0.10335 -0.129191,-0.10507 -0.129191,-0.33073 0,-0.0551 0.0069,-0.10852 0.0086,-0.0551 0.02239,-0.12402 l 0.239434,-1.03353 h -0.218764 l 0.05857,-0.26183 h 0.218764 l 0.129191,-0.55294 h 0.323839 l -0.129191,0.55294 z"
         style="font-style:italic;font-variant:normal;font-weight:normal;font-stretch:normal;font-family:sans-serif;-inkscape-font-specification:'sans-serif Italic';stroke-width:0.26458332"
         id="path997"
         inkscape:connector-curvature="0" />
      <path
         d="m 31.052843,147.05501 h -0.406521 l -0.701077,-2.29444 -0.530544,2.29444 h -0.322117 l 0.592557,-2.56488 h 0.513319 l 0.640788,2.09462 0.484035,-2.09462 H 31.6454 Z"
         style="font-style:italic;font-variant:normal;font-weight:normal;font-stretch:normal;font-family:sans-serif;-inkscape-font-specification:'sans-serif Italic';stroke-width:0.26458332"
         id="path999"
         inkscape:connector-curvature="0" />
      <path
         d="m 33.59877,145.81133 q 0,0.25838 -0.07924,0.49609 -0.07924,0.23771 -0.223931,0.41341 -0.149861,0.18259 -0.346232,0.28595 -0.19637,0.10163 -0.458198,0.10163 -0.342787,0 -0.535712,-0.19465 -0.191203,-0.19637 -0.191203,-0.54088 0,-0.25838 0.07752,-0.49265 0.07924,-0.23427 0.227376,-0.41686 0.142972,-0.1757 0.349677,-0.28077 0.208429,-0.10508 0.454753,-0.10508 0.332452,0 0.528822,0.18948 0.196371,0.18948 0.196371,0.54433 z m -0.5271,0.72691 q 0.09302,-0.1378 0.141249,-0.31867 0.04995,-0.18087 0.04995,-0.3824 0,-0.24116 -0.115411,-0.36518 -0.115411,-0.12403 -0.325561,-0.12403 -0.167088,0 -0.299724,0.081 -0.132636,0.0792 -0.229099,0.21877 -0.09302,0.13608 -0.142971,0.31867 -0.04995,0.18259 -0.04995,0.37896 0,0.23771 0.115411,0.36518 0.11541,0.12747 0.327284,0.12747 0.165364,0 0.299723,-0.0792 0.134359,-0.0792 0.229099,-0.22049 z"
         style="font-style:italic;font-variant:normal;font-weight:normal;font-stretch:normal;font-family:sans-serif;-inkscape-font-specification:'sans-serif Italic';stroke-width:0.26458332"
         id="path1001"
         inkscape:connector-curvature="0" />
      <path
         d="m 34.380806,147.05501 h -0.415134 l 0.113688,-0.49093 h 0.415134 z"
         style="font-style:italic;font-variant:normal;font-weight:normal;font-stretch:normal;font-family:sans-serif;-inkscape-font-specification:'sans-serif Italic';stroke-width:0.26458332"
         id="path1003"
         inkscape:connector-curvature="0" />
    </g>
    <g
       aria-label="6023450"
       style="font-style:normal;font-weight:normal;font-size:3.52777767px;line-height:1.25;font-family:sans-serif;letter-spacing:0px;word-spacing:0px;fill:#000000;fill-opacity:1;stroke:none;stroke-width:0.26458332"
       id="text1008"
       transform="matrix(0.80054398,0,0,0.80054398,20.020427,-112.65515)">
      <path
         d="m 21.270582,156.32922 q -0.377238,0 -0.585666,-0.23255 -0.208428,-0.23426 -0.208428,-0.63906 0,-0.37207 0.105075,-0.69247 0.105076,-0.32211 0.308336,-0.57188 0.199816,-0.24288 0.496094,-0.38585 0.298001,-0.1447 0.666626,-0.1447 0.108521,0 0.180868,0.0121 0.07235,0.0121 0.120578,0.0276 l -0.06029,0.30489 h -0.01723 q -0.03962,-0.0189 -0.136081,-0.0396 -0.09474,-0.0207 -0.19637,-0.0207 -0.368626,0 -0.656291,0.24116 -0.287666,0.23943 -0.387573,0.62356 0.149861,-0.0844 0.320393,-0.13263 0.170533,-0.0482 0.339342,-0.0482 0.158475,0 0.287666,0.0396 0.130913,0.0396 0.234266,0.12575 0.110243,0.093 0.163642,0.22049 0.0534,0.12746 0.0534,0.29283 0,0.42375 -0.292833,0.72175 -0.29111,0.298 -0.735528,0.298 z m 0.670071,-0.98186 q 0,-0.21704 -0.127468,-0.33072 -0.127469,-0.11542 -0.380683,-0.11542 -0.130914,0 -0.280775,0.0396 -0.14814,0.0396 -0.292834,0.11541 -0.01722,0.0741 -0.02928,0.18948 -0.01033,0.11369 -0.01033,0.22221 0,0.16709 0.04306,0.28078 0.04479,0.11369 0.10852,0.17914 0.0689,0.0706 0.156752,0.10163 0.08957,0.031 0.184313,0.031 0.279052,0 0.45303,-0.19637 0.175699,-0.19637 0.175699,-0.51677 z"
         style="font-style:italic;font-variant:normal;font-weight:normal;font-stretch:normal;font-family:sans-serif;-inkscape-font-specification:'sans-serif Italic';stroke-width:0.26458332"
         id="path1010"
         inkscape:connector-curvature="0" />
      <path
         d="m 24.655389,154.41202 q 0,0.34107 -0.127469,0.80271 -0.125746,0.46164 -0.313504,0.70969 -0.160197,0.20843 -0.354844,0.30661 -0.192926,0.0982 -0.447863,0.0982 -0.349677,0 -0.520209,-0.18604 -0.170532,-0.18603 -0.170532,-0.56672 0,-0.30833 0.118855,-0.77687 0.120579,-0.46853 0.322117,-0.73552 0.155029,-0.20671 0.353122,-0.30489 0.199816,-0.0999 0.451308,-0.0999 0.347954,0 0.518486,0.18776 0.170533,0.18603 0.170533,0.56499 z m -0.347955,-0.005 q 0,-0.23082 -0.08785,-0.35312 -0.08613,-0.1223 -0.310059,-0.1223 -0.165364,0 -0.292833,0.0724 -0.125746,0.0723 -0.230821,0.25493 -0.120578,0.21188 -0.218764,0.63218 -0.09819,0.41858 -0.09819,0.69074 0,0.23082 0.08613,0.35312 0.08785,0.1223 0.311781,0.1223 0.156752,0 0.29111,-0.0758 0.134359,-0.0758 0.232544,-0.25149 0.120579,-0.21532 0.218764,-0.6339 0.09819,-0.4203 0.09819,-0.68902 z"
         style="font-style:italic;font-variant:normal;font-weight:normal;font-stretch:normal;font-family:sans-serif;-inkscape-font-specification:'sans-serif Italic';stroke-width:0.26458332"
         id="path1012"
         inkscape:connector-curvature="0" />
      <path
         d="m 26.534688,156.27582 h -1.73805 l 0.08096,-0.36001 q 0.24288,-0.17743 0.411689,-0.30145 0.170532,-0.12575 0.409967,-0.31695 0.420301,-0.3359 0.592556,-0.56499 0.173977,-0.23083 0.173977,-0.44787 0,-0.16881 -0.120578,-0.25493 -0.118856,-0.0861 -0.306614,-0.0861 -0.153306,0 -0.351399,0.0586 -0.196371,0.0568 -0.385851,0.16537 h -0.01722 l 0.0689,-0.34968 q 0.136082,-0.062 0.347955,-0.11024 0.211873,-0.05 0.406521,-0.05 0.346232,0 0.53399,0.15158 0.187758,0.14986 0.187758,0.40652 0,0.27733 -0.158475,0.52538 -0.158474,0.24632 -0.55466,0.57533 -0.235989,0.19465 -0.485758,0.37896 -0.248047,0.18259 -0.409967,0.298 h 1.378038 z"
         style="font-style:italic;font-variant:normal;font-weight:normal;font-stretch:normal;font-family:sans-serif;-inkscape-font-specification:'sans-serif Italic';stroke-width:0.26458332"
         id="path1014"
         inkscape:connector-curvature="0" />
      <path
         d="m 28.624138,156.05016 q -0.151584,0.13264 -0.349677,0.20671 -0.19637,0.0724 -0.456475,0.0724 -0.208428,0 -0.404799,-0.0534 -0.194648,-0.0517 -0.329006,-0.12403 l 0.08096,-0.33072 h 0.02584 q 0.118855,0.0896 0.298,0.15675 0.179145,0.0654 0.378961,0.0654 0.310059,0 0.508151,-0.18431 0.198093,-0.18431 0.198093,-0.47887 0,-0.18086 -0.125746,-0.27044 -0.125745,-0.0896 -0.391018,-0.0896 H 27.89378 l 0.06718,-0.27388 h 0.16364 q 0.29111,0 0.477145,-0.13264 0.186035,-0.13436 0.186035,-0.36346 0,-0.14469 -0.111965,-0.22565 -0.110243,-0.081 -0.327284,-0.081 -0.179145,0 -0.382406,0.0655 -0.20326,0.0654 -0.360012,0.15847 h -0.01723 l 0.07407,-0.34796 q 0.137804,-0.0603 0.349677,-0.11024 0.213596,-0.0517 0.404799,-0.0517 0.339342,0 0.533989,0.13608 0.196371,0.13436 0.196371,0.36862 0,0.25494 -0.18948,0.45303 -0.187758,0.19637 -0.475424,0.24977 v 0.0172 q 0.06718,0.0138 0.14814,0.0517 0.08268,0.0362 0.144694,0.093 0.06546,0.0586 0.10852,0.14814 0.04479,0.0896 0.04479,0.21187 0,0.18776 -0.08096,0.36346 -0.08096,0.17398 -0.223932,0.29972 z"
         style="font-style:italic;font-variant:normal;font-weight:normal;font-stretch:normal;font-family:sans-serif;-inkscape-font-specification:'sans-serif Italic';stroke-width:0.26458332"
         id="path1016"
         inkscape:connector-curvature="0" />
      <path
         d="m 31.254469,155.5489 h -0.380683 l -0.16881,0.72692 h -0.334174 l 0.16881,-0.72692 h -1.226454 l 0.08957,-0.39102 1.574409,-1.44694 h 0.320394 l -0.363458,1.57614 h 0.380683 z m -0.654568,-0.26182 0.268717,-1.15928 -1.25746,1.15928 z"
         style="font-style:italic;font-variant:normal;font-weight:normal;font-stretch:normal;font-family:sans-serif;-inkscape-font-specification:'sans-serif Italic';stroke-width:0.26458332"
         id="path1018"
         inkscape:connector-curvature="0" />
      <path
         d="m 33.163052,156.02605 q -0.151584,0.14297 -0.353122,0.22393 -0.201538,0.0792 -0.473701,0.0792 -0.210151,0 -0.396186,-0.0517 -0.186035,-0.0517 -0.308336,-0.11369 l 0.0689,-0.33417 h 0.02412 q 0.106798,0.081 0.287665,0.14814 0.180868,0.0654 0.375516,0.0654 0.320393,0 0.516764,-0.18603 0.19637,-0.18604 0.19637,-0.48748 0,-0.11714 -0.04479,-0.19465 -0.04479,-0.0775 -0.120578,-0.12575 -0.07751,-0.0482 -0.184313,-0.0689 -0.105075,-0.0207 -0.222208,-0.0207 -0.151585,0 -0.304891,0.0224 -0.151585,0.0224 -0.258383,0.0431 l 0.303169,-1.31431 h 1.538235 l -0.06718,0.28939 h -1.204061 l -0.16192,0.70625 q 0.07062,-0.0103 0.137804,-0.0155 0.06718,-0.005 0.136081,-0.005 0.387574,0 0.602892,0.16708 0.217041,0.16709 0.217041,0.45476 0,0.2067 -0.07924,0.39274 -0.07924,0.18603 -0.225654,0.32556 z"
         style="font-style:italic;font-variant:normal;font-weight:normal;font-stretch:normal;font-family:sans-serif;-inkscape-font-specification:'sans-serif Italic';stroke-width:0.26458332"
         id="path1020"
         inkscape:connector-curvature="0" />
      <path
         d="m 35.886399,154.41202 q 0,0.34107 -0.127468,0.80271 -0.125746,0.46164 -0.313504,0.70969 -0.160197,0.20843 -0.354845,0.30661 -0.192925,0.0982 -0.447862,0.0982 -0.349677,0 -0.52021,-0.18604 -0.170532,-0.18603 -0.170532,-0.56672 0,-0.30833 0.118856,-0.77687 0.120578,-0.46853 0.322116,-0.73552 0.15503,-0.20671 0.353123,-0.30489 0.199815,-0.0999 0.451307,-0.0999 0.347955,0 0.518487,0.18776 0.170532,0.18603 0.170532,0.56499 z m -0.347954,-0.005 q 0,-0.23082 -0.08785,-0.35312 -0.08613,-0.1223 -0.310059,-0.1223 -0.165364,0 -0.292833,0.0724 -0.125746,0.0723 -0.230821,0.25493 -0.120579,0.21188 -0.218764,0.63218 -0.09818,0.41858 -0.09818,0.69074 0,0.23082 0.08613,0.35312 0.08785,0.1223 0.311781,0.1223 0.156752,0 0.291111,-0.0758 0.134359,-0.0758 0.232544,-0.25149 0.120578,-0.21532 0.218763,-0.6339 0.09819,-0.4203 0.09819,-0.68902 z"
         style="font-style:italic;font-variant:normal;font-weight:normal;font-stretch:normal;font-family:sans-serif;-inkscape-font-specification:'sans-serif Italic';stroke-width:0.26458332"
         id="path1022"
         inkscape:connector-curvature="0" />
    </g>
    <g
       aria-label="Double Sided Double Density 40 Track Soft Sectored"
       transform="matrix(0.20088193,0,0,0.20088193,19.730609,-95.834079)"
       style="font-style:normal;font-weight:normal;font-size:13.33333302px;line-height:1.25;font-family:sans-serif;letter-spacing:0px;word-spacing:0px;fill:#000000;fill-opacity:1;stroke:none"
       id="flowRoot1025">
      <path
         d="m 92.217448,552.13706 q 0,1.58854 -0.807292,3.00781 -0.807292,1.41927 -2.207031,2.19401 -0.859375,0.46224 -1.757813,0.61849 -0.898437,0.15625 -2.03776,0.15625 h -2.617187 l 2.239583,-9.69401 h 2.252604 q 1.054687,0 1.920573,0.14974 0.872396,0.14323 1.595052,0.625 0.690104,0.46224 1.054687,1.21094 0.364584,0.74219 0.364584,1.73177 z m -1.360677,0.11068 q 0,-0.74219 -0.266927,-1.27604 -0.260417,-0.54037 -0.794271,-0.89844 -0.527344,-0.35156 -1.126302,-0.46875 -0.598959,-0.1237 -1.516927,-0.1237 h -1.074219 l -1.757813,7.57161 h 1.347657 q 0.930989,0 1.660156,-0.14973 0.735677,-0.15625 1.386719,-0.52735 1.048177,-0.59896 1.595052,-1.72526 0.546875,-1.13281 0.546875,-2.40234 z"
         style="font-style:italic;font-variant:normal;font-weight:normal;font-stretch:normal;font-family:sans-serif;-inkscape-font-specification:'sans-serif Italic'"
         id="path1039"
         inkscape:connector-curvature="0" />
      <path
         d="m 100.04948,553.4131 q 0,0.97656 -0.29948,1.875 -0.29948,0.89844 -0.846355,1.5625 -0.566406,0.69011 -1.308593,1.08073 -0.742188,0.38412 -1.731771,0.38412 -1.295573,0 -2.02474,-0.73568 -0.722656,-0.74219 -0.722656,-2.04427 0,-0.97656 0.292969,-1.86198 0.299479,-0.88542 0.859375,-1.57552 0.540364,-0.66406 1.321614,-1.0612 0.787761,-0.39714 1.71875,-0.39714 1.256511,0 1.998698,0.71615 0.742189,0.71615 0.742189,2.05729 z m -1.992189,2.7474 q 0.351563,-0.52084 0.533854,-1.20443 0.188802,-0.68359 0.188802,-1.44531 0,-0.91146 -0.436197,-1.38021 -0.436198,-0.46875 -1.230469,-0.46875 -0.631511,0 -1.132813,0.30599 -0.501302,0.29948 -0.865885,0.82682 -0.351563,0.51433 -0.540365,1.20443 -0.188802,0.6901 -0.188802,1.43229 0,0.89844 0.436198,1.38021 0.436198,0.48177 1.236979,0.48177 0.625,0 1.132813,-0.29948 0.507812,-0.29948 0.865885,-0.83333 z"
         style="font-style:italic;font-variant:normal;font-weight:normal;font-stretch:normal;font-family:sans-serif;-inkscape-font-specification:'sans-serif Italic'"
         id="path1041"
         inkscape:connector-curvature="0" />
      <path
         d="m 108.70833,550.84149 -1.67968,7.27213 h -1.22396 l 0.1888,-0.80729 q -0.69662,0.47526 -1.30208,0.74219 -0.59896,0.26693 -1.26954,0.26693 -0.9375,0 -1.46484,-0.46875 -0.52734,-0.47526 -0.52734,-1.38021 0,-0.22136 0.026,-0.42969 0.0326,-0.20833 0.0846,-0.47526 l 1.08724,-4.72005 h 1.22396 l -0.95703,4.14062 q -0.0586,0.25391 -0.11068,0.57943 -0.0521,0.32552 -0.0521,0.51432 0,0.5599 0.27995,0.83985 0.28646,0.27994 0.97005,0.27994 0.48177,0 1.10026,-0.27994 0.625,-0.27995 1.15234,-0.64454 l 1.25,-5.42968 z"
         style="font-style:italic;font-variant:normal;font-weight:normal;font-stretch:normal;font-family:sans-serif;-inkscape-font-specification:'sans-serif Italic'"
         id="path1043"
         inkscape:connector-curvature="0" />
      <path
         d="m 116.82682,553.13966 q 0,1.0612 -0.33203,2.02474 -0.33203,0.96355 -0.88542,1.64714 -0.57942,0.71615 -1.29557,1.11328 -0.71614,0.39063 -1.58203,0.39063 -0.57943,0 -1.08724,-0.15625 -0.5013,-0.14974 -0.89844,-0.40365 l -0.16276,0.35807 h -1.14583 l 2.33724,-10.13021 h 1.22396 l -0.83334,3.6198 q 0.60547,-0.42318 1.1849,-0.69011 0.57943,-0.27344 1.28906,-0.27344 1.0612,0 1.6211,0.65756 0.5664,0.65755 0.5664,1.84244 z m -2.01172,2.92318 q 0.36459,-0.5664 0.54688,-1.24349 0.18229,-0.67708 0.18229,-1.44531 0,-0.77474 -0.33854,-1.19141 -0.33854,-0.42317 -1.08073,-0.42317 -0.54037,0 -1.11979,0.26692 -0.57943,0.26693 -1.08073,0.60547 l -0.95703,4.16016 q 0.41666,0.22135 0.80729,0.34505 0.39713,0.1237 0.94401,0.1237 0.67708,0 1.21094,-0.33203 0.53385,-0.33203 0.88541,-0.86589 z"
         style="font-style:italic;font-variant:normal;font-weight:normal;font-stretch:normal;font-family:sans-serif;-inkscape-font-specification:'sans-serif Italic'"
         id="path1045"
         inkscape:connector-curvature="0" />
      <path
         d="m 121.32552,547.98341 -2.34375,10.13021 h -1.22396 l 2.34375,-10.13021 z"
         style="font-style:italic;font-variant:normal;font-weight:normal;font-stretch:normal;font-family:sans-serif;-inkscape-font-specification:'sans-serif Italic'"
         id="path1047"
         inkscape:connector-curvature="0" />
      <path
         d="m 127.30208,553.68654 q 0.0326,-0.1888 0.0456,-0.31901 0.013,-0.13021 0.013,-0.28646 0,-0.69661 -0.38412,-1.08724 -0.3776,-0.39062 -1.21745,-0.39062 -0.92448,0 -1.64062,0.57291 -0.71615,0.57292 -0.97005,1.51042 z m -2.44791,4.59635 q -1.51042,0 -2.3698,-0.70963 -0.85937,-0.70964 -0.85937,-2.07682 0,-1.9987 1.26302,-3.42448 1.26302,-1.4323 3.125,-1.4323 1.23698,0 1.89453,0.61849 0.65755,0.61198 0.65755,1.72526 0,0.19532 -0.0586,0.61849 -0.0521,0.42318 -0.17578,0.98308 h -5.35808 q -0.0391,0.1888 -0.0586,0.37109 -0.013,0.18229 -0.013,0.33854 0,0.91797 0.5599,1.44531 0.55989,0.52084 1.58854,0.52084 0.71614,0 1.47135,-0.27995 0.76172,-0.27995 1.27604,-0.63151 h 0.0716 l -0.26693,1.32161 q -0.32552,0.11719 -0.58594,0.21485 -0.26041,0.0977 -0.66406,0.19531 -0.40364,0.0977 -0.71614,0.14974 -0.3125,0.0521 -0.78125,0.0521 z"
         style="font-style:italic;font-variant:normal;font-weight:normal;font-stretch:normal;font-family:sans-serif;-inkscape-font-specification:'sans-serif Italic'"
         id="path1049"
         inkscape:connector-curvature="0" />
      <path
         d="m 137.49088,558.2894 q -0.94401,0 -1.79687,-0.19531 -0.85287,-0.20182 -1.67318,-0.61198 l 0.3125,-1.47786 h 0.0911 q 0.625,0.59245 1.52994,0.91146 0.91146,0.3125 1.75782,0.3125 1.38672,0 2.12239,-0.54688 0.74219,-0.55338 0.74219,-1.40625 0,-0.44922 -0.26693,-0.7487 -0.26041,-0.29948 -0.76823,-0.44271 -0.42317,-0.11718 -1.00911,-0.22135 -0.57943,-0.11068 -1.10677,-0.23437 -1.02214,-0.22787 -1.58203,-0.78125 -0.5599,-0.55339 -0.5599,-1.3737 0,-1.38672 1.17188,-2.30469 1.17838,-0.92448 3.04036,-0.92448 1.01563,0 1.84245,0.21484 0.83333,0.20834 1.43229,0.4948 l -0.29297,1.38672 h -0.0911 q -0.46224,-0.42318 -1.32162,-0.72917 -0.85286,-0.30599 -1.79687,-0.30599 -1.1849,0 -1.89453,0.52083 -0.70313,0.52084 -0.70313,1.32162 0,0.42968 0.25391,0.75521 0.2539,0.32552 0.90494,0.48828 0.41667,0.0976 1.10678,0.24088 0.6901,0.13672 1.15885,0.26042 0.92448,0.2539 1.39974,0.75521 0.48177,0.5013 0.48177,1.26302 0,0.63802 -0.3125,1.26953 -0.3125,0.63151 -0.8724,1.08073 -0.59895,0.48177 -1.40625,0.75521 -0.80078,0.27343 -1.89453,0.27343 z"
         style="font-style:italic;font-variant:normal;font-weight:normal;font-stretch:normal;font-family:sans-serif;-inkscape-font-specification:'sans-serif Italic'"
         id="path1051"
         inkscape:connector-curvature="0" />
      <path
         d="m 146.72917,548.35451 -0.29297,1.26953 h -1.38021 l 0.29297,-1.26953 z m -0.65105,2.48698 -1.67968,7.27213 h -1.22396 l 1.67969,-7.27213 z"
         style="font-style:italic;font-variant:normal;font-weight:normal;font-stretch:normal;font-family:sans-serif;-inkscape-font-specification:'sans-serif Italic'"
         id="path1053"
         inkscape:connector-curvature="0" />
      <path
         d="m 155.07552,547.98341 -2.34375,10.13021 h -1.22396 l 0.17578,-0.76172 q -0.82682,0.56641 -1.33463,0.76172 -0.5013,0.20183 -1.09375,0.20183 -1.02865,0 -1.63412,-0.65105 -0.59895,-0.65104 -0.59895,-1.89453 0,-1.04817 0.32552,-1.97916 0.32552,-0.9375 0.88541,-1.64063 0.55339,-0.69661 1.3086,-1.10026 0.7552,-0.41016 1.60156,-0.41016 0.57943,0 1.06771,0.1237 0.48828,0.1237 0.91146,0.3711 l 0.72916,-3.15105 z m -2.1875,4.16667 q -0.4362,-0.22786 -0.85937,-0.33203 -0.41667,-0.11068 -0.89193,-0.11068 -0.67708,0 -1.21094,0.32552 -0.52734,0.32552 -0.90495,0.89193 -0.34505,0.51432 -0.53385,1.23698 -0.18229,0.72266 -0.18229,1.39974 0,0.79427 0.33854,1.21745 0.34505,0.41666 1.11328,0.41666 0.54688,0 1.11328,-0.27343 0.57292,-0.27344 1.05469,-0.59896 z"
         style="font-style:italic;font-variant:normal;font-weight:normal;font-stretch:normal;font-family:sans-serif;-inkscape-font-specification:'sans-serif Italic'"
         id="path1055"
         inkscape:connector-curvature="0" />
      <path
         d="m 161.02604,553.68654 q 0.0326,-0.1888 0.0456,-0.31901 0.013,-0.13021 0.013,-0.28646 0,-0.69661 -0.38411,-1.08724 -0.37761,-0.39062 -1.21745,-0.39062 -0.92448,0 -1.64062,0.57291 -0.71615,0.57292 -0.97006,1.51042 z m -2.44792,4.59635 q -1.51041,0 -2.36979,-0.70963 -0.85937,-0.70964 -0.85937,-2.07682 0,-1.9987 1.26302,-3.42448 1.26302,-1.4323 3.125,-1.4323 1.23698,0 1.89453,0.61849 0.65755,0.61198 0.65755,1.72526 0,0.19532 -0.0586,0.61849 -0.0521,0.42318 -0.17579,0.98308 h -5.35807 q -0.0391,0.1888 -0.0586,0.37109 -0.013,0.18229 -0.013,0.33854 0,0.91797 0.55989,1.44531 0.5599,0.52084 1.58854,0.52084 0.71615,0 1.47136,-0.27995 0.76172,-0.27995 1.27604,-0.63151 h 0.0716 l -0.26693,1.32161 q -0.32552,0.11719 -0.58594,0.21485 -0.26042,0.0977 -0.66406,0.19531 -0.40365,0.0977 -0.71615,0.14974 -0.3125,0.0521 -0.78125,0.0521 z"
         style="font-style:italic;font-variant:normal;font-weight:normal;font-stretch:normal;font-family:sans-serif;-inkscape-font-specification:'sans-serif Italic'"
         id="path1057"
         inkscape:connector-curvature="0" />
      <path
         d="m 171.32552,547.98341 -2.34375,10.13021 h -1.22396 l 0.17578,-0.76172 q -0.82682,0.56641 -1.33463,0.76172 -0.5013,0.20183 -1.09375,0.20183 -1.02865,0 -1.63412,-0.65105 -0.59895,-0.65104 -0.59895,-1.89453 0,-1.04817 0.32552,-1.97916 0.32552,-0.9375 0.88541,-1.64063 0.55339,-0.69661 1.3086,-1.10026 0.7552,-0.41016 1.60156,-0.41016 0.57943,0 1.06771,0.1237 0.48828,0.1237 0.91146,0.3711 l 0.72916,-3.15105 z m -2.1875,4.16667 q -0.4362,-0.22786 -0.85937,-0.33203 -0.41667,-0.11068 -0.89193,-0.11068 -0.67708,0 -1.21094,0.32552 -0.52734,0.32552 -0.90495,0.89193 -0.34505,0.51432 -0.53385,1.23698 -0.18229,0.72266 -0.18229,1.39974 0,0.79427 0.33854,1.21745 0.34505,0.41666 1.11328,0.41666 0.54688,0 1.11328,-0.27343 0.57292,-0.27344 1.05469,-0.59896 z"
         style="font-style:italic;font-variant:normal;font-weight:normal;font-stretch:normal;font-family:sans-serif;-inkscape-font-specification:'sans-serif Italic'"
         id="path1059"
         inkscape:connector-curvature="0" />
      <path
         d="m 92.217448,568.80375 q 0,1.58854 -0.807292,3.00781 -0.807292,1.41927 -2.207031,2.19401 -0.859375,0.46224 -1.757813,0.61849 -0.898437,0.15625 -2.03776,0.15625 h -2.617187 l 2.239583,-9.69401 h 2.252604 q 1.054687,0 1.920573,0.14974 0.872396,0.14323 1.595052,0.625 0.690104,0.46224 1.054687,1.21094 0.364584,0.74218 0.364584,1.73177 z m -1.360677,0.11067 q 0,-0.74218 -0.266927,-1.27604 -0.260417,-0.54036 -0.794271,-0.89843 -0.527344,-0.35157 -1.126302,-0.46875 -0.598959,-0.1237 -1.516927,-0.1237 h -1.074219 l -1.757813,7.57161 h 1.347657 q 0.930989,0 1.660156,-0.14974 0.735677,-0.15625 1.386719,-0.52734 1.048177,-0.59896 1.595052,-1.72526 0.546875,-1.13281 0.546875,-2.40235 z"
         style="font-style:italic;font-variant:normal;font-weight:normal;font-stretch:normal;font-family:sans-serif;-inkscape-font-specification:'sans-serif Italic'"
         id="path1061"
         inkscape:connector-curvature="0" />
      <path
         d="m 100.04948,570.07979 q 0,0.97656 -0.29948,1.875 -0.29948,0.89844 -0.846355,1.5625 -0.566406,0.6901 -1.308593,1.08073 -0.742188,0.38411 -1.731771,0.38411 -1.295573,0 -2.02474,-0.73567 -0.722656,-0.74219 -0.722656,-2.04428 0,-0.97656 0.292969,-1.86197 0.299479,-0.88542 0.859375,-1.57553 0.540364,-0.66406 1.321614,-1.06119 0.787761,-0.39714 1.71875,-0.39714 1.256511,0 1.998698,0.71615 0.742189,0.71614 0.742189,2.05729 z m -1.992189,2.74739 q 0.351563,-0.52083 0.533854,-1.20442 0.188802,-0.6836 0.188802,-1.44531 0,-0.91146 -0.436197,-1.38021 -0.436198,-0.46875 -1.230469,-0.46875 -0.631511,0 -1.132813,0.30599 -0.501302,0.29948 -0.865885,0.82682 -0.351563,0.51432 -0.540365,1.20443 -0.188802,0.6901 -0.188802,1.43229 0,0.89844 0.436198,1.38021 0.436198,0.48177 1.236979,0.48177 0.625,0 1.132813,-0.29948 0.507812,-0.29948 0.865885,-0.83334 z"
         style="font-style:italic;font-variant:normal;font-weight:normal;font-stretch:normal;font-family:sans-serif;-inkscape-font-specification:'sans-serif Italic'"
         id="path1063"
         inkscape:connector-curvature="0" />
      <path
         d="m 108.70833,567.50817 -1.67968,7.27214 h -1.22396 l 0.1888,-0.80729 q -0.69662,0.47526 -1.30208,0.74219 -0.59896,0.26692 -1.26954,0.26692 -0.9375,0 -1.46484,-0.46875 -0.52734,-0.47526 -0.52734,-1.38021 0,-0.22135 0.026,-0.42968 0.0326,-0.20834 0.0846,-0.47526 l 1.08724,-4.72006 h 1.22396 l -0.95703,4.14063 q -0.0586,0.25391 -0.11068,0.57943 -0.0521,0.32552 -0.0521,0.51432 0,0.5599 0.27995,0.83984 0.28646,0.27995 0.97005,0.27995 0.48177,0 1.10026,-0.27995 0.625,-0.27994 1.15234,-0.64453 l 1.25,-5.42969 z"
         style="font-style:italic;font-variant:normal;font-weight:normal;font-stretch:normal;font-family:sans-serif;-inkscape-font-specification:'sans-serif Italic'"
         id="path1065"
         inkscape:connector-curvature="0" />
      <path
         d="m 116.82682,569.80635 q 0,1.0612 -0.33203,2.02474 -0.33203,0.96354 -0.88542,1.64714 -0.57942,0.71614 -1.29557,1.11328 -0.71614,0.39062 -1.58203,0.39062 -0.57943,0 -1.08724,-0.15625 -0.5013,-0.14974 -0.89844,-0.40364 l -0.16276,0.35807 h -1.14583 l 2.33724,-10.13021 h 1.22396 l -0.83334,3.61979 q 0.60547,-0.42317 1.1849,-0.6901 0.57943,-0.27344 1.28906,-0.27344 1.0612,0 1.6211,0.65755 0.5664,0.65756 0.5664,1.84245 z m -2.01172,2.92318 q 0.36459,-0.56641 0.54688,-1.24349 0.18229,-0.67708 0.18229,-1.44531 0,-0.77474 -0.33854,-1.19141 -0.33854,-0.42318 -1.08073,-0.42318 -0.54037,0 -1.11979,0.26693 -0.57943,0.26693 -1.08073,0.60547 l -0.95703,4.16016 q 0.41666,0.22135 0.80729,0.34505 0.39713,0.1237 0.94401,0.1237 0.67708,0 1.21094,-0.33204 0.53385,-0.33203 0.88541,-0.86588 z"
         style="font-style:italic;font-variant:normal;font-weight:normal;font-stretch:normal;font-family:sans-serif;-inkscape-font-specification:'sans-serif Italic'"
         id="path1067"
         inkscape:connector-curvature="0" />
      <path
         d="m 121.32552,564.6501 -2.34375,10.13021 h -1.22396 l 2.34375,-10.13021 z"
         style="font-style:italic;font-variant:normal;font-weight:normal;font-stretch:normal;font-family:sans-serif;-inkscape-font-specification:'sans-serif Italic'"
         id="path1069"
         inkscape:connector-curvature="0" />
      <path
         d="m 127.30208,570.35323 q 0.0326,-0.18881 0.0456,-0.31901 0.013,-0.13021 0.013,-0.28646 0,-0.69662 -0.38412,-1.08724 -0.3776,-0.39063 -1.21745,-0.39063 -0.92448,0 -1.64062,0.57292 -0.71615,0.57292 -0.97005,1.51042 z m -2.44791,4.59635 q -1.51042,0 -2.3698,-0.70963 -0.85937,-0.70964 -0.85937,-2.07683 0,-1.9987 1.26302,-3.42448 1.26302,-1.43229 3.125,-1.43229 1.23698,0 1.89453,0.61849 0.65755,0.61198 0.65755,1.72526 0,0.19531 -0.0586,0.61849 -0.0521,0.42318 -0.17578,0.98307 h -5.35808 q -0.0391,0.18881 -0.0586,0.3711 -0.013,0.18229 -0.013,0.33854 0,0.91797 0.5599,1.44531 0.55989,0.52084 1.58854,0.52084 0.71614,0 1.47135,-0.27995 0.76172,-0.27995 1.27604,-0.63151 h 0.0716 l -0.26693,1.32161 q -0.32552,0.11719 -0.58594,0.21485 -0.26041,0.0976 -0.66406,0.19531 -0.40364,0.0977 -0.71614,0.14974 -0.3125,0.0521 -0.78125,0.0521 z"
         style="font-style:italic;font-variant:normal;font-weight:normal;font-stretch:normal;font-family:sans-serif;-inkscape-font-specification:'sans-serif Italic'"
         id="path1071"
         inkscape:connector-curvature="0" />
      <path
         d="m 143.57161,568.80375 q 0,1.58854 -0.80729,3.00781 -0.80729,1.41927 -2.20703,2.19401 -0.85938,0.46224 -1.75781,0.61849 -0.89844,0.15625 -2.03776,0.15625 h -2.61719 l 2.23958,-9.69401 h 2.25261 q 1.05468,0 1.92057,0.14974 0.87239,0.14323 1.59505,0.625 0.69011,0.46224 1.05469,1.21094 0.36458,0.74218 0.36458,1.73177 z m -1.36068,0.11067 q 0,-0.74218 -0.26692,-1.27604 -0.26042,-0.54036 -0.79427,-0.89843 -0.52735,-0.35157 -1.12631,-0.46875 -0.59895,-0.1237 -1.51692,-0.1237 h -1.07422 l -1.75781,7.57161 h 1.34765 q 0.93099,0 1.66016,-0.14974 0.73568,-0.15625 1.38672,-0.52734 1.04817,-0.59896 1.59505,-1.72526 0.54687,-1.13281 0.54687,-2.40235 z"
         style="font-style:italic;font-variant:normal;font-weight:normal;font-stretch:normal;font-family:sans-serif;-inkscape-font-specification:'sans-serif Italic'"
         id="path1073"
         inkscape:connector-curvature="0" />
      <path
         d="m 150.14062,570.35323 q 0.0326,-0.18881 0.0456,-0.31901 0.013,-0.13021 0.013,-0.28646 0,-0.69662 -0.38412,-1.08724 -0.3776,-0.39063 -1.21744,-0.39063 -0.92448,0 -1.64063,0.57292 -0.71614,0.57292 -0.97005,1.51042 z m -2.44791,4.59635 q -1.51042,0 -2.36979,-0.70963 -0.85938,-0.70964 -0.85938,-2.07683 0,-1.9987 1.26302,-3.42448 1.26302,-1.43229 3.125,-1.43229 1.23698,0 1.89453,0.61849 0.65756,0.61198 0.65756,1.72526 0,0.19531 -0.0586,0.61849 -0.0521,0.42318 -0.17578,0.98307 h -5.35807 q -0.0391,0.18881 -0.0586,0.3711 -0.013,0.18229 -0.013,0.33854 0,0.91797 0.5599,1.44531 0.55989,0.52084 1.58854,0.52084 0.71615,0 1.47135,-0.27995 0.76172,-0.27995 1.27605,-0.63151 h 0.0716 l -0.26693,1.32161 q -0.32552,0.11719 -0.58593,0.21485 -0.26042,0.0976 -0.66407,0.19531 -0.40364,0.0977 -0.71614,0.14974 -0.3125,0.0521 -0.78125,0.0521 z"
         style="font-style:italic;font-variant:normal;font-weight:normal;font-stretch:normal;font-family:sans-serif;-inkscape-font-specification:'sans-serif Italic'"
         id="path1075"
         inkscape:connector-curvature="0" />
      <path
         d="m 159.48307,569.16833 q 0,0.15625 -0.0325,0.42318 -0.026,0.26692 -0.0781,0.46875 l -1.09375,4.72005 h -1.22396 l 0.95703,-4.14063 q 0.0781,-0.34505 0.11719,-0.59895 0.0456,-0.26042 0.0456,-0.51433 0,-0.54687 -0.27343,-0.82031 -0.26693,-0.27995 -0.97006,-0.27995 -0.49479,0 -1.09375,0.27344 -0.59244,0.27344 -1.15885,0.65104 l -1.25651,5.42969 h -1.22396 l 1.67969,-7.27214 h 1.22396 l -0.1888,0.8073 q 0.69661,-0.48829 1.30208,-0.7487 0.61198,-0.26042 1.25651,-0.26042 0.95052,0 1.47786,0.48177 0.53386,0.47526 0.53386,1.38021 z"
         style="font-style:italic;font-variant:normal;font-weight:normal;font-stretch:normal;font-family:sans-serif;-inkscape-font-specification:'sans-serif Italic'"
         id="path1077"
         inkscape:connector-curvature="0" />
      <path
         d="m 162.90755,574.95609 q -0.81381,0 -1.45834,-0.20182 -0.63802,-0.20182 -1.0677,-0.4362 l 0.27343,-1.30859 h 0.0651 q 0.13672,0.11718 0.35156,0.27994 0.22135,0.15625 0.5599,0.3125 0.30598,0.14974 0.69661,0.26042 0.39714,0.10417 0.84635,0.10417 0.91797,0 1.43881,-0.33854 0.52083,-0.33855 0.52083,-0.9961 0,-0.34505 -0.26693,-0.52734 -0.26692,-0.1888 -0.76823,-0.30599 -0.2539,-0.0586 -0.61198,-0.13021 -0.35156,-0.0716 -0.71614,-0.16927 -0.76172,-0.21484 -1.1263,-0.61849 -0.36459,-0.41016 -0.36459,-0.99609 0,-0.50782 0.22136,-0.95052 0.22135,-0.44271 0.65755,-0.81381 0.41667,-0.35156 1.0612,-0.5664 0.64453,-0.22136 1.43229,-0.22136 0.65104,0 1.29557,0.16276 0.65104,0.16276 1.0612,0.40365 l -0.26042,1.25 h -0.0651 q -0.10417,-0.0846 -0.31901,-0.22787 -0.20834,-0.14322 -0.53386,-0.29296 -0.27994,-0.1237 -0.65755,-0.21485 -0.37109,-0.0911 -0.77474,-0.0911 -0.8138,0 -1.32161,0.34505 -0.50781,0.33854 -0.50781,0.93099 0,0.32552 0.24739,0.54687 0.2474,0.21485 0.75521,0.33854 0.31901,0.0781 0.66406,0.14974 0.35156,0.0651 0.67709,0.14323 0.7552,0.18881 1.13281,0.58594 0.38411,0.39714 0.38411,0.99609 0,0.50131 -0.24088,0.98308 -0.23438,0.47526 -0.6836,0.82682 -0.46224,0.37109 -1.11979,0.57943 -0.65755,0.20833 -1.47786,0.20833 z"
         style="font-style:italic;font-variant:normal;font-weight:normal;font-stretch:normal;font-family:sans-serif;-inkscape-font-specification:'sans-serif Italic'"
         id="path1079"
         inkscape:connector-curvature="0" />
      <path
         d="m 171.15624,565.0212 -0.29296,1.26953 h -1.38021 l 0.29297,-1.26953 z m -0.65104,2.48697 -1.67968,7.27214 h -1.22396 l 1.67968,-7.27214 z"
         style="font-style:italic;font-variant:normal;font-weight:normal;font-stretch:normal;font-family:sans-serif;-inkscape-font-specification:'sans-serif Italic'"
         id="path1081"
         inkscape:connector-curvature="0" />
      <path
         d="m 176.71614,567.50817 -0.22135,0.98959 h -2.52605 l -0.78125,3.35286 q -0.0651,0.25391 -0.11718,0.58594 -0.0521,0.32552 -0.0521,0.52083 0,0.47526 0.24089,0.70964 0.24088,0.22786 0.89193,0.22786 0.26692,0 0.63151,-0.0911 0.37109,-0.0912 0.5013,-0.14323 h 0.0651 l -0.22786,1.05469 q -0.36458,0.0911 -0.78125,0.14974 -0.41016,0.0586 -0.72917,0.0586 -0.89844,0 -1.39323,-0.39063 -0.48828,-0.39713 -0.48828,-1.25 0,-0.20833 0.026,-0.41015 0.0326,-0.20834 0.0846,-0.46875 l 0.90495,-3.90625 h -0.82683 l 0.22136,-0.98959 h 0.82682 l 0.48828,-2.08984 h 1.22396 l -0.48828,2.08984 z"
         style="font-style:italic;font-variant:normal;font-weight:normal;font-stretch:normal;font-family:sans-serif;-inkscape-font-specification:'sans-serif Italic'"
         id="path1083"
         inkscape:connector-curvature="0" />
      <path
         d="m 177.83594,577.4626 h -1.34766 l 2.11589,-3.10547 -1.31511,-6.84896 h 1.25651 l 1.02865,5.41016 3.47656,-5.41016 h 1.33464 z"
         style="font-style:italic;font-variant:normal;font-weight:normal;font-stretch:normal;font-family:sans-serif;-inkscape-font-specification:'sans-serif Italic'"
         id="path1085"
         inkscape:connector-curvature="0" />
      <path
         d="m 89.977864,588.6996 h -1.438802 l -0.63802,2.7474 h -1.263021 l 0.638021,-2.7474 h -4.635417 l 0.338542,-1.47786 5.95052,-5.46875 h 1.210938 l -1.373698,5.95703 h 1.438802 z m -2.473958,-0.98958 1.015625,-4.38151 -4.752604,4.38151 z"
         style="font-style:italic;font-variant:normal;font-weight:normal;font-stretch:normal;font-family:sans-serif;-inkscape-font-specification:'sans-serif Italic'"
         id="path1087"
         inkscape:connector-curvature="0" />
      <path
         d="m 98.994791,584.40273 q 0,1.28906 -0.481771,3.03385 -0.47526,1.74479 -1.184895,2.68229 -0.605469,0.78776 -1.341146,1.15886 -0.729167,0.37109 -1.692709,0.37109 -1.321614,0 -1.966145,-0.70313 -0.644532,-0.70312 -0.644532,-2.14192 0,-1.16537 0.449219,-2.9362 0.455729,-1.77083 1.217448,-2.77995 0.585938,-0.78125 1.334635,-1.15234 0.755209,-0.37761 1.70573,-0.37761 1.315104,0 1.959635,0.70964 0.644531,0.70312 0.644531,2.13542 z m -1.315104,-0.0195 q 0,-0.87239 -0.332031,-1.33463 -0.325521,-0.46224 -1.171875,-0.46224 -0.625,0 -1.106771,0.27344 -0.47526,0.27343 -0.872396,0.96354 -0.455729,0.80078 -0.826823,2.38932 -0.371093,1.58203 -0.371093,2.61068 0,0.87239 0.32552,1.33463 0.332032,0.46224 1.178386,0.46224 0.592448,0 1.10026,-0.28645 0.507813,-0.28646 0.878906,-0.95053 0.45573,-0.8138 0.826823,-2.39583 0.371094,-1.58854 0.371094,-2.60417 z"
         style="font-style:italic;font-variant:normal;font-weight:normal;font-stretch:normal;font-family:sans-serif;-inkscape-font-specification:'sans-serif Italic'"
         id="path1089"
         inkscape:connector-curvature="0" />
      <path
         d="m 113.35677,582.85325 h -3.45703 l -1.98568,8.59375 h -1.30208 l 1.98568,-8.59375 h -3.45704 l 0.2474,-1.10026 h 8.21615 z"
         style="font-style:italic;font-variant:normal;font-weight:normal;font-stretch:normal;font-family:sans-serif;-inkscape-font-specification:'sans-serif Italic'"
         id="path1091"
         inkscape:connector-curvature="0" />
      <path
         d="m 118.46094,585.46392 h -0.0651 q -0.26041,-0.0651 -0.48828,-0.0911 -0.22135,-0.0326 -0.54036,-0.0326 -0.61198,0 -1.21745,0.27994 -0.59896,0.27344 -1.15235,0.66407 l -1.17187,5.16276 h -1.23698 l 1.66016,-7.27214 h 1.23698 l -0.2474,1.07422 q 0.86589,-0.60547 1.46484,-0.83984 0.60547,-0.23438 1.15886,-0.23438 0.31901,0 0.46224,0.0195 0.14323,0.013 0.41666,0.0586 z"
         style="font-style:italic;font-variant:normal;font-weight:normal;font-stretch:normal;font-family:sans-serif;-inkscape-font-specification:'sans-serif Italic'"
         id="path1093"
         inkscape:connector-curvature="0" />
      <path
         d="m 123.61719,587.61236 q -1.00261,0.0391 -1.78386,0.15625 -0.77474,0.11068 -1.28255,0.32552 -0.52734,0.21485 -0.80078,0.58594 -0.27344,0.36458 -0.27344,0.91146 0,0.46875 0.31901,0.71614 0.31901,0.2474 0.98958,0.2474 0.59245,0 1.20443,-0.26042 0.61849,-0.26692 1.15235,-0.63802 z m -0.70964,3.0599 q -0.17578,0.10416 -0.48177,0.29948 -0.29948,0.1888 -0.61198,0.32552 -0.33203,0.14974 -0.74219,0.24739 -0.41015,0.10417 -0.94401,0.10417 -0.86588,0 -1.40625,-0.5013 -0.54036,-0.50781 -0.54036,-1.32162 0,-0.86588 0.3776,-1.45833 0.38412,-0.59896 1.13281,-0.97656 0.73568,-0.3711 1.77084,-0.53386 1.04166,-0.16927 2.36979,-0.20833 0.0391,-0.18229 0.0651,-0.3125 0.026,-0.13672 0.026,-0.27995 0,-0.3125 -0.1237,-0.50781 -0.1237,-0.19531 -0.35156,-0.3125 -0.22787,-0.11719 -0.53386,-0.15625 -0.29948,-0.0456 -0.66406,-0.0456 -0.55339,0 -1.26302,0.18229 -0.70964,0.17578 -1.15235,0.35156 h -0.0651 l 0.24089,-1.22396 q 0.37109,-0.0976 1.08723,-0.22135 0.71615,-0.1237 1.3737,-0.1237 1.35417,0 2.03125,0.42318 0.67709,0.42317 0.67709,1.34114 0,0.17578 -0.0326,0.37761 -0.026,0.19531 -0.0651,0.37109 l -1.13932,4.9349 h -1.21745 z"
         style="font-style:italic;font-variant:normal;font-weight:normal;font-stretch:normal;font-family:sans-serif;-inkscape-font-specification:'sans-serif Italic'"
         id="path1095"
         inkscape:connector-curvature="0" />
      <path
         d="m 129.46354,591.60976 q -0.69011,0 -1.22396,-0.16276 -0.52734,-0.16276 -0.92448,-0.51433 -0.38411,-0.33854 -0.59245,-0.85286 -0.20833,-0.51432 -0.20833,-1.19792 0,-1.02213 0.31901,-1.90755 0.31901,-0.88542 0.90495,-1.55599 0.5664,-0.65104 1.39974,-1.02864 0.83333,-0.38412 1.79687,-0.38412 0.63802,0 1.19792,0.17578 0.56641,0.17578 0.99609,0.41667 l -0.26692,1.32161 h -0.0716 q -0.13021,-0.11718 -0.32552,-0.27343 -0.19531,-0.15625 -0.46224,-0.29297 -0.26693,-0.14323 -0.59245,-0.23438 -0.32552,-0.0977 -0.74218,-0.0977 -1.26302,0 -2.06381,1.0677 -0.79427,1.06771 -0.79427,2.59766 0,0.91797 0.46875,1.41276 0.47526,0.49479 1.34766,0.49479 0.41016,0 0.82031,-0.11719 0.41016,-0.11718 0.69662,-0.2539 0.31901,-0.14974 0.59244,-0.31901 0.27344,-0.16927 0.39714,-0.25391 h 0.0716 l -0.26041,1.33464 q -0.56641,0.2539 -1.19792,0.44271 -0.63151,0.18229 -1.28255,0.18229 z"
         style="font-style:italic;font-variant:normal;font-weight:normal;font-stretch:normal;font-family:sans-serif;-inkscape-font-specification:'sans-serif Italic'"
         id="path1097"
         inkscape:connector-curvature="0" />
      <path
         d="m 139.94531,591.447 h -1.48438 l -2.32421,-3.19662 -1.05469,0.85287 -0.53386,2.34375 h -1.23697 l 2.34375,-10.13021 h 1.23697 l -1.51041,6.51042 4.26432,-3.65235 h 1.60807 l -4.14713,3.4375 z"
         style="font-style:italic;font-variant:normal;font-weight:normal;font-stretch:normal;font-family:sans-serif;-inkscape-font-specification:'sans-serif Italic'"
         id="path1099"
         inkscape:connector-curvature="0" />
      <path
         d="m 86.136719,608.28946 q -0.944011,0 -1.796875,-0.19531 -0.852865,-0.20182 -1.673177,-0.61198 l 0.3125,-1.47786 h 0.09114 q 0.625,0.59245 1.529948,0.91146 0.911459,0.3125 1.757813,0.3125 1.386719,0 2.122396,-0.54688 0.742187,-0.55338 0.742187,-1.40625 0,-0.44922 -0.266927,-0.7487 -0.260417,-0.29947 -0.768229,-0.4427 -0.423177,-0.11719 -1.009115,-0.22136 -0.579427,-0.11068 -1.106771,-0.23437 -1.022135,-0.22787 -1.582031,-0.78125 -0.559896,-0.55339 -0.559896,-1.3737 0,-1.38672 1.171875,-2.30469 1.178386,-0.92448 3.040365,-0.92448 1.015625,0 1.842448,0.21485 0.833333,0.20833 1.432291,0.49479 l -0.292968,1.38672 h -0.09115 q -0.46224,-0.42318 -1.321615,-0.72917 -0.852864,-0.30599 -1.796875,-0.30599 -1.184895,0 -1.894531,0.52083 -0.703125,0.52084 -0.703125,1.32162 0,0.42969 0.253906,0.75521 0.253907,0.32552 0.904948,0.48828 0.416667,0.0977 1.106771,0.24088 0.690104,0.13672 1.158854,0.26042 0.924479,0.25391 1.39974,0.75521 0.481771,0.5013 0.481771,1.26302 0,0.63802 -0.3125,1.26953 -0.3125,0.63151 -0.872396,1.08073 -0.598958,0.48177 -1.40625,0.75521 -0.800781,0.27343 -1.894531,0.27343 z"
         style="font-style:italic;font-variant:normal;font-weight:normal;font-stretch:normal;font-family:sans-serif;-inkscape-font-specification:'sans-serif Italic'"
         id="path1101"
         inkscape:connector-curvature="0" />
      <path
         d="m 98.955729,603.41316 q 0,0.97657 -0.299479,1.875 -0.29948,0.89844 -0.846355,1.5625 -0.566406,0.69011 -1.308593,1.08073 -0.742188,0.38412 -1.731771,0.38412 -1.295573,0 -2.02474,-0.73568 -0.722656,-0.74219 -0.722656,-2.04427 0,-0.97656 0.292969,-1.86198 0.299479,-0.88542 0.859375,-1.57552 0.540364,-0.66406 1.321614,-1.0612 0.787761,-0.39713 1.71875,-0.39713 1.256511,0 1.998698,0.71614 0.742188,0.71615 0.742188,2.05729 z m -1.992188,2.7474 q 0.351563,-0.52083 0.533854,-1.20443 0.188802,-0.68359 0.188802,-1.44531 0,-0.91146 -0.436197,-1.38021 -0.436198,-0.46875 -1.230469,-0.46875 -0.631511,0 -1.132813,0.30599 -0.501302,0.29948 -0.865885,0.82682 -0.351563,0.51433 -0.540365,1.20443 -0.188802,0.6901 -0.188802,1.43229 0,0.89844 0.436198,1.38021 0.436198,0.48177 1.236979,0.48177 0.625,0 1.132813,-0.29948 0.507812,-0.29948 0.865885,-0.83333 z"
         style="font-style:italic;font-variant:normal;font-weight:normal;font-stretch:normal;font-family:sans-serif;-inkscape-font-specification:'sans-serif Italic'"
         id="path1103"
         inkscape:connector-curvature="0" />
      <path
         d="m 105.82422,599.1228 h -0.0651 q -0.1888,-0.0651 -0.5013,-0.1237 -0.3125,-0.0586 -0.55989,-0.0586 -0.80079,0 -1.20443,0.40364 -0.39714,0.40365 -0.59896,1.25 l -0.0586,0.2474 h 2.20703 l -0.23438,0.97656 h -2.16797 l -1.41927,6.29557 h -1.236976 l 1.419276,-6.29557 h -0.82683 l 0.23438,-0.97656 h 0.82682 l 0.0521,-0.24089 q 0.26693,-1.27604 1.04167,-1.97916 0.78125,-0.70313 2.00521,-0.70313 0.41015,0 0.74219,0.0391 0.33203,0.0391 0.59895,0.0911 z"
         style="font-style:italic;font-variant:normal;font-weight:normal;font-stretch:normal;font-family:sans-serif;-inkscape-font-specification:'sans-serif Italic'"
         id="path1105"
         inkscape:connector-curvature="0" />
      <path
         d="m 110.04948,600.84155 -0.22136,0.98958 h -2.52604 l -0.78125,3.35287 q -0.0651,0.2539 -0.11718,0.58593 -0.0521,0.32552 -0.0521,0.52084 0,0.47526 0.24089,0.70963 0.24088,0.22787 0.89192,0.22787 0.26693,0 0.63151,-0.0911 0.3711,-0.0911 0.50131,-0.14323 h 0.0651 l -0.22786,1.05469 q -0.36459,0.0911 -0.78125,0.14974 -0.41016,0.0586 -0.72917,0.0586 -0.89844,0 -1.39323,-0.39062 -0.48828,-0.39714 -0.48828,-1.25 0,-0.20834 0.026,-0.41016 0.0326,-0.20833 0.0846,-0.46875 l 0.90494,-3.90625 h -0.82682 l 0.22136,-0.98958 h 0.82682 l 0.48828,-2.08985 h 1.22396 l -0.48828,2.08985 z"
         style="font-style:italic;font-variant:normal;font-weight:normal;font-stretch:normal;font-family:sans-serif;-inkscape-font-specification:'sans-serif Italic'"
         id="path1107"
         inkscape:connector-curvature="0" />
      <path
         d="m 117.98568,608.28946 q -0.94401,0 -1.79688,-0.19531 -0.85286,-0.20182 -1.67318,-0.61198 l 0.3125,-1.47786 h 0.0911 q 0.625,0.59245 1.52995,0.91146 0.91146,0.3125 1.75781,0.3125 1.38672,0 2.1224,-0.54688 0.74218,-0.55338 0.74218,-1.40625 0,-0.44922 -0.26692,-0.7487 -0.26042,-0.29947 -0.76823,-0.4427 -0.42318,-0.11719 -1.00912,-0.22136 -0.57942,-0.11068 -1.10677,-0.23437 -1.02213,-0.22787 -1.58203,-0.78125 -0.5599,-0.55339 -0.5599,-1.3737 0,-1.38672 1.17188,-2.30469 1.17838,-0.92448 3.04036,-0.92448 1.01563,0 1.84245,0.21485 0.83334,0.20833 1.43229,0.49479 l -0.29297,1.38672 h -0.0911 q -0.46224,-0.42318 -1.32162,-0.72917 -0.85286,-0.30599 -1.79687,-0.30599 -1.1849,0 -1.89453,0.52083 -0.70313,0.52084 -0.70313,1.32162 0,0.42969 0.25391,0.75521 0.25391,0.32552 0.90495,0.48828 0.41666,0.0977 1.10677,0.24088 0.6901,0.13672 1.15885,0.26042 0.92448,0.25391 1.39974,0.75521 0.48177,0.5013 0.48177,1.26302 0,0.63802 -0.3125,1.26953 -0.3125,0.63151 -0.87239,1.08073 -0.59896,0.48177 -1.40625,0.75521 -0.80078,0.27343 -1.89453,0.27343 z"
         style="font-style:italic;font-variant:normal;font-weight:normal;font-stretch:normal;font-family:sans-serif;-inkscape-font-specification:'sans-serif Italic'"
         id="path1109"
         inkscape:connector-curvature="0" />
      <path
         d="m 129.54166,603.6866 q 0.0326,-0.1888 0.0456,-0.31901 0.013,-0.13021 0.013,-0.28646 0,-0.69661 -0.38412,-1.08724 -0.3776,-0.39062 -1.21744,-0.39062 -0.92448,0 -1.64063,0.57291 -0.71615,0.57292 -0.97005,1.51042 z m -2.44791,4.59635 q -1.51042,0 -2.36979,-0.70963 -0.85938,-0.70964 -0.85938,-2.07682 0,-1.9987 1.26302,-3.42448 1.26302,-1.43229 3.125,-1.43229 1.23698,0 1.89453,0.61849 0.65755,0.61197 0.65755,1.72526 0,0.19531 -0.0586,0.61849 -0.0521,0.42317 -0.17578,0.98307 h -5.35807 q -0.0391,0.1888 -0.0586,0.37109 -0.013,0.18229 -0.013,0.33854 0,0.91797 0.5599,1.44532 0.55989,0.52083 1.58854,0.52083 0.71615,0 1.47135,-0.27995 0.76172,-0.27995 1.27605,-0.63151 h 0.0716 l -0.26693,1.32162 q -0.32552,0.11718 -0.58593,0.21484 -0.26042,0.0977 -0.66407,0.19531 -0.40364,0.0977 -0.71614,0.14974 -0.3125,0.0521 -0.78125,0.0521 z"
         style="font-style:italic;font-variant:normal;font-weight:normal;font-stretch:normal;font-family:sans-serif;-inkscape-font-specification:'sans-serif Italic'"
         id="path1111"
         inkscape:connector-curvature="0" />
      <path
         d="m 134.75,608.27644 q -0.6901,0 -1.22396,-0.16276 -0.52734,-0.16276 -0.92448,-0.51432 -0.38411,-0.33854 -0.59245,-0.85286 -0.20833,-0.51433 -0.20833,-1.19792 0,-1.02214 0.31901,-1.90755 0.31901,-0.88542 0.90495,-1.55599 0.56641,-0.65104 1.39974,-1.02865 0.83333,-0.38411 1.79687,-0.38411 0.63802,0 1.19792,0.17578 0.56641,0.17578 0.99609,0.41667 l -0.26692,1.32161 h -0.0716 q -0.13021,-0.11719 -0.32552,-0.27344 -0.19531,-0.15625 -0.46224,-0.29297 -0.26692,-0.14323 -0.59245,-0.23437 -0.32552,-0.0977 -0.74218,-0.0977 -1.26302,0 -2.06381,1.06771 -0.79427,1.06771 -0.79427,2.59766 0,0.91797 0.46875,1.41276 0.47526,0.49479 1.34766,0.49479 0.41016,0 0.82031,-0.11719 0.41016,-0.11719 0.69662,-0.2539 0.31901,-0.14974 0.59245,-0.31901 0.27343,-0.16928 0.39713,-0.25391 h 0.0716 l -0.26042,1.33463 q -0.56641,0.25391 -1.19792,0.44271 -0.63151,0.18229 -1.28255,0.18229 z"
         style="font-style:italic;font-variant:normal;font-weight:normal;font-stretch:normal;font-family:sans-serif;-inkscape-font-specification:'sans-serif Italic'"
         id="path1113"
         inkscape:connector-curvature="0" />
      <path
         d="m 144.00781,600.84155 -0.22135,0.98958 h -2.52604 l -0.78125,3.35287 q -0.0651,0.2539 -0.11719,0.58593 -0.0521,0.32552 -0.0521,0.52084 0,0.47526 0.24088,0.70963 0.24089,0.22787 0.89193,0.22787 0.26693,0 0.63151,-0.0911 0.37109,-0.0911 0.5013,-0.14323 h 0.0651 l -0.22786,1.05469 q -0.36458,0.0911 -0.78125,0.14974 -0.41016,0.0586 -0.72917,0.0586 -0.89843,0 -1.39323,-0.39062 -0.48828,-0.39714 -0.48828,-1.25 0,-0.20834 0.026,-0.41016 0.0326,-0.20833 0.0846,-0.46875 l 0.90495,-3.90625 h -0.82682 l 0.22135,-0.98958 h 0.82682 l 0.48828,-2.08985 h 1.22396 l -0.48828,2.08985 z"
         style="font-style:italic;font-variant:normal;font-weight:normal;font-stretch:normal;font-family:sans-serif;-inkscape-font-specification:'sans-serif Italic'"
         id="path1115"
         inkscape:connector-curvature="0" />
      <path
         d="m 150.96093,603.41316 q 0,0.97657 -0.29947,1.875 -0.29948,0.89844 -0.84636,1.5625 -0.5664,0.69011 -1.30859,1.08073 -0.74219,0.38412 -1.73177,0.38412 -1.29558,0 -2.02474,-0.73568 -0.72266,-0.74219 -0.72266,-2.04427 0,-0.97656 0.29297,-1.86198 0.29948,-0.88542 0.85937,-1.57552 0.54037,-0.66406 1.32162,-1.0612 0.78776,-0.39713 1.71875,-0.39713 1.25651,0 1.9987,0.71614 0.74218,0.71615 0.74218,2.05729 z m -1.99218,2.7474 q 0.35156,-0.52083 0.53385,-1.20443 0.1888,-0.68359 0.1888,-1.44531 0,-0.91146 -0.43619,-1.38021 -0.4362,-0.46875 -1.23047,-0.46875 -0.63151,0 -1.13282,0.30599 -0.5013,0.29948 -0.86588,0.82682 -0.35156,0.51433 -0.54037,1.20443 -0.1888,0.6901 -0.1888,1.43229 0,0.89844 0.4362,1.38021 0.4362,0.48177 1.23698,0.48177 0.625,0 1.13281,-0.29948 0.50781,-0.29948 0.86589,-0.83333 z"
         style="font-style:italic;font-variant:normal;font-weight:normal;font-stretch:normal;font-family:sans-serif;-inkscape-font-specification:'sans-serif Italic'"
         id="path1117"
         inkscape:connector-curvature="0" />
      <path
         d="m 157.78385,602.13061 h -0.0651 q -0.26042,-0.0651 -0.48828,-0.0911 -0.22136,-0.0326 -0.54037,-0.0326 -0.61198,0 -1.21744,0.27995 -0.59896,0.27344 -1.15235,0.66406 l -1.17187,5.16276 h -1.23698 l 1.66015,-7.27213 h 1.23698 l -0.24739,1.07422 q 0.86588,-0.60547 1.46484,-0.83985 0.60547,-0.23437 1.15886,-0.23437 0.31901,0 0.46224,0.0195 0.14322,0.013 0.41666,0.0586 z"
         style="font-style:italic;font-variant:normal;font-weight:normal;font-stretch:normal;font-family:sans-serif;-inkscape-font-specification:'sans-serif Italic'"
         id="path1119"
         inkscape:connector-curvature="0" />
      <path
         d="m 163.5,603.6866 q 0.0325,-0.1888 0.0456,-0.31901 0.013,-0.13021 0.013,-0.28646 0,-0.69661 -0.38411,-1.08724 -0.37761,-0.39062 -1.21745,-0.39062 -0.92448,0 -1.64062,0.57291 -0.71615,0.57292 -0.97006,1.51042 z m -2.44792,4.59635 q -1.51041,0 -2.36979,-0.70963 -0.85937,-0.70964 -0.85937,-2.07682 0,-1.9987 1.26302,-3.42448 1.26302,-1.43229 3.125,-1.43229 1.23698,0 1.89453,0.61849 0.65755,0.61197 0.65755,1.72526 0,0.19531 -0.0586,0.61849 -0.0521,0.42317 -0.17578,0.98307 h -5.35808 q -0.0391,0.1888 -0.0586,0.37109 -0.013,0.18229 -0.013,0.33854 0,0.91797 0.55989,1.44532 0.5599,0.52083 1.58855,0.52083 0.71614,0 1.47135,-0.27995 0.76172,-0.27995 1.27604,-0.63151 h 0.0716 l -0.26693,1.32162 q -0.32552,0.11718 -0.58594,0.21484 -0.26042,0.0977 -0.66406,0.19531 -0.40365,0.0977 -0.71615,0.14974 -0.3125,0.0521 -0.78125,0.0521 z"
         style="font-style:italic;font-variant:normal;font-weight:normal;font-stretch:normal;font-family:sans-serif;-inkscape-font-specification:'sans-serif Italic'"
         id="path1121"
         inkscape:connector-curvature="0" />
      <path
         d="m 173.79947,597.98348 -2.34375,10.1302 h -1.22395 l 0.17578,-0.76172 q -0.82683,0.56641 -1.33464,0.76172 -0.5013,0.20183 -1.09375,0.20183 -1.02864,0 -1.63411,-0.65105 -0.59896,-0.65104 -0.59896,-1.89453 0,-1.04817 0.32552,-1.97916 0.32552,-0.9375 0.88542,-1.64063 0.55338,-0.69661 1.30859,-1.10026 0.75521,-0.41015 1.60156,-0.41015 0.57943,0 1.06771,0.12369 0.48828,0.1237 0.91146,0.3711 l 0.72917,-3.15104 z m -2.1875,4.16666 q -0.43619,-0.22786 -0.85937,-0.33203 -0.41667,-0.11068 -0.89193,-0.11068 -0.67708,0 -1.21094,0.32552 -0.52734,0.32553 -0.90494,0.89193 -0.34506,0.51432 -0.53386,1.23698 -0.18229,0.72266 -0.18229,1.39974 0,0.79427 0.33854,1.21745 0.34505,0.41666 1.11328,0.41666 0.54688,0 1.11328,-0.27343 0.57292,-0.27344 1.05469,-0.59896 z"
         style="font-style:italic;font-variant:normal;font-weight:normal;font-stretch:normal;font-family:sans-serif;-inkscape-font-specification:'sans-serif Italic'"
         id="path1123"
         inkscape:connector-curvature="0" />
    </g>
    <g
       aria-label="5.25&quot; Diskette"
       transform="matrix(0.18990603,0,0,0.18990603,21.665287,-77.603327)"
       style="font-style:normal;font-weight:normal;font-size:13.33333302px;line-height:1.25;font-family:sans-serif;letter-spacing:0px;word-spacing:0px;fill:#000000;fill-opacity:1;stroke:none"
       id="flowRoot1126">
      <path
         d="m 82.677734,601.07391 q -0.657552,0.46224 -1.542969,0.69661 -0.878906,0.23438 -1.874999,0.23438 -1.210938,0 -2.070313,-0.17578 -0.852864,-0.16927 -1.367187,-0.41016 l 0.494791,-2.14193 h 0.273438 q 0.63151,0.41016 1.25651,0.61849 0.625,0.20183 1.328125,0.20183 1.054688,0 1.692708,-0.39063 0.644532,-0.39062 0.644532,-1.20443 0,-0.61848 -0.533855,-0.92447 -0.527343,-0.3125 -1.621093,-0.3125 -0.481771,0 -1.022136,0.0911 -0.540364,0.0912 -0.976562,0.22136 h -0.286458 l 1.26302,-5.46875 h 6.894531 l -0.429687,1.85546 h -4.544271 l -0.364583,1.58204 q 0.09115,-0.007 0.234375,-0.007 0.143229,0 0.345052,0 0.742187,0 1.393229,0.13671 0.651042,0.13672 1.158854,0.44271 0.507813,0.30599 0.807292,0.80078 0.299479,0.48828 0.299479,1.21745 0,0.9961 -0.397135,1.73177 -0.390625,0.73568 -1.054688,1.20443 z"
         style="font-style:italic;font-variant:normal;font-weight:bold;font-stretch:normal;font-family:sans-serif;-inkscape-font-specification:'sans-serif Bold Italic'"
         id="path1134"
         inkscape:connector-curvature="0" />
      <path
         d="m 87.7819,601.80308 h -2.447916 l 0.585937,-2.5586 h 2.447917 z"
         style="font-style:italic;font-variant:normal;font-weight:bold;font-stretch:normal;font-family:sans-serif;-inkscape-font-specification:'sans-serif Bold Italic'"
         id="path1136"
         inkscape:connector-curvature="0" />
      <path
         d="m 97.775389,601.80308 h -7.610676 l 0.371093,-1.60157 q 1.080729,-0.6901 2.03125,-1.36067 0.950521,-0.67058 1.608073,-1.20443 1.015625,-0.82031 1.490886,-1.47135 0.47526,-0.65756 0.47526,-1.25652 0,-0.5664 -0.377604,-0.83333 -0.377604,-0.27344 -1.041667,-0.27344 -0.677083,0 -1.380208,0.23438 -0.703125,0.22786 -1.341146,0.64453 h -0.208333 l 0.481771,-2.15495 q 0.48177,-0.19531 1.451822,-0.39713 0.970052,-0.20834 1.835938,-0.20834 1.56901,0 2.402344,0.57943 0.833333,0.57943 0.833333,1.72526 0,1.1849 -0.625,2.09636 -0.625,0.90494 -1.985677,1.97916 -0.670573,0.52735 -1.282552,0.94401 -0.605469,0.41667 -1.054688,0.70313 h 4.355469 z"
         style="font-style:italic;font-variant:normal;font-weight:bold;font-stretch:normal;font-family:sans-serif;-inkscape-font-specification:'sans-serif Bold Italic'"
         id="path1138"
         inkscape:connector-curvature="0" />
      <path
         d="m 106.45377,601.07391 q -0.65755,0.46224 -1.54297,0.69661 -0.8789,0.23438 -1.875,0.23438 -1.21093,0 -2.07031,-0.17578 -0.85286,-0.16927 -1.367185,-0.41016 l 0.494795,-2.14193 h 0.27343 q 0.63151,0.41016 1.25651,0.61849 0.625,0.20183 1.32813,0.20183 1.05469,0 1.69271,-0.39063 0.64453,-0.39062 0.64453,-1.20443 0,-0.61848 -0.53386,-0.92447 -0.52734,-0.3125 -1.62109,-0.3125 -0.48177,0 -1.02213,0.0911 -0.54037,0.0912 -0.97657,0.22136 h -0.28646 l 1.26303,-5.46875 h 6.89453 l -0.42969,1.85546 h -4.54427 l -0.36458,1.58204 q 0.0911,-0.007 0.23437,-0.007 0.14323,0 0.34505,0 0.74219,0 1.39323,0.13671 0.65104,0.13672 1.15886,0.44271 0.50781,0.30599 0.80729,0.80078 0.29948,0.48828 0.29948,1.21745 0,0.9961 -0.39714,1.73177 -0.39062,0.73568 -1.05469,1.20443 z"
         style="font-style:italic;font-variant:normal;font-weight:bold;font-stretch:normal;font-family:sans-serif;-inkscape-font-specification:'sans-serif Bold Italic'"
         id="path1140"
         inkscape:connector-curvature="0" />
      <path
         d="m 116.88997,591.67287 -1.27604,3.83463 h -1.47135 l 0.49479,-3.83463 z m -3.40495,0 -1.27604,3.83463 h -1.47135 l 0.49479,-3.83463 z"
         style="font-style:italic;font-variant:normal;font-weight:bold;font-stretch:normal;font-family:sans-serif;-inkscape-font-specification:'sans-serif Bold Italic'"
         id="path1142"
         inkscape:connector-curvature="0" />
      <path
         d="m 131.98763,595.89162 q 0,1.64713 -0.86589,3.04036 -0.86588,1.39323 -2.22005,2.13542 -0.82031,0.44271 -1.71224,0.59245 -0.89193,0.14323 -2.13542,0.14323 h -3.50911 l 2.23958,-9.69401 h 3.13802 q 1.38672,0 2.23308,0.21484 0.84635,0.21484 1.36718,0.57943 0.71615,0.49479 1.08724,1.23698 0.37761,0.73567 0.37761,1.7513 z m -2.61719,0.22786 q 0,-0.66406 -0.2474,-1.13932 -0.24739,-0.48177 -0.7552,-0.77474 -0.23438,-0.13021 -0.48177,-0.19531 -0.24089,-0.0716 -0.55339,-0.10417 -0.29948,-0.026 -0.68359,-0.026 -0.38412,0 -0.67058,0 h -0.0846 l -1.43229,6.14583 h 0.22786 q 0.3776,0 0.80729,0 0.42969,0 0.69662,-0.0325 0.34505,-0.0326 0.61849,-0.10417 0.27994,-0.0716 0.61198,-0.24088 0.9375,-0.48177 1.4388,-1.4388 0.50781,-0.95704 0.50781,-2.08985 z"
         style="font-style:italic;font-variant:normal;font-weight:bold;font-stretch:normal;font-family:sans-serif;-inkscape-font-specification:'sans-serif Bold Italic'"
         id="path1144"
         inkscape:connector-curvature="0" />
      <path
         d="m 136.53841,594.49188 -1.69271,7.3112 h -2.35677 l 1.69271,-7.3112 z m 0.71614,-2.81901 -0.41015,1.77734 h -2.48698 l 0.41015,-1.77734 z"
         style="font-style:italic;font-variant:normal;font-weight:bold;font-stretch:normal;font-family:sans-serif;-inkscape-font-specification:'sans-serif Bold Italic'"
         id="path1146"
         inkscape:connector-curvature="0" />
      <path
         d="m 139.86523,602.0049 q -0.9375,0 -1.8164,-0.17578 -0.87891,-0.17578 -1.34766,-0.41016 l 0.44922,-1.92708 h 0.21484 q 0.14323,0.1237 0.35807,0.27344 0.22136,0.14974 0.625,0.3125 0.34506,0.14974 0.80079,0.26041 0.45573,0.10417 0.98307,0.10417 0.78776,0 1.17838,-0.18229 0.39714,-0.18229 0.39714,-0.52084 0,-0.26041 -0.27995,-0.39713 -0.27995,-0.13672 -1.15885,-0.33854 -1.49089,-0.34506 -2.04427,-0.83334 -0.54688,-0.48828 -0.54688,-1.21744 0,-1.23698 1.10677,-1.94662 1.10677,-0.71614 2.99479,-0.71614 0.82032,0 1.64063,0.16927 0.82031,0.16276 1.20443,0.35156 l -0.42969,1.84896 h -0.20182 q -0.46224,-0.35808 -1.1198,-0.57943 -0.65104,-0.22786 -1.34114,-0.22786 -0.7487,0 -1.15235,0.18229 -0.39713,0.17578 -0.39713,0.54687 0,0.28646 0.34505,0.44271 0.34505,0.14974 1.08724,0.3125 1.38021,0.29948 1.98568,0.75521 0.61198,0.45573 0.61198,1.27604 0,1.22396 -1.11979,1.93359 -1.1198,0.70313 -3.02735,0.70313 z"
         style="font-style:italic;font-variant:normal;font-weight:bold;font-stretch:normal;font-family:sans-serif;-inkscape-font-specification:'sans-serif Bold Italic'"
         id="path1148"
         inkscape:connector-curvature="0" />
      <path
         d="m 152.80794,601.80308 h -2.46745 l -1.4388,-3.22917 -1.03516,0.92448 -0.54036,2.30469 h -2.35677 l 2.33724,-10.13021 h 2.35677 l -1.39323,6.04817 3.26823,-3.22916 h 2.70182 l -3.38542,3.18359 z"
         style="font-style:italic;font-variant:normal;font-weight:bold;font-stretch:normal;font-family:sans-serif;-inkscape-font-specification:'sans-serif Bold Italic'"
         id="path1150"
         inkscape:connector-curvature="0" />
      <path
         d="m 159.83919,597.20672 q 0.0195,-0.11719 0.026,-0.21484 0.013,-0.0977 0.013,-0.20182 0,-0.51433 -0.31901,-0.78777 -0.31901,-0.27343 -0.91797,-0.27343 -0.72265,0 -1.21744,0.39062 -0.48829,0.39063 -0.74219,1.08724 z m -1.79036,4.79167 q -1.86849,0 -2.88412,-0.82682 -1.01562,-0.82683 -1.01562,-2.28516 0,-0.99609 0.33203,-1.82943 0.33203,-0.83333 0.95703,-1.46484 0.59896,-0.61198 1.49739,-0.97005 0.89844,-0.35808 1.97266,-0.35808 1.63412,0 2.46094,0.66407 0.83333,0.65755 0.83333,1.94661 0,0.44271 -0.0911,0.86589 -0.0846,0.42317 -0.22787,0.83984 h -5.42969 q 0,0.0391 0,0.0781 0,0.0326 0,0.0716 0,0.76172 0.53386,1.19141 0.53385,0.42968 1.63411,0.42968 0.76823,0 1.45183,-0.26041 0.6901,-0.26042 1.19791,-0.57943 h 0.26042 l -0.4362,1.88151 q -0.68359,0.29948 -1.4388,0.44922 -0.75521,0.15625 -1.60807,0.15625 z"
         style="font-style:italic;font-variant:normal;font-weight:bold;font-stretch:normal;font-family:sans-serif;-inkscape-font-specification:'sans-serif Bold Italic'"
         id="path1152"
         inkscape:connector-curvature="0" />
      <path
         d="m 165.58138,601.9463 q -1.21745,0 -1.73829,-0.39713 -0.52083,-0.40365 -0.52083,-1.19141 0,-0.20833 0.0325,-0.40364 0.0326,-0.19531 0.0846,-0.45573 l 0.79427,-3.46354 h -0.96354 l 0.35807,-1.54297 h 0.96354 l 0.48177,-2.08985 h 2.35026 l -0.48177,2.08985 h 2.20052 l -0.35807,1.54297 h -2.20052 l -0.60547,2.63672 q -0.0651,0.27343 -0.1237,0.55338 -0.0586,0.27344 -0.0586,0.46875 0,0.39063 0.21484,0.54688 0.22136,0.14974 0.67709,0.14974 0.18229,0 0.47526,-0.0651 0.29948,-0.0716 0.47526,-0.15625 h 0.19531 l -0.36458,1.56901 q -0.39714,0.0977 -0.83985,0.14974 -0.4362,0.0586 -1.04817,0.0586 z"
         style="font-style:italic;font-variant:normal;font-weight:bold;font-stretch:normal;font-family:sans-serif;-inkscape-font-specification:'sans-serif Bold Italic'"
         id="path1154"
         inkscape:connector-curvature="0" />
      <path
         d="m 171.64909,601.9463 q -1.21745,0 -1.73829,-0.39713 -0.52083,-0.40365 -0.52083,-1.19141 0,-0.20833 0.0325,-0.40364 0.0326,-0.19531 0.0846,-0.45573 l 0.79427,-3.46354 h -0.96354 l 0.35807,-1.54297 h 0.96354 l 0.48177,-2.08985 h 2.35026 l -0.48177,2.08985 h 2.20052 l -0.35807,1.54297 h -2.20052 l -0.60547,2.63672 q -0.0651,0.27343 -0.1237,0.55338 -0.0586,0.27344 -0.0586,0.46875 0,0.39063 0.21484,0.54688 0.22136,0.14974 0.67709,0.14974 0.18229,0 0.47526,-0.0651 0.29948,-0.0716 0.47526,-0.15625 h 0.19531 l -0.36458,1.56901 q -0.39714,0.0977 -0.83985,0.14974 -0.43619,0.0586 -1.04817,0.0586 z"
         style="font-style:italic;font-variant:normal;font-weight:bold;font-stretch:normal;font-family:sans-serif;-inkscape-font-specification:'sans-serif Bold Italic'"
         id="path1156"
         inkscape:connector-curvature="0" />
      <path
         d="m 180.82877,597.20672 q 0.0195,-0.11719 0.026,-0.21484 0.013,-0.0977 0.013,-0.20182 0,-0.51433 -0.31901,-0.78777 -0.31901,-0.27343 -0.91797,-0.27343 -0.72265,0 -1.21745,0.39062 -0.48828,0.39063 -0.74218,1.08724 z m -1.79037,4.79167 q -1.86849,0 -2.88411,-0.82682 -1.01563,-0.82683 -1.01563,-2.28516 0,-0.99609 0.33204,-1.82943 0.33203,-0.83333 0.95703,-1.46484 0.59896,-0.61198 1.49739,-0.97005 0.89844,-0.35808 1.97266,-0.35808 1.63411,0 2.46094,0.66407 0.83333,0.65755 0.83333,1.94661 0,0.44271 -0.0911,0.86589 -0.0846,0.42317 -0.22786,0.83984 h -5.42969 q 0,0.0391 0,0.0781 0,0.0326 0,0.0716 0,0.76172 0.53386,1.19141 0.53385,0.42968 1.63411,0.42968 0.76823,0 1.45182,-0.26041 0.69011,-0.26042 1.19792,-0.57943 h 0.26042 l -0.4362,1.88151 q -0.6836,0.29948 -1.4388,0.44922 -0.75521,0.15625 -1.60808,0.15625 z"
         style="font-style:italic;font-variant:normal;font-weight:bold;font-stretch:normal;font-family:sans-serif;-inkscape-font-specification:'sans-serif Bold Italic'"
         id="path1158"
         inkscape:connector-curvature="0" />
    </g>
    <g
       style="display:inline;fill:#000000;fill-opacity:1;stroke:#000000;stroke-width:0.99894112;stroke-miterlimit:4;stroke-dasharray:none;stroke-opacity:1"
       id="g1326"
       transform="matrix(0.0289291,0,0,0.0289291,8.4764698,24.879504)">
      <g
         id="g1324"
         style="fill:#000000;fill-opacity:1;stroke:#000000;stroke-width:0.99894112;stroke-miterlimit:4;stroke-dasharray:none;stroke-opacity:1">
        <polygon
           id="polygon1250"
           points="247.2,184.2 247.2,199.9 136.3,199.9 136.3,184.2 "
           class="st0"
           style="fill:#000000;fill-opacity:1;stroke:#000000;stroke-width:0.99894112;stroke-miterlimit:4;stroke-dasharray:none;stroke-opacity:1" />
        <polygon
           id="polygon1252"
           points="394.2,185.6 398.2,186.4 402.1,187.7 405.7,189.2 409.3,190.9 413,192.9 416.3,195.2 419.5,197.5 422,199.9 263.1,199.9 263.1,184.2 382.3,184.2 386.4,184.2 390.3,184.9 "
           class="st0"
           style="fill:#000000;fill-opacity:1;stroke:#000000;stroke-width:0.99894112;stroke-miterlimit:4;stroke-dasharray:none;stroke-opacity:1" />
        <polygon
           id="polygon1254"
           points="543.4,184.2 548.9,199.9 453.3,199.9 453.3,184.2 "
           class="st0"
           style="fill:#000000;fill-opacity:1;stroke:#000000;stroke-width:0.99894112;stroke-miterlimit:4;stroke-dasharray:none;stroke-opacity:1" />
        <polygon
           id="polygon1256"
           points="706,184.2 706,199.9 611.2,199.9 616.7,184.2 "
           class="st0"
           style="fill:#000000;fill-opacity:1;stroke:#000000;stroke-width:0.99894112;stroke-miterlimit:4;stroke-dasharray:none;stroke-opacity:1" />
        <polygon
           id="polygon1258"
           points="247.2,214.6 247.2,230 136.3,230 136.3,214.6 "
           class="st0"
           style="fill:#000000;fill-opacity:1;stroke:#000000;stroke-width:0.99894112;stroke-miterlimit:4;stroke-dasharray:none;stroke-opacity:1" />
        <polygon
           id="polygon1260"
           points="215.4,244.7 215.4,260.5 168,260.5 168,244.7 "
           class="st0"
           style="fill:#000000;fill-opacity:1;stroke:#000000;stroke-width:0.99894112;stroke-miterlimit:4;stroke-dasharray:none;stroke-opacity:1" />
        <polygon
           id="polygon1262"
           points="215.4,275 215.4,290.7 168,290.7 168,275 "
           class="st0"
           style="fill:#000000;fill-opacity:1;stroke:#000000;stroke-width:0.99894112;stroke-miterlimit:4;stroke-dasharray:none;stroke-opacity:1" />
        <polygon
           id="polygon1264"
           points="437.3,223.8 439.2,230 263.1,230 263.1,214.6 433.2,214.6 434.1,216.1 435.8,219.8 "
           class="st0"
           style="fill:#000000;fill-opacity:1;stroke:#000000;stroke-width:0.99894112;stroke-miterlimit:4;stroke-dasharray:none;stroke-opacity:1" />
        <polygon
           id="polygon1266"
           points="342.2,244.7 342.2,260.5 294.8,260.5 294.8,244.7 "
           class="st0"
           style="fill:#000000;fill-opacity:1;stroke:#000000;stroke-width:0.99894112;stroke-miterlimit:4;stroke-dasharray:none;stroke-opacity:1" />
        <polygon
           id="polygon1268"
           points="440.5,247.2 440.1,251.3 439.4,255.2 438.5,259.1 438,260.5 389.9,260.5 389.9,244.7 440.6,244.7 "
           class="st0"
           style="fill:#000000;fill-opacity:1;stroke:#000000;stroke-width:0.99894112;stroke-miterlimit:4;stroke-dasharray:none;stroke-opacity:1" />
        <polygon
           id="polygon1270"
           points="294.8,275 431.3,275 429.9,277.2 427.4,280.4 424.8,283.4 422,286.3 419,288.9 416.3,290.7 294.8,290.7 "
           class="st0"
           style="fill:#000000;fill-opacity:1;stroke:#000000;stroke-width:0.99894112;stroke-miterlimit:4;stroke-dasharray:none;stroke-opacity:1" />
        <polygon
           id="polygon1272"
           points="554,214.6 559.5,230 453.3,230 453.3,214.6 "
           class="st0"
           style="fill:#000000;fill-opacity:1;stroke:#000000;stroke-width:0.99894112;stroke-miterlimit:4;stroke-dasharray:none;stroke-opacity:1" />
        <polygon
           id="polygon1274"
           points="706,230 600.7,230 606,214.6 706,214.6 "
           class="st0"
           style="fill:#000000;fill-opacity:1;stroke:#000000;stroke-width:0.99894112;stroke-miterlimit:4;stroke-dasharray:none;stroke-opacity:1" />
        <polygon
           id="polygon1276"
           points="564.5,244.7 570,260.5 485,260.5 485,244.7 "
           class="st0"
           style="fill:#000000;fill-opacity:1;stroke:#000000;stroke-width:0.99894112;stroke-miterlimit:4;stroke-dasharray:none;stroke-opacity:1" />
        <polygon
           id="polygon1278"
           points="675.1,260.5 590,260.5 595.4,244.7 675.1,244.7 "
           class="st0"
           style="fill:#000000;fill-opacity:1;stroke:#000000;stroke-width:0.99894112;stroke-miterlimit:4;stroke-dasharray:none;stroke-opacity:1" />
        <polygon
           id="polygon1280"
           points="675.1,290.7 675.1,275 585,275 580,288.9 575.1,275 485,275 485,290.7 532.5,290.7 532.5,276.6 537.5,290.7 622.8,290.7 627.6,276.7 627.6,290.7 "
           class="st0"
           style="fill:#000000;fill-opacity:1;stroke:#000000;stroke-width:0.99894112;stroke-miterlimit:4;stroke-dasharray:none;stroke-opacity:1" />
        <polygon
           id="polygon1282"
           points="247.2,396.1 247.2,412 136.3,412 136.3,396.1 "
           class="st0"
           style="fill:#000000;fill-opacity:1;stroke:#000000;stroke-width:0.99894112;stroke-miterlimit:4;stroke-dasharray:none;stroke-opacity:1" />
        <polygon
           id="polygon1284"
           points="247.2,365.7 247.2,381.5 136.3,381.5 136.3,365.7 "
           class="st0"
           style="fill:#000000;fill-opacity:1;stroke:#000000;stroke-width:0.99894112;stroke-miterlimit:4;stroke-dasharray:none;stroke-opacity:1" />
        <polygon
           id="polygon1286"
           points="215.4,305.3 215.4,320.9 168,320.9 168,305.3 "
           class="st0"
           style="fill:#000000;fill-opacity:1;stroke:#000000;stroke-width:0.99894112;stroke-miterlimit:4;stroke-dasharray:none;stroke-opacity:1" />
        <polygon
           id="polygon1288"
           points="215.4,335.6 215.4,351.3 168,351.3 168,335.6 "
           class="st0"
           style="fill:#000000;fill-opacity:1;stroke:#000000;stroke-width:0.99894112;stroke-miterlimit:4;stroke-dasharray:none;stroke-opacity:1" />
        <polygon
           id="polygon1290"
           points="294.8,305.3 416.3,305.3 419,307.3 422,309.9 424.8,312.8 427.4,315.8 429.9,319 431.3,320.9 294.8,320.9 "
           class="st0"
           style="fill:#000000;fill-opacity:1;stroke:#000000;stroke-width:0.99894112;stroke-miterlimit:4;stroke-dasharray:none;stroke-opacity:1" />
        <polygon
           id="polygon1292"
           points="342.2,335.6 342.2,351.3 294.8,351.3 294.8,335.6 "
           class="st0"
           style="fill:#000000;fill-opacity:1;stroke:#000000;stroke-width:0.99894112;stroke-miterlimit:4;stroke-dasharray:none;stroke-opacity:1" />
        <polygon
           id="polygon1294"
           points="438.5,337.1 439.4,341 440.1,344.9 440.5,348.9 440.6,351.3 389.9,351.3 389.9,335.6 438,335.6 "
           class="st0"
           style="fill:#000000;fill-opacity:1;stroke:#000000;stroke-width:0.99894112;stroke-miterlimit:4;stroke-dasharray:none;stroke-opacity:1" />
        <polygon
           id="polygon1296"
           points="438.5,368.9 437.3,372.7 435.8,376.4 434.1,380.1 433.2,381.5 263.1,381.5 263.1,365.7 439.2,365.7 "
           class="st0"
           style="fill:#000000;fill-opacity:1;stroke:#000000;stroke-width:0.99894112;stroke-miterlimit:4;stroke-dasharray:none;stroke-opacity:1" />
        <polygon
           id="polygon1298"
           points="412.4,403.3 408.8,405.2 405.2,407 401.6,408.4 397.6,409.8 393.7,410.6 389.9,411.3 385.8,411.8 381.8,412 263.1,412 263.1,396.1 422,396.1 419,398.6 415.8,401.1 "
           class="st0"
           style="fill:#000000;fill-opacity:1;stroke:#000000;stroke-width:0.99894112;stroke-miterlimit:4;stroke-dasharray:none;stroke-opacity:1" />
        <polygon
           id="polygon1300"
           points="532.5,305.3 532.5,320.9 485,320.9 485,305.3 "
           class="st0"
           style="fill:#000000;fill-opacity:1;stroke:#000000;stroke-width:0.99894112;stroke-miterlimit:4;stroke-dasharray:none;stroke-opacity:1" />
        <polygon
           id="polygon1302"
           points="547.7,320.9 542.4,305.3 617.7,305.3 612.2,320.9 "
           class="st0"
           style="fill:#000000;fill-opacity:1;stroke:#000000;stroke-width:0.99894112;stroke-miterlimit:4;stroke-dasharray:none;stroke-opacity:1" />
        <polygon
           id="polygon1304"
           points="675.1,305.3 675.1,320.9 627.6,320.9 627.6,305.3 "
           class="st0"
           style="fill:#000000;fill-opacity:1;stroke:#000000;stroke-width:0.99894112;stroke-miterlimit:4;stroke-dasharray:none;stroke-opacity:1" />
        <polygon
           id="polygon1306"
           points="532.5,335.6 532.5,351.3 485,351.3 485,335.6 "
           class="st0"
           style="fill:#000000;fill-opacity:1;stroke:#000000;stroke-width:0.99894112;stroke-miterlimit:4;stroke-dasharray:none;stroke-opacity:1" />
        <polygon
           id="polygon1308"
           points="602,351.3 558.1,351.3 552.7,335.6 607.4,335.6 "
           class="st0"
           style="fill:#000000;fill-opacity:1;stroke:#000000;stroke-width:0.99894112;stroke-miterlimit:4;stroke-dasharray:none;stroke-opacity:1" />
        <polygon
           id="polygon1310"
           points="675.1,335.6 675.1,351.3 627.6,351.3 627.6,335.6 "
           class="st0"
           style="fill:#000000;fill-opacity:1;stroke:#000000;stroke-width:0.99894112;stroke-miterlimit:4;stroke-dasharray:none;stroke-opacity:1" />
        <polygon
           id="polygon1312"
           points="532.5,365.7 532.5,381.5 453.3,381.5 453.3,365.7 "
           class="st0"
           style="fill:#000000;fill-opacity:1;stroke:#000000;stroke-width:0.99894112;stroke-miterlimit:4;stroke-dasharray:none;stroke-opacity:1" />
        <polygon
           id="polygon1314"
           points="591.7,381.5 568.4,381.5 563,365.7 597,365.7 "
           class="st0"
           style="fill:#000000;fill-opacity:1;stroke:#000000;stroke-width:0.99894112;stroke-miterlimit:4;stroke-dasharray:none;stroke-opacity:1" />
        <polygon
           id="polygon1316"
           points="706,365.7 706,381.5 627.6,381.5 627.6,365.7 "
           class="st0"
           style="fill:#000000;fill-opacity:1;stroke:#000000;stroke-width:0.99894112;stroke-miterlimit:4;stroke-dasharray:none;stroke-opacity:1" />
        <polygon
           id="polygon1318"
           points="532.5,396.1 532.5,412 453.3,412 453.3,396.1 "
           class="st0"
           style="fill:#000000;fill-opacity:1;stroke:#000000;stroke-width:0.99894112;stroke-miterlimit:4;stroke-dasharray:none;stroke-opacity:1" />
        <polygon
           id="polygon1320"
           points="706,396.1 706,412 627.6,412 627.6,396.1 "
           class="st0"
           style="fill:#000000;fill-opacity:1;stroke:#000000;stroke-width:0.99894112;stroke-miterlimit:4;stroke-dasharray:none;stroke-opacity:1" />
        <polygon
           id="polygon1322"
           points="586.6,396.1 573.5,396.1 578.9,412 581.2,412 "
           class="st0"
           style="fill:#000000;fill-opacity:1;stroke:#000000;stroke-width:0.99894112;stroke-miterlimit:4;stroke-dasharray:none;stroke-opacity:1" />
      </g>
    </g>
  </g>
  <style
     id="style1248"
     type="text/css">
	.st0{fill:#5E5F5F;}
</style>
</svg>
