<?xml version="1.0" encoding="UTF-8" standalone="no"?>
<!-- Created with Inkscape (http://www.inkscape.org/) -->

<svg
   xmlns:dc="http://purl.org/dc/elements/1.1/"
   xmlns:cc="http://creativecommons.org/ns#"
   xmlns:rdf="http://www.w3.org/1999/02/22-rdf-syntax-ns#"
   xmlns:svg="http://www.w3.org/2000/svg"
   xmlns="http://www.w3.org/2000/svg"
   xmlns:sodipodi="http://sodipodi.sourceforge.net/DTD/sodipodi-0.dtd"
   xmlns:inkscape="http://www.inkscape.org/namespaces/inkscape"
   width="210mm"
   height="297mm"
   viewBox="0 0 210 297"
   version="1.1"
   id="svg8"
   inkscape:version="0.92.5 (2060ec1f9f, 2020-04-08)"
   sodipodi:docname="keychain.svg">
  <defs
     id="defs2" />
  <sodipodi:namedview
     id="base"
     pagecolor="#ffffff"
     bordercolor="#666666"
     borderopacity="1.0"
     inkscape:pageopacity="0.0"
     inkscape:pageshadow="2"
     inkscape:zoom="3.959798"
     inkscape:cx="54.972409"
     inkscape:cy="73.681188"
     inkscape:document-units="mm"
     inkscape:current-layer="layer3"
     showgrid="false"
     inkscape:snap-bbox="false"
     inkscape:window-width="1859"
     inkscape:window-height="1176"
     inkscape:window-x="61"
     inkscape:window-y="0"
     inkscape:window-maximized="1" />
  <metadata
     id="metadata5">
    <rdf:RDF>
      <cc:Work
         rdf:about="">
        <dc:format>image/svg+xml</dc:format>
        <dc:type
           rdf:resource="http://purl.org/dc/dcmitype/StillImage" />
        <dc:title></dc:title>
      </cc:Work>
    </rdf:RDF>
  </metadata>
  <g
     inkscape:groupmode="layer"
     id="layer4"
     inkscape:label="template"
     style="display:inline">
    <circle
       style="display:inline;opacity:1;vector-effect:none;fill:none;fill-opacity:1;fill-rule:nonzero;stroke:#000000;stroke-width:0.01;stroke-linecap:butt;stroke-linejoin:miter;stroke-miterlimit:4;stroke-dasharray:none;stroke-dashoffset:0;stroke-opacity:1"
       id="path815-7-2"
       cx="20"
       cy="277"
       r="20" />
    <circle
       style="display:inline;opacity:1;vector-effect:none;fill:none;fill-opacity:1;fill-rule:nonzero;stroke:#000000;stroke-width:0.01;stroke-linecap:butt;stroke-linejoin:miter;stroke-miterlimit:4;stroke-dasharray:none;stroke-dashoffset:0;stroke-opacity:1"
       id="path815-3-5-9"
       cx="20"
       cy="277"
       r="18" />
    <circle
       style="display:inline;opacity:1;vector-effect:none;fill:none;fill-opacity:1;fill-rule:nonzero;stroke:#000000;stroke-width:0.01;stroke-linecap:butt;stroke-linejoin:miter;stroke-miterlimit:4;stroke-dasharray:none;stroke-dashoffset:0;stroke-opacity:1"
       id="path832-3-1"
       cx="20"
       cy="256.99002"
       r="5" />
    <circle
       style="display:inline;opacity:1;vector-effect:none;fill:none;fill-opacity:1;fill-rule:nonzero;stroke:#000000;stroke-width:0.01;stroke-linecap:butt;stroke-linejoin:miter;stroke-miterlimit:4;stroke-dasharray:none;stroke-dashoffset:0;stroke-opacity:1"
       id="path832-6-5-2"
       cx="20"
       cy="256.99002"
       r="2" />
  </g>
  <g
     inkscape:label="cut"
     inkscape:groupmode="layer"
     id="layer1"
     style="display:inline">
    <g
       id="g884">
      <path
         id="path815"
         transform="scale(0.26458333)"
         d="m 75.589844,952.40234 a 18.897638,18.897638 0 0 0 -18.896485,18.89844 18.897638,18.897638 0 0 0 0.183594,2.45508 A 75.590551,75.590551 0 0 0 0,1046.9297 a 75.590551,75.590551 0 0 0 75.589844,75.5898 75.590551,75.590551 0 0 0 75.591796,-75.5898 75.590551,75.590551 0 0 0 -56.878906,-73.14064 18.897638,18.897638 0 0 0 0.185547,-2.48828 18.897638,18.897638 0 0 0 -18.898437,-18.89844 z"
         style="opacity:1;vector-effect:none;fill:none;fill-opacity:1;fill-rule:nonzero;stroke:#000000;stroke-width:0.03779528;stroke-linecap:butt;stroke-linejoin:miter;stroke-miterlimit:4;stroke-dasharray:none;stroke-dashoffset:0;stroke-opacity:1"
         inkscape:connector-curvature="0" />
      <path
         id="path832-6"
         d="m 22,256.98999 a 2,2 0 0 1 -2,2 2,2 0 0 1 -2,-2 2,2 0 0 1 2,-2 2,2 0 0 1 2,2 z"
         style="opacity:1;vector-effect:none;fill:none;fill-opacity:1;fill-rule:nonzero;stroke:#000000;stroke-width:0.01;stroke-linecap:butt;stroke-linejoin:miter;stroke-miterlimit:4;stroke-dasharray:none;stroke-dashoffset:0;stroke-opacity:1"
         inkscape:connector-curvature="0" />
    </g>
  </g>
  <g
     inkscape:groupmode="layer"
     id="layer2"
     inkscape:label="engrave1"
     style="display:inline">
    <path
       style="opacity:1;vector-effect:none;fill:#000000;fill-opacity:1;fill-rule:nonzero;stroke:#000000;stroke-width:0.03779528;stroke-linecap:butt;stroke-linejoin:miter;stroke-miterlimit:4;stroke-dasharray:none;stroke-dashoffset:0;stroke-opacity:1"
       d="m 75.589844,952.40234 a 18.897638,18.897638 0 0 0 -18.896485,18.89844 18.897638,18.897638 0 0 0 0.183594,2.45508 A 75.590549,75.590549 0 0 0 0,1046.9297 a 75.590549,75.590549 0 0 0 75.589844,75.5898 75.590549,75.590549 0 0 0 75.591796,-75.5898 75.590549,75.590549 0 0 0 -56.878906,-73.14064 18.897638,18.897638 0 0 0 0.185547,-2.48828 18.897638,18.897638 0 0 0 -18.898437,-18.89844 z m 0,11.33985 a 7.559055,7.559055 0 0 1 7.560547,7.55859 7.559055,7.559055 0 0 1 -7.560547,7.5586 7.559055,7.559055 0 0 1 -7.558594,-7.5586 7.559055,7.559055 0 0 1 7.558594,-7.55859 z m 0,15.15625 a 68.031496,68.031496 0 0 1 68.031246,68.03126 68.031496,68.031496 0 0 1 -68.031246,68.0312 68.031496,68.031496 0 0 1 -68.0312502,-68.0312 68.031496,68.031496 0 0 1 68.0312502,-68.03126 z"
       transform="scale(0.26458333)"
       id="path815-7"
       inkscape:connector-curvature="0" />
  </g>
  <g
     inkscape:groupmode="layer"
     id="layer3"
     inkscape:label="engrave2"
     style="display:inline">
    <circle
       style="display:inline;opacity:1;vector-effect:none;fill:#000000;fill-opacity:1;fill-rule:nonzero;stroke:#000000;stroke-width:0.01;stroke-linecap:butt;stroke-linejoin:miter;stroke-miterlimit:4;stroke-dasharray:none;stroke-dashoffset:0;stroke-opacity:1"
       id="path815-3-5"
       cx="20"
       cy="277"
       r="18" />
  </g>
</svg>
