<?xml version="1.0" encoding="UTF-8" standalone="no"?>
<!-- Created with Inkscape (http://www.inkscape.org/) -->

<svg
   xmlns:dc="http://purl.org/dc/elements/1.1/"
   xmlns:cc="http://creativecommons.org/ns#"
   xmlns:rdf="http://www.w3.org/1999/02/22-rdf-syntax-ns#"
   xmlns:svg="http://www.w3.org/2000/svg"
   xmlns="http://www.w3.org/2000/svg"
   xmlns:sodipodi="http://sodipodi.sourceforge.net/DTD/sodipodi-0.dtd"
   xmlns:inkscape="http://www.inkscape.org/namespaces/inkscape"
   width="400mm"
   height="300mm"
   viewBox="0 0 400 300"
   version="1.1"
   id="svg8"
   inkscape:version="0.92.4 (5da689c313, 2019-01-14)"
   sodipodi:docname="kindle_wall_mount.svg">
  <defs
     id="defs2" />
  <sodipodi:namedview
     id="base"
     pagecolor="#ffffff"
     bordercolor="#666666"
     borderopacity="1.0"
     inkscape:pageopacity="0.0"
     inkscape:pageshadow="2"
     inkscape:zoom="0.49497475"
     inkscape:cx="631.54674"
     inkscape:cy="465.42363"
     inkscape:document-units="mm"
     inkscape:current-layer="layer1"
     showgrid="false"
     inkscape:window-width="1619"
     inkscape:window-height="1021"
     inkscape:window-x="61"
     inkscape:window-y="0"
     inkscape:window-maximized="1" />
  <metadata
     id="metadata5">
    <rdf:RDF>
      <cc:Work
         rdf:about="">
        <dc:format>image/svg+xml</dc:format>
        <dc:type
           rdf:resource="http://purl.org/dc/dcmitype/StillImage" />
        <dc:title />
      </cc:Work>
    </rdf:RDF>
  </metadata>
  <g
     inkscape:label="Sides"
     inkscape:groupmode="layer"
     id="layer1"
     transform="translate(0,3)"
     style="display:inline">
    <g
       id="g1070"
       transform="rotate(90,206.41258,138.10996)">
      <path
         inkscape:connector-curvature="0"
         id="rect941"
         d="m 102.35802,205.91105 c -2.994409,1.72201 -5.004346,4.95038 -5.004346,8.66821 v 79.9605 c 0,5.53722 4.454426,9.99474 9.987506,9.99474 h 19.97501 c 3.71372,0 6.93928,-2.00946 8.66045,-5.00436 h -21.13308 c -6.91688,0 -12.48554,-4.90341 -12.48554,-10.99415 z"
         style="fill:none;fill-opacity:1;stroke:#000000;stroke-width:0.04995629;stroke-miterlimit:4;stroke-dasharray:none;stroke-opacity:1;paint-order:markers stroke fill" />
      <path
         inkscape:connector-curvature="0"
         id="rect941-5"
         d="m 94.15018,213.27035 c -2.994408,1.722 -5.004345,4.95038 -5.004345,8.66821 v 79.96049 c 0,5.53723 4.454423,9.99475 9.987504,9.99475 h 19.975011 c 3.71372,0 6.93928,-2.00946 8.66045,-5.00436 h -21.13308 c -6.916882,0 -12.48554,-4.90342 -12.48554,-10.99415 z"
         style="display:inline;fill:none;fill-opacity:1;stroke:#000000;stroke-width:0.04995629;stroke-miterlimit:4;stroke-dasharray:none;stroke-opacity:1;paint-order:markers stroke fill" />
      <path
         inkscape:connector-curvature="0"
         id="rect941-9"
         d="m 110.21158,198.65504 c -2.9944,1.72201 -5.00434,4.95038 -5.00434,8.66821 v 79.9605 c 0,5.53722 4.45442,9.99474 9.9875,9.99474 h 19.97501 c 3.71373,0 6.93928,-2.00946 8.66045,-5.00436 h -21.13307 c -6.91689,0 -12.48555,-4.90341 -12.48555,-10.99415 z"
         style="display:inline;fill:none;fill-opacity:1;stroke:#000000;stroke-width:0.04995629;stroke-miterlimit:4;stroke-dasharray:none;stroke-opacity:1;paint-order:markers stroke fill" />
      <path
         inkscape:connector-curvature="0"
         id="rect941-1"
         d="m 116.79835,191.50199 c -2.99441,1.72201 -5.00434,4.95038 -5.00434,8.66821 v 79.9605 c 0,5.53722 4.45442,9.99474 9.9875,9.99474 h 19.97501 c 3.71372,0 6.93928,-2.00946 8.66045,-5.00436 h -21.13308 c -6.91688,0 -12.48554,-4.90341 -12.48554,-10.99415 z"
         style="display:inline;fill:none;fill-opacity:1;stroke:#000000;stroke-width:0.04995629;stroke-miterlimit:4;stroke-dasharray:none;stroke-opacity:1;paint-order:markers stroke fill" />
      <path
         inkscape:connector-curvature="0"
         id="rect941-50"
         d="m 123.67369,184.66206 c -2.99441,1.72201 -5.00435,4.95038 -5.00435,8.66821 v 79.9605 c 0,5.53722 4.45442,9.99474 9.98751,9.99474 h 19.975 c 3.71373,0 6.93929,-2.00946 8.66046,-5.00436 h -21.13308 c -6.91689,0 -12.48554,-4.90342 -12.48554,-10.99415 z"
         style="display:inline;fill:none;fill-opacity:1;stroke:#000000;stroke-width:0.04995629;stroke-miterlimit:4;stroke-dasharray:none;stroke-opacity:1;paint-order:markers stroke fill" />
      <path
         inkscape:connector-curvature="0"
         id="rect941-58"
         d="m 130.66923,177.94627 c -2.99441,1.722 -5.00435,4.95037 -5.00435,8.6682 v 79.9605 c 0,5.53723 4.45442,9.99474 9.9875,9.99474 h 19.97501 c 3.71373,0 6.93929,-2.00946 8.66046,-5.00435 h -21.13308 c -6.91689,0 -12.48554,-4.90342 -12.48554,-10.99416 z"
         style="display:inline;fill:none;fill-opacity:1;stroke:#000000;stroke-width:0.04995629;stroke-miterlimit:4;stroke-dasharray:none;stroke-opacity:1;paint-order:markers stroke fill" />
    </g>
  </g>
  <g
     inkscape:groupmode="layer"
     id="layer2"
     inkscape:label="Front"
     style="display:inline">
    <path
       style="fill:none;fill-opacity:1;stroke:#000000;stroke-width:0.18861899;stroke-miterlimit:4;stroke-dasharray:none;stroke-opacity:1;paint-order:markers stroke fill"
       d="m 491.24414,1096.0762 a 37.701023,37.701023 0 0 1 -0.0156,0.3008 c 3.8e-4,-0.051 0.0115,-0.098 0.0117,-0.1485 2.5e-4,-0.051 0.003,-0.1016 0.004,-0.1523 z"
       id="path1013"
       transform="scale(0.26458333)"
       inkscape:connector-curvature="0" />
    <path
       style="fill:none;fill-opacity:1;stroke:#000000;stroke-width:0.18861899;stroke-miterlimit:4;stroke-dasharray:none;stroke-opacity:1;paint-order:markers stroke fill"
       d="M 0.10546875,1096.3184 A 37.701023,37.701019 0 0 1 0.09375,1096.0801 c 9.1308e-4,0.05 0.0036695,0.099 0.0039063,0.1484 1.4409e-4,0.031 0.0076138,0.059 0.0078125,0.09 z"
       id="path1023"
       transform="scale(0.26458333)"
       inkscape:connector-curvature="0" />
    <path
       style="fill:none;fill-opacity:1;stroke:#000000;stroke-width:0.04990544;stroke-miterlimit:4;stroke-dasharray:none;stroke-opacity:1;paint-order:markers stroke fill"
       d="m 114.0948,14.309445 c 0,-4.14118 -4.45777,-7.4749998 -9.99525,-7.4749998 h -89.959359 -0.0156 c -0.003,0 -0.006,-6e-5 -0.009,0 a 9.9750612,9.9750622 0 0 0 -0.0631,0.003 c -0.43945,0.003 -0.85873,0.0577 -1.2826,0.10129 a 9.9750612,9.9750622 0 0 0 -0.48887,0.0667 9.9750612,9.9750622 0 0 0 -0.96943,0.23254 9.9750612,9.9750622 0 0 0 -0.94155,0.32815 9.9750612,9.9750622 0 0 0 -0.9038097,0.42065 9.9750612,9.9750622 0 0 0 -0.85783,0.50849 9.9750612,9.9750622 0 0 0 -0.80254,0.5917 9.9750612,9.9750622 0 0 0 -0.73898,0.66921 9.9750612,9.9750622 0 0 0 -0.57618,0.6273498 9.9750612,9.9750622 0 0 0 -0.6036,0.79375 9.9750612,9.9750622 0 0 0 -0.52088,0.85008 9.9750612,9.9750622 0 0 0 -0.43358,0.89762 9.9750612,9.9750622 0 0 0 -0.3421,0.93689 9.9750612,9.9750622 0 0 0 -0.24649,0.96583 9.9750612,9.9750622 0 0 0 -0.10438,0.68833 c -0.0564,0.43093 -0.0946,0.86778 -0.0946,1.31465 v 30.00385 h 4.9625 c 2.7630997,0 4.9872897,2.22781 4.9872897,4.995054 v 39.95982 c 0,2.76724 -2.22419,4.99505 -4.9872897,4.99505 h -4.9625 V 126.7883 c 0,0.43548 0.0388,0.86113 0.0925,1.28157 a 9.9750622,9.9750622 0 0 0 0.0527,0.43512 9.9750622,9.9750622 0 0 0 0.21807,0.97307 9.9750622,9.9750622 0 0 0 0.3147,0.94619 9.9750622,9.9750622 0 0 0 0.40722,0.91002 9.9750622,9.9750622 0 0 0 0.49609,0.86507 9.9750622,9.9750622 0 0 0 0.57981,0.8108 9.9750622,9.9750622 0 0 0 0.65836,0.74931 9.9750622,9.9750622 0 0 0 0.72914,0.67955 9.9750622,9.9750622 0 0 0 0.79375,0.60358 9.9750622,9.9750622 0 0 0 0.85008,0.52089 9.9750622,9.9750622 0 0 0 0.8981597,0.43357 9.9750622,9.9750622 0 0 0 0.93636,0.3421 9.9750622,9.9750622 0 0 0 0.96636,0.24649 9.9750622,9.9750622 0 0 0 0.61391,0.093 c 0.42432,0.0442 0.84469,0.0985 1.28466,0.1018 a 9.9750622,9.9750622 0 0 0 0.0796,0.004 c 0.003,5e-5 0.006,0 0.008,0 h 0.0156 4.97488 84.984479 c 5.53749,0 9.99525,-3.33381 9.99525,-7.47499 0,-4.14118 -4.45776,-7.475 -9.99525,-7.475 H 44.277351 c -4.19239,-0.0996 -7.80491,-1.62649 -10.83912,-4.57698 -2.24459,-2.45993 -4.04506,-5.48564 -4.3434,-10.42262 V 36.509945 c 0.17552,-5.07993 2.30084,-7.9663 4.57697,-10.68307 2.76686,-2.10901 5.68508,-4.03674 10.20454,-4.04265 h 60.223229 c 5.53748,0 9.99525,-3.33382 9.99525,-7.47499 z"
       id="rect815"
       inkscape:connector-curvature="0" />
  </g>
</svg>
