<?xml version="1.0" encoding="UTF-8" standalone="no"?>
<!-- Created with Inkscape (http://www.inkscape.org/) -->

<svg
   xmlns:dc="http://purl.org/dc/elements/1.1/"
   xmlns:cc="http://creativecommons.org/ns#"
   xmlns:rdf="http://www.w3.org/1999/02/22-rdf-syntax-ns#"
   xmlns:svg="http://www.w3.org/2000/svg"
   xmlns="http://www.w3.org/2000/svg"
   xmlns:sodipodi="http://sodipodi.sourceforge.net/DTD/sodipodi-0.dtd"
   xmlns:inkscape="http://www.inkscape.org/namespaces/inkscape"
   width="400mm"
   height="300mm"
   viewBox="0 0 400 300"
   version="1.1"
   id="svg4681"
   inkscape:version="0.92.5 (2060ec1f9f, 2020-04-08)"
   sodipodi:docname="penguin_christmas_ornament.svg">
  <defs
     id="defs4675" />
  <sodipodi:namedview
     id="base"
     pagecolor="#ffffff"
     bordercolor="#666666"
     borderopacity="1.0"
     inkscape:pageopacity="0.0"
     inkscape:pageshadow="2"
     inkscape:zoom="0.98994949"
     inkscape:cx="307.36813"
     inkscape:cy="796.90244"
     inkscape:document-units="mm"
     inkscape:current-layer="layer11"
     showgrid="false"
     inkscape:window-width="1859"
     inkscape:window-height="1176"
     inkscape:window-x="61"
     inkscape:window-y="0"
     inkscape:window-maximized="1"
     inkscape:snap-global="true" />
  <metadata
     id="metadata4678">
    <rdf:RDF>
      <cc:Work
         rdf:about="">
        <dc:format>image/svg+xml</dc:format>
        <dc:type
           rdf:resource="http://purl.org/dc/dcmitype/StillImage" />
        <dc:title></dc:title>
      </cc:Work>
    </rdf:RDF>
  </metadata>
  <g
     inkscape:label="cut"
     inkscape:groupmode="layer"
     id="layer1"
     transform="translate(0,3)"
     style="display:inline">
    <g
       id="g6248">
      <g
         id="g6241">
        <g
           transform="matrix(0.60601084,0,0,0.60601084,-22.406717,-86.576417)"
           style="display:inline"
           id="g947">
          <path
             transform="scale(0.26458333)"
             sodipodi:nodetypes="cccccccccccscccccccc"
             inkscape:connector-curvature="0"
             id="path1070-3"
             d="m 163.58789,622.68164 c -6.64566,19.05653 -10.13518,37.82624 3.92969,55 -17.32434,20.57737 -19.13765,37.12869 -10.44727,55.35742 -8.69427,28.19622 -2.8145,50.63907 14.07031,68.73828 m 107.07621,-7.82813 c 23.18669,-21.35142 18.28124,-34.48059 14.64843,-47.98242 -2.91432,-3.70526 -5.18272,-8.96285 -4.22265,-21.97266 2.4395,-28.12229 -7.74499,-34.95132 -14.33985,-50.59766 9.39569,-15.56915 4.89235,-24.81532 2.85743,-29.64257 m 0.0672,-0.74543 c 9.97316,31.5712 74.65095,-9.78921 17.43285,-47.46942 -12.65366,-46.08723 -40.2959,-62.19708 -66.28321,-62.13086 -27.66391,0.0705 -53.4533,18.47287 -57.28906,38.56055 m 0,0 c -22.77434,19.74784 -12.5067,54.62917 -10,52.14258 m 10.05273,177.66601 c 1.09255,9.27753 9.3907,14.71293 38.89063,8.83985 l 29.54883,-1.00977 c 8.20679,0.10488 16.44647,0.22568 26.51562,1.26172 12.56104,-1.37979 13.71905,-8.46062 12.1211,-16.91992"
             style="display:inline;fill:none;fill-rule:evenodd;stroke:#000000;stroke-width:0.99999994px;stroke-linecap:butt;stroke-linejoin:miter;stroke-opacity:1" />
          <path
             inkscape:connector-curvature="0"
             id="path942"
             d="m 43.282629,164.75118 -0.661451,0.37827"
             style="fill:none;fill-rule:evenodd;stroke:#000000;stroke-width:0.26458332px;stroke-linecap:butt;stroke-linejoin:miter;stroke-opacity:1" />
        </g>
        <circle
           style="fill:none;fill-opacity:1;stroke:#000000;stroke-width:0.051;stroke-miterlimit:4;stroke-dasharray:none;stroke-opacity:1;paint-order:markers stroke fill"
           id="path6235"
           cx="14.457589"
           cy="1.1391394"
           r="0.80000001" />
      </g>
    </g>
  </g>
  <g
     inkscape:groupmode="layer"
     id="layer11"
     inkscape:label="engrave high contrast"
     style="display:inline">
    <path
       style="display:inline;fill:none;fill-rule:evenodd;stroke:#000000;stroke-width:0.16034035px;stroke-linecap:butt;stroke-linejoin:miter;stroke-opacity:1"
       d="m 3.8230407,16.264805 c -1.065567,3.05553 -1.62526,6.065071 0.629906,8.818718 0.973235,0.382156 1.900286,1.17717 3.149541,1.145294 -4.375664,-6.266734 -0.220915,-9.068643 1.202562,-11.567414"
       id="path1070-36-5"
       inkscape:connector-curvature="0"
       sodipodi:nodetypes="cccc" />
    <path
       style="display:inline;fill:none;fill-rule:evenodd;stroke:#000000;stroke-width:0.16034035px;stroke-linecap:butt;stroke-linejoin:miter;stroke-opacity:1"
       d="m 17.509238,15.405839 c 1.907213,2.309004 3.693376,6.201581 0.229061,11.223823 1.53265,-0.210455 3.181975,-1.315316 3.836715,-2.233307 1.506499,-2.496365 0.784395,-3.978946 0.458113,-4.752949"
       id="path1072-0-9"
       inkscape:connector-curvature="0"
       sodipodi:nodetypes="cccc" />
    <path
       style="display:inline;fill:none;fill-rule:evenodd;stroke:#000000;stroke-width:0.16034035px;stroke-linecap:butt;stroke-linejoin:miter;stroke-opacity:1"
       d="m 4.4529467,25.083523 c -2.77779,3.299383 -3.068396,5.953191 -1.674978,8.875992 0.589364,0.89666 2.724601,0.639705 4.022822,0.458108 1.771703,-1.000244 1.388613,-1.820923 0.916227,-2.63416 l -1.088019,-1.54614 c -1.474031,-1.689976 0.334712,-2.734163 0.973489,-4.008506"
       id="path1074-6-3"
       inkscape:connector-curvature="0"
       sodipodi:nodetypes="cccccc" />
    <path
       style="display:inline;fill:none;fill-rule:evenodd;stroke:#000000;stroke-width:0.16034035px;stroke-linecap:butt;stroke-linejoin:miter;stroke-opacity:1"
       d="m 18.310942,26.515133 c 1.781709,1.05504 2.054456,2.388658 0.32844,4.091281 -1.890815,2.536817 1.016929,3.966779 1.822134,4.049207 2.340402,-0.206256 3.027026,-1.187805 3.412776,-2.146501 0.391142,-4.50914 -1.241857,-5.604026 -2.299278,-8.112765"
       id="path1076-2-4"
       inkscape:connector-curvature="0"
       sodipodi:nodetypes="ccccc" />
    <path
       style="display:inline;fill:none;fill-rule:evenodd;stroke:#000000;stroke-width:0.16034035px;stroke-linecap:butt;stroke-linejoin:miter;stroke-opacity:1"
       d="m 2.7779687,33.959515 c -1.394043,4.520994 -0.451247,8.119547 2.25607,11.021579 0.361437,-1.571675 1.638538,-1.312024 2.834446,-1.21476 -1.897675,-0.957744 -4.77362,-6.641127 -1.067694,-9.348711"
       id="path1078-6-2"
       inkscape:connector-curvature="0"
       sodipodi:nodetypes="cccc" />
    <path
       style="display:inline;fill:none;fill-rule:evenodd;stroke:#000000;stroke-width:0.16034035px;stroke-linecap:butt;stroke-linejoin:miter;stroke-opacity:1"
       d="m 20.461516,34.655621 c 1.342399,3.926327 0.119512,6.27402 -1.295741,8.503333 2.098748,-0.325671 2.988222,-0.07853 3.036901,0.566885 3.717763,-3.423494 2.931027,-5.528598 2.348542,-7.693488 -0.467283,-0.594103 -0.830871,-1.437232 -0.676926,-3.523231"
       id="path1080-1-3"
       inkscape:connector-curvature="0"
       sodipodi:nodetypes="ccccc" />
    <path
       style="display:inline;fill:none;fill-rule:evenodd;stroke:#000000;stroke-width:0.16034035px;stroke-linecap:butt;stroke-linejoin:miter;stroke-opacity:1"
       d="m 7.8684847,43.766334 c 4.0479213,0.890892 7.8594763,0.865875 11.2972903,-0.60738"
       id="path1082-8-2"
       inkscape:connector-curvature="0"
       sodipodi:nodetypes="cc" />
    <path
       style="display:inline;fill:none;fill-rule:evenodd;stroke:#000000;stroke-width:0.16034035px;stroke-linecap:butt;stroke-linejoin:miter;stroke-opacity:1"
       d="m 22.202676,43.725839 c 0.25621,1.356368 0.07043,2.49173 -1.943622,2.712966 -1.614484,-0.166118 -2.935777,-0.185639 -4.251656,-0.202456 l -4.737575,0.16197 c -4.7300353,0.941692 -6.0606053,0.07034 -6.2357843,-1.417225"
       id="path1084-7-6"
       inkscape:connector-curvature="0"
       sodipodi:nodetypes="ccccc" />
    <path
       style="display:inline;fill:none;fill-rule:evenodd;stroke:#000000;stroke-width:0.16034035px;stroke-linecap:butt;stroke-linejoin:miter;stroke-opacity:1"
       d="m 9.0341097,20.158782 c 0.0203,1.311771 1.6096373,0.342796 1.4316093,0.143164 0.06137,-0.648068 0.05981,-0.338233 -0.314956,-0.400852 -0.04575,-0.369424 0.215582,-0.558985 -0.1717917,-0.257688 -0.108415,-0.445242 -0.103828,-0.375327 -0.286322,0 -0.4217886,-0.15832 -0.3685566,-0.206826 -0.4008456,0.257688 -0.394901,0.04478 -0.455126,-0.23629 -0.257694,0.257688 z"
       id="path1086-9-5"
       inkscape:connector-curvature="0"
       sodipodi:nodetypes="ccccccc" />
    <path
       style="display:inline;fill:none;fill-rule:evenodd;stroke:#000000;stroke-width:0.16034035px;stroke-linecap:butt;stroke-linejoin:miter;stroke-opacity:1"
       d="m 15.275931,20.130154 c -0.197312,0.912252 0.914101,0.40773 1.173921,0.286322 0.367153,-0.750896 0.359098,-0.02363 -0.0286,-0.372218 0.23626,-1.056877 0.293152,-0.01097 -0.257694,-0.400852 -0.352067,-0.579116 -0.01394,-0.24352 -0.544009,0.02866 -0.964515,-0.358576 -0.04697,-0.05642 -0.343585,0.257688 -0.26782,-0.220836 0.0072,0.170422 0,0.200426 z"
       id="path1088-2-2"
       inkscape:connector-curvature="0"
       sodipodi:nodetypes="ccccccc" />
    <path
       style="display:inline;fill:none;fill-rule:evenodd;stroke:#000000;stroke-width:0.16034035px;stroke-linecap:butt;stroke-linejoin:miter;stroke-opacity:1"
       d="m 11.553266,22.082836 c -0.998615,3.756255 2.203025,2.598762 2.935674,0.384671 -0.09462,-1.368627 -2.7224,-1.236413 -2.935674,-0.384671 z"
       id="path1090-0-8"
       inkscape:connector-curvature="0"
       sodipodi:nodetypes="ccc" />
    <path
       style="display:inline;fill:none;fill-rule:evenodd;stroke:#000000;stroke-width:0.16034035px;stroke-linecap:butt;stroke-linejoin:miter;stroke-opacity:1"
       d="M 5.0255907,8.1332601 C 6.2183717,1.8867311 20.650405,-3.3433309 24.839084,11.912708 l -2.06152,1.832461 C 19.665219,2.1063371 6.2122687,7.8366841 5.0255907,8.1332601 Z"
       id="path1064-2-4"
       inkscape:connector-curvature="0"
       sodipodi:nodetypes="cccc" />
    <path
       style="display:inline;fill:none;fill-rule:evenodd;stroke:#000000;stroke-width:0.43269172;stroke-linecap:butt;stroke-linejoin:miter;stroke-miterlimit:4;stroke-dasharray:none;stroke-opacity:1"
       d="m 24.839084,11.912708 c 11.361551,7.481997 -7.253761,15.871254 -2.06152,1.832461 v 0"
       id="path1066-3-8"
       inkscape:connector-curvature="0"
       sodipodi:nodetypes="ccc" />
    <path
       style="display:inline;fill:none;fill-rule:evenodd;stroke:#000000;stroke-width:0.43269172;stroke-linecap:butt;stroke-linejoin:miter;stroke-miterlimit:4;stroke-dasharray:none;stroke-opacity:1"
       d="m 5.0255907,8.1332601 c -3.651646,3.1663769 -2.005326,8.7593059 -1.603402,8.3606049 4.969295,-3.46008 14.2530473,-1.702836 17.9810323,0.572644 0.458115,0.676289 0.916235,-2.184972 1.374343,-3.32134"
       id="path1068-7-8"
       inkscape:connector-curvature="0"
       sodipodi:nodetypes="cccc" />
    <path
       style="display:inline;opacity:1;vector-effect:none;fill:#ff0000;fill-opacity:1;stroke:#ff0000;stroke-width:0.4328649;stroke-linecap:round;stroke-linejoin:miter;stroke-miterlimit:4;stroke-dasharray:none;stroke-dashoffset:0;stroke-opacity:1"
       d="M 22.65415,12.883941 C 21.587733,9.6732661 19.411179,7.5330721 16.362884,6.6977711 c -0.804613,-0.220482 -1.202253,-0.251046 -3.264072,-0.250885 -2.602156,1.61e-4 -3.3291687,0.110076 -6.0886453,0.920168 -0.777142,0.228147 -1.505403,0.440833 -1.618351,0.472637 -0.19613,0.05523 -0.196615,0.03529 -0.01085,-0.44357 0.304168,-0.783974 1.140554,-1.982138 1.793349,-2.569053 0.826072,-0.742713 1.417115,-1.132523 2.5161636,-1.659487 1.5338857,-0.735452 2.3351407,-0.926958 4.1592097,-0.99408 1.948792,-0.07171 2.96672,0.136391 4.574698,0.935229 2.575594,1.279553 4.727024,4.050887 5.902127,7.6027419 0.404015,1.221149 0.456453,1.064132 -0.696962,2.086711 l -0.775535,0.687565 z"
       id="path1004-2"
       inkscape:connector-curvature="0" />
    <path
       style="display:inline;opacity:1;vector-effect:none;fill:#000000;fill-opacity:1;stroke:#000000;stroke-width:0.4328649;stroke-linecap:round;stroke-linejoin:miter;stroke-miterlimit:4;stroke-dasharray:none;stroke-dashoffset:0;stroke-opacity:1"
       d="m 6.5706697,25.914327 c -0.941583,-0.347268 -2.062382,-0.998124 -2.326639,-1.351101 -1.047375,-1.399 -1.438343,-3.391806 -1.059325,-5.399484 0.300527,-1.591925 0.716117,-2.791724 1.040654,-3.004372 0.729279,-0.477841 3.780556,-1.42183 4.164858,-1.288504 0.06481,0.02248 -0.29757,0.607796 -0.80528,1.300696 -1.518293,2.072086 -2.046644,3.344315 -2.043335,4.920167 0.003,1.3701 0.477216,2.86182 1.372869,4.31744 0.188851,0.306926 0.343372,0.583043 0.343372,0.613592 0,0.09032 -0.259155,0.04945 -0.687174,-0.108434 z"
       id="path1006-1"
       inkscape:connector-curvature="0" />
    <path
       style="display:inline;opacity:1;vector-effect:none;fill:#000000;fill-opacity:1;stroke:#000000;stroke-width:0.4328649;stroke-linecap:round;stroke-linejoin:miter;stroke-miterlimit:4;stroke-dasharray:none;stroke-dashoffset:0;stroke-opacity:1"
       d="m 3.4803417,34.297367 c -0.498959,-0.181094 -0.837149,-0.764804 -1.14856,-1.982396 -0.408767,-1.598268 -0.238623,-3.035096 0.548652,-4.633262 0.327524,-0.664872 1.174425,-1.944761 1.585003,-2.395354 0.02382,-0.02612 0.47307,0.168392 0.998348,0.432273 0.525284,0.263882 1.170056,0.517182 1.432834,0.562893 l 0.477779,0.08311 -0.61984,0.858966 c -0.690416,0.956776 -0.892751,1.514803 -0.761022,2.098876 0.04866,0.21572 0.448266,0.901139 0.88803,1.523148 0.982471,1.389613 1.063452,1.540872 1.063452,1.986388 0,0.464077 -0.246368,0.824955 -0.82429,1.207403 -0.431989,0.285879 -0.579856,0.314301 -1.855441,0.356687 -0.937966,0.03115 -1.515003,-5.29e-4 -1.784945,-0.09873 z"
       id="path1008-1"
       inkscape:connector-curvature="0" />
    <path
       style="display:inline;opacity:1;vector-effect:none;fill:#000000;fill-opacity:1;stroke:#000000;stroke-width:0.4328649;stroke-linecap:round;stroke-linejoin:miter;stroke-miterlimit:4;stroke-dasharray:none;stroke-dashoffset:0;stroke-opacity:1"
       d="m 4.3566157,43.946163 c -1.909371,-2.540029 -2.505334,-5.57167 -1.736427,-8.833191 l 0.202468,-0.858827 0.435291,0.215365 c 0.350523,0.173427 0.681556,0.213826 1.700018,0.207479 l 1.264739,-0.0079 -0.445412,0.588489 c -0.625949,0.827019 -0.868468,1.643938 -0.861984,2.903503 0.0084,1.636641 0.642293,3.341442 1.751826,4.711655 l 0.569371,0.703144 -0.75275,0.04794 c -0.716547,0.04563 -0.773337,0.07112 -1.180636,0.530091 l -0.42788,0.482166 z"
       id="path1010-9"
       inkscape:connector-curvature="0" />
    <path
       style="display:inline;opacity:1;vector-effect:none;fill:#000000;fill-opacity:1;stroke:#000000;stroke-width:0.4328649;stroke-linecap:round;stroke-linejoin:miter;stroke-miterlimit:4;stroke-dasharray:none;stroke-dashoffset:0;stroke-opacity:1"
       d="M 21.995252,43.171733 C 21.830308,43.006797 21.58594,42.971308 20.615038,42.971308 H 19.43525 l 0.324694,-0.527695 c 0.499214,-0.811321 0.997627,-1.975699 1.183934,-2.76587 0.290273,-1.231124 0.172404,-3.638211 -0.229352,-4.683622 -0.05866,-0.152702 0.04109,-0.213643 0.517031,-0.315706 0.923554,-0.19807 1.68037,-0.572342 2.102785,-1.039897 l 0.387956,-0.429432 0.05121,0.884811 c 0.03988,0.689206 0.131426,1.051097 0.414015,1.63703 0.984827,2.041978 0.927439,3.958492 -0.169896,5.673911 -0.388999,0.608094 -1.597663,1.967322 -1.749407,1.967322 -0.03988,0 -0.162752,-0.09019 -0.272985,-0.200427 z"
       id="path1012-9"
       inkscape:connector-curvature="0" />
    <path
       style="display:inline;opacity:1;vector-effect:none;fill:#000000;fill-opacity:1;stroke:#000000;stroke-width:0.4328649;stroke-linecap:round;stroke-linejoin:miter;stroke-miterlimit:4;stroke-dasharray:none;stroke-dashoffset:0;stroke-opacity:1"
       d="m 19.883922,34.325371 c -1.061047,-0.477756 -1.747427,-1.314646 -1.744724,-2.127298 0.0012,-0.400701 0.453417,-1.413788 0.734758,-1.646558 0.350298,-0.289811 0.841707,-1.088765 0.975683,-1.586306 0.188136,-0.698681 -0.0067,-1.30254 -0.617009,-1.912915 l -0.49456,-0.494553 0.81666,-0.406167 c 0.449163,-0.223393 1.082948,-0.640741 1.408413,-0.927439 l 0.591745,-0.52126 0.800752,1.518051 c 1.152433,2.184742 1.301597,2.684029 1.368275,4.579933 0.03885,1.104122 0.01303,1.675093 -0.08653,1.91548 -0.212776,0.513678 -1.029819,1.204537 -1.729155,1.462103 -0.985278,0.362874 -1.467055,0.397841 -2.024313,0.146929 z"
       id="path1014-8"
       inkscape:connector-curvature="0" />
    <path
       style="display:inline;opacity:1;vector-effect:none;fill:#000000;fill-opacity:1;stroke:#000000;stroke-width:0.43269172;stroke-linecap:round;stroke-linejoin:miter;stroke-miterlimit:4;stroke-dasharray:none;stroke-dashoffset:0;stroke-opacity:1"
       d="m 18.230125,26.106936 c 1.022934,-1.450154 1.748971,-4.060752 1.582161,-5.688945 -0.142849,-1.394274 -0.752969,-3.059085 -1.571907,-4.289189 l -0.25721,-0.386345 0.27788,0.0845 c 0.571966,0.173918 2.242009,0.887488 2.703385,1.15509 0.263177,0.152647 0.54664,0.277469 0.629906,0.277384 0.110783,-1.13e-4 0.141938,0.161185 0.116129,0.601275 -0.03442,0.586964 0.122189,1.44722 0.495208,2.720219 0.315561,1.076893 0.02557,2.534713 -0.727177,3.655512 -0.397621,0.592048 -1.329255,1.301687 -2.36369,1.800458 -0.996762,0.480609 -1.184795,0.495493 -0.884685,0.07004 z"
       id="path1016-4"
       inkscape:connector-curvature="0" />
    <path
       style="display:inline;opacity:1;vector-effect:none;fill:#000000;fill-opacity:1;stroke:#000000;stroke-width:0.07652043;stroke-linecap:round;stroke-linejoin:miter;stroke-miterlimit:4;stroke-dasharray:none;stroke-dashoffset:0;stroke-opacity:1"
       d="m 15.495203,20.561246 c -0.118274,-0.03569 -0.140073,-0.08237 -0.140078,-0.300012 0,-0.107361 -0.007,-0.205965 -0.01551,-0.219115 -0.0089,-0.0137 0.0069,-0.05691 0.03703,-0.101228 0.04066,-0.05981 0.05103,-0.09676 0.04575,-0.163363 -0.0036,-0.04733 -0.0067,-0.08604 -0.0067,-0.08604 7.7e-5,6e-6 0.0483,0.0183 0.107129,0.04066 l 0.10698,0.04066 0.105604,-0.06787 c 0.05806,-0.03733 0.13637,-0.0989 0.17398,-0.136837 0.03763,-0.03794 0.07196,-0.05987 0.07633,-0.04872 0.0042,0.01115 0.03442,0.06236 0.06672,0.113851 0.06042,0.09623 0.190895,0.179713 0.280862,0.179713 0.05175,0 0.05321,0.01497 0.01545,0.156938 l -0.0283,0.106319 0.07069,0.0583 0.07069,0.05824 -0.04121,0.08077 c -0.03612,0.07075 -0.06078,0.08864 -0.199055,0.144261 -0.315236,0.126813 -0.597067,0.182476 -0.726384,0.143461 z"
       id="path1020-8"
       inkscape:connector-curvature="0" />
    <path
       style="display:inline;opacity:1;vector-effect:none;fill:#000000;fill-opacity:1;stroke:#000000;stroke-width:0.07652043;stroke-linecap:round;stroke-linejoin:miter;stroke-miterlimit:4;stroke-dasharray:none;stroke-dashoffset:0;stroke-opacity:1"
       d="m 9.4059397,20.714742 c -0.04284,-0.01527 -0.09902,-0.04763 -0.124904,-0.07196 -0.06996,-0.06573 -0.131462,-0.226496 -0.150055,-0.392252 -0.009,-0.08081 -0.02679,-0.166168 -0.03939,-0.189688 -0.01261,-0.02351 -0.02291,-0.04794 -0.02291,-0.05424 0,-0.0063 0.05696,-0.01157 0.126541,-0.01176 0.06959,-1.58e-4 0.138698,-0.008 0.153564,-0.01745 0.01715,-0.01091 0.03115,-0.07718 0.0383,-0.181901 0.0062,-0.09063 0.01394,-0.164774 0.01721,-0.164774 0.003,0 0.07692,0.02733 0.163678,0.06074 0.08675,0.03339 0.1600706,0.06074 0.1629316,0.06074 0.003,0 0.03169,-0.05236 0.06409,-0.116409 l 0.05891,-0.116414 0.02351,0.0911 c 0.01291,0.05012 0.03006,0.112264 0.03806,0.138116 l 0.01455,0.04703 0.05333,-0.04194 c 0.02933,-0.02309 0.05872,-0.04194 0.06532,-0.04194 0.0066,0 0.012,0.05878 0.012,0.13068 v 0.130686 l 0.06969,0.01309 c 0.03836,0.0072 0.115942,0.0099 0.172482,0.0061 l 0.102804,-0.0071 -0.01242,0.151842 c -0.0068,0.08351 -0.01582,0.174622 -0.01988,0.202462 -0.0099,0.06681 -0.125663,0.16358 -0.312653,0.261317 -0.2553847,0.133486 -0.4871593,0.173858 -0.6548553,0.11407 z"
       id="path1022-8"
       inkscape:connector-curvature="0" />
    <path
       style="display:inline;opacity:1;vector-effect:none;fill:#ff6600;fill-opacity:1;stroke:#ff6600;stroke-width:0.30608171;stroke-linecap:round;stroke-linejoin:miter;stroke-miterlimit:4;stroke-dasharray:none;stroke-dashoffset:0;stroke-opacity:1"
       d="m 6.6819147,46.542366 c -0.736242,-0.173453 -1.268604,-0.616265 -1.44376,-1.200894 -0.121917,-0.406908 -6.08e-4,-0.779155 0.37043,-1.139015 0.257991,-0.250052 0.33044,-0.274373 0.96843,-0.325041 0.718874,-0.05709 0.938408,-0.0366 2.474942,0.230855 1.4694063,0.255783 2.3988333,0.335645 3.9064193,0.335645 2.161015,0 3.516372,-0.215609 5.391011,-0.857568 l 1.077542,-0.368998 1.167746,0.02611 c 1.429622,0.032 1.46333,0.05242 1.545189,0.934257 0.102853,1.107988 -0.280232,1.736519 -1.225972,2.011453 -0.405627,0.117922 -0.612211,0.121335 -1.92672,0.03181 -1.013674,-0.06901 -2.334555,-0.08304 -4.239864,-0.04503 -2.755538,0.05496 -3.304354,0.09225 -4.8450207,0.329044 -0.8702866,0.13376 -2.7200316,0.155189 -3.2203726,0.03733 z"
       id="path1024-9"
       inkscape:connector-curvature="0" />
    <path
       style="display:inline;opacity:1;vector-effect:none;fill:#ff6600;fill-opacity:1;stroke:#ff6600;stroke-width:0.30608171;stroke-linecap:round;stroke-linejoin:miter;stroke-miterlimit:4;stroke-dasharray:none;stroke-dashoffset:0;stroke-opacity:1"
       d="m 12.007877,24.362279 c -0.389725,-0.154709 -0.486366,-0.381884 -0.478397,-1.124574 0.01388,-1.294488 0.321053,-1.655131 1.409715,-1.655131 0.652982,0 1.098425,0.193257 1.320183,0.572777 0.143866,0.246204 0.142916,0.25564 -0.06755,0.670975 -0.493554,0.973969 -1.614214,1.762122 -2.183955,1.535953 z"
       id="path1026-3"
       inkscape:connector-curvature="0" />
  </g>
  <g
     inkscape:groupmode="layer"
     id="layer9"
     inkscape:label="engrave"
     style="display:inline">
    <path
       style="display:inline;fill:none;fill-rule:evenodd;stroke:#000000;stroke-width:0.16034035px;stroke-linecap:butt;stroke-linejoin:miter;stroke-opacity:1"
       d="m 3.8230414,16.264805 c -1.0655671,3.05553 -1.6252605,6.065071 0.6299058,8.818718 0.9732353,0.382156 1.9002863,1.17717 3.1495413,1.145294 C 3.2268237,19.962083 7.3815733,17.160174 8.80505,14.661403"
       id="path1070-36"
       inkscape:connector-curvature="0"
       sodipodi:nodetypes="cccc" />
    <path
       style="display:inline;fill:none;fill-rule:evenodd;stroke:#000000;stroke-width:0.16034035px;stroke-linecap:butt;stroke-linejoin:miter;stroke-opacity:1"
       d="m 17.509239,15.405839 c 1.907213,2.309004 3.693375,6.201581 0.22906,11.223823 1.53265,-0.210455 3.181975,-1.315316 3.836715,-2.233307 1.5065,-2.496365 0.784396,-3.978946 0.458114,-4.752949"
       id="path1072-0"
       inkscape:connector-curvature="0"
       sodipodi:nodetypes="cccc" />
    <path
       style="display:inline;fill:none;fill-rule:evenodd;stroke:#000000;stroke-width:0.16034035px;stroke-linecap:butt;stroke-linejoin:miter;stroke-opacity:1"
       d="m 4.4529472,25.083523 c -2.77779,3.299383 -3.0683965,5.95319 -1.6749776,8.875992 0.5893638,0.89666 2.7246005,0.639705 4.0228211,0.458108 C 8.572494,33.417378 8.189404,32.5967 7.7170185,31.783464 L 6.6289987,30.237324 C 5.1549684,28.547347 6.9637107,27.50316 7.6024885,26.228817"
       id="path1074-6"
       inkscape:connector-curvature="0"
       sodipodi:nodetypes="cccccc" />
    <path
       style="display:inline;fill:none;fill-rule:evenodd;stroke:#000000;stroke-width:0.16034035px;stroke-linecap:butt;stroke-linejoin:miter;stroke-opacity:1"
       d="m 18.310943,26.515133 c 1.781708,1.05504 2.054455,2.388658 0.328439,4.091282 -1.890814,2.536816 1.016929,3.966777 1.822135,4.049207 2.340402,-0.206256 3.027025,-1.187806 3.412775,-2.146503 0.391143,-4.509139 -1.241856,-5.604025 -2.299278,-8.112764"
       id="path1076-2"
       inkscape:connector-curvature="0"
       sodipodi:nodetypes="ccccc" />
    <path
       style="display:inline;fill:none;fill-rule:evenodd;stroke:#000000;stroke-width:0.16034035px;stroke-linecap:butt;stroke-linejoin:miter;stroke-opacity:1"
       d="M 2.7779696,33.959515 C 1.3839265,38.480508 2.3267218,42.079061 5.0340389,44.981095 5.3954759,43.409418 6.672577,43.669069 7.8684848,43.766334 5.9708104,42.808589 3.0948648,37.125207 6.8007907,34.417623"
       id="path1078-6"
       inkscape:connector-curvature="0"
       sodipodi:nodetypes="cccc" />
    <path
       style="display:inline;fill:none;fill-rule:evenodd;stroke:#000000;stroke-width:0.16034035px;stroke-linecap:butt;stroke-linejoin:miter;stroke-opacity:1"
       d="m 20.461517,34.655622 c 1.342399,3.926326 0.119512,6.274018 -1.295742,8.503332 2.098749,-0.325671 2.988222,-0.07853 3.036902,0.566886 3.717762,-3.423494 2.931026,-5.5286 2.348541,-7.693489 -0.467283,-0.594103 -0.830871,-1.437233 -0.676926,-3.523232"
       id="path1080-1"
       inkscape:connector-curvature="0"
       sodipodi:nodetypes="ccccc" />
    <path
       style="display:inline;fill:none;fill-rule:evenodd;stroke:#000000;stroke-width:0.16034035px;stroke-linecap:butt;stroke-linejoin:miter;stroke-opacity:1"
       d="m 7.8684848,43.766334 c 4.0479222,0.890891 7.8594762,0.865874 11.2972902,-0.60738"
       id="path1082-8"
       inkscape:connector-curvature="0"
       sodipodi:nodetypes="cc" />
    <path
       style="display:inline;fill:none;fill-rule:evenodd;stroke:#000000;stroke-width:0.16034035px;stroke-linecap:butt;stroke-linejoin:miter;stroke-opacity:1"
       d="m 22.202677,43.72584 c 0.25621,1.356368 0.07043,2.491729 -1.943622,2.712966 -1.614485,-0.16612 -2.935777,-0.18564 -4.251657,-0.202457 l -4.737574,0.161969 C 6.5397879,47.34001 5.2092185,46.468658 5.0340389,44.981095"
       id="path1084-7"
       inkscape:connector-curvature="0"
       sodipodi:nodetypes="ccccc" />
    <path
       style="display:inline;fill:none;fill-rule:evenodd;stroke:#000000;stroke-width:0.16034035px;stroke-linecap:butt;stroke-linejoin:miter;stroke-opacity:1"
       d="m 9.03411,20.158782 c 0.0203,1.311771 1.609638,0.342796 1.43161,0.143164 0.06137,-0.648068 0.05981,-0.338233 -0.314956,-0.400852 -0.04575,-0.369424 0.215582,-0.558985 -0.171792,-0.257688 -0.108415,-0.445242 -0.103828,-0.375327 -0.286322,0 -0.421789,-0.15832 -0.368557,-0.206826 -0.400846,0.257688 -0.394901,0.04478 -0.455126,-0.23629 -0.257694,0.257688 z"
       id="path1086-9"
       inkscape:connector-curvature="0"
       sodipodi:nodetypes="ccccccc" />
    <path
       style="display:inline;fill:none;fill-rule:evenodd;stroke:#000000;stroke-width:0.16034035px;stroke-linecap:butt;stroke-linejoin:miter;stroke-opacity:1"
       d="m 15.275931,20.130154 c -0.197311,0.912252 0.914101,0.40773 1.173922,0.286322 0.367152,-0.750896 0.359098,-0.02363 -0.0286,-0.372218 0.23626,-1.056877 0.293152,-0.01097 -0.257694,-0.400852 -0.352068,-0.579116 -0.01394,-0.24352 -0.54401,0.02866 -0.964514,-0.358576 -0.04697,-0.05642 -0.343584,0.257688 -0.26782,-0.220836 0.0072,0.170422 0,0.200426 z"
       id="path1088-2"
       inkscape:connector-curvature="0"
       sodipodi:nodetypes="ccccccc" />
    <path
       style="display:inline;fill:none;fill-rule:evenodd;stroke:#000000;stroke-width:0.16034035px;stroke-linecap:butt;stroke-linejoin:miter;stroke-opacity:1"
       d="m 11.553267,22.082836 c -0.998615,3.756255 2.203025,2.598762 2.935674,0.384671 -0.09462,-1.368627 -2.7224,-1.236413 -2.935674,-0.384671 z"
       id="path1090-0"
       inkscape:connector-curvature="0"
       sodipodi:nodetypes="ccc" />
    <path
       style="display:inline;fill:none;fill-rule:evenodd;stroke:#000000;stroke-width:0.16034035px;stroke-linecap:butt;stroke-linejoin:miter;stroke-opacity:1"
       d="M 5.0255911,8.1332601 C 6.2183719,1.8867311 20.650405,-3.3433309 24.839085,11.912708 l -2.061521,1.832461 C 19.665219,2.1063371 6.2122693,7.8366841 5.0255911,8.1332601 Z"
       id="path1064-2"
       inkscape:connector-curvature="0"
       sodipodi:nodetypes="cccc" />
    <path
       style="display:inline;fill:none;fill-rule:evenodd;stroke:#000000;stroke-width:0.43269172;stroke-linecap:butt;stroke-linejoin:miter;stroke-miterlimit:4;stroke-dasharray:none;stroke-opacity:1"
       d="m 24.839085,11.912708 c 11.361552,7.481997 -7.253762,15.871254 -2.061521,1.832461 v 0"
       id="path1066-3"
       inkscape:connector-curvature="0"
       sodipodi:nodetypes="ccc" />
    <path
       style="display:inline;fill:none;fill-rule:evenodd;stroke:#000000;stroke-width:0.43269172;stroke-linecap:butt;stroke-linejoin:miter;stroke-miterlimit:4;stroke-dasharray:none;stroke-opacity:1"
       d="M 5.0255911,8.1332601 C 1.3739455,11.299637 3.0202649,16.892566 3.4221895,16.493865 8.391484,13.033785 17.675237,14.791029 21.403222,17.066509 c 0.458114,0.676289 0.916234,-2.184972 1.374342,-3.32134"
       id="path1068-7"
       inkscape:connector-curvature="0"
       sodipodi:nodetypes="cccc" />
    <path
       style="display:inline;opacity:1;vector-effect:none;fill:#ffaaaa;fill-opacity:1;stroke:#ffaaaa;stroke-width:0.4328649;stroke-linecap:round;stroke-linejoin:miter;stroke-miterlimit:4;stroke-dasharray:none;stroke-dashoffset:0;stroke-opacity:1"
       d="M 22.65415,12.883941 C 21.587734,9.6732661 19.411179,7.5330721 16.362884,6.6977711 c -0.804612,-0.220482 -1.202252,-0.251046 -3.264071,-0.250885 -2.602156,1.61e-4 -3.329169,0.110076 -6.0886456,0.920168 -0.7771422,0.228147 -1.5054035,0.440833 -1.6183518,0.472637 -0.1961293,0.05523 -0.1966142,0.03529 -0.010848,-0.44357 0.3041689,-0.783974 1.1405547,-1.982138 1.7933496,-2.569053 0.8260716,-0.742713 1.4171148,-1.132523 2.5161638,-1.659487 1.533886,-0.735452 2.335141,-0.926958 4.15921,-0.99408 1.948791,-0.07171 2.96672,0.136391 4.574697,0.935229 2.575594,1.279553 4.727024,4.050887 5.902127,7.6027419 0.404016,1.221149 0.456454,1.064132 -0.696961,2.086711 l -0.775536,0.687565 z"
       id="path1004"
       inkscape:connector-curvature="0" />
    <path
       style="display:inline;opacity:1;vector-effect:none;fill:#000000;fill-opacity:1;stroke:#000000;stroke-width:0.4328649;stroke-linecap:round;stroke-linejoin:miter;stroke-miterlimit:4;stroke-dasharray:none;stroke-dashoffset:0;stroke-opacity:1"
       d="M 6.5706702,25.914327 C 5.629087,25.567059 4.5082882,24.916203 4.2440311,24.563226 3.1966565,23.164226 2.8056886,21.17142 3.1847059,19.163742 3.4852328,17.571817 3.9008229,16.372018 4.2253599,16.15937 4.9546394,15.681529 8.005916,14.73754 8.390218,14.870866 c 0.06481,0.02248 -0.2975697,0.607796 -0.8052796,1.300696 -1.5182935,2.072086 -2.0466439,3.344315 -2.0433351,4.920167 0.00303,1.3701 0.4772152,2.86182 1.372869,4.31744 0.1888511,0.306926 0.3433718,0.583043 0.3433718,0.613592 0,0.09032 -0.2591545,0.04945 -0.6871739,-0.108434 z"
       id="path1006"
       inkscape:connector-curvature="0" />
    <path
       style="display:inline;opacity:1;vector-effect:none;fill:#000000;fill-opacity:1;stroke:#000000;stroke-width:0.4328649;stroke-linecap:round;stroke-linejoin:miter;stroke-miterlimit:4;stroke-dasharray:none;stroke-dashoffset:0;stroke-opacity:1"
       d="M 3.4803423,34.297366 C 2.9813832,34.116272 2.6431928,33.532562 2.331782,32.314971 1.9230156,30.716703 2.0931592,29.279875 2.8804339,27.681709 c 0.3275247,-0.664872 1.1744248,-1.944761 1.5850032,-2.395354 0.023816,-0.02612 0.4730703,0.168392 0.9983484,0.432273 0.525284,0.263882 1.1700553,0.517182 1.4328337,0.562893 l 0.4777789,0.08311 -0.61984,0.858966 c -0.690416,0.956776 -0.8927509,1.514802 -0.7610223,2.098876 0.048663,0.215721 0.4482662,0.901138 0.8880301,1.523147 0.9824708,1.389613 1.0634521,1.540874 1.0634521,1.986389 0,0.464077 -0.2463677,0.824956 -0.8242899,1.207404 -0.4319888,0.285879 -0.5798555,0.314301 -1.8554415,0.356685 -0.9379654,0.03115 -1.5150029,-6.06e-4 -1.7849443,-0.09873 z"
       id="path1008"
       inkscape:connector-curvature="0" />
    <path
       style="display:inline;opacity:1;vector-effect:none;fill:#000000;fill-opacity:1;stroke:#000000;stroke-width:0.4328649;stroke-linecap:round;stroke-linejoin:miter;stroke-miterlimit:4;stroke-dasharray:none;stroke-dashoffset:0;stroke-opacity:1"
       d="M 4.3566158,43.946162 C 2.4472453,41.406134 1.8512821,38.374492 2.6201887,35.112972 l 0.2024682,-0.858826 0.4352915,0.215364 c 0.3505227,0.173428 0.6815562,0.213825 1.700018,0.20748 l 1.2647384,-0.0079 -0.4454119,0.588491 c -0.6259485,0.827017 -0.8684679,1.643938 -0.8619836,2.903501 0.00842,1.636642 0.6422927,3.341441 1.7518257,4.711656 l 0.5693714,0.703142 -0.7527503,0.04794 c -0.7165472,0.04563 -0.7733365,0.07112 -1.1806362,0.53009 l -0.4278801,0.482166 z"
       id="path1010"
       inkscape:connector-curvature="0" />
    <path
       style="display:inline;opacity:1;vector-effect:none;fill:#000000;fill-opacity:1;stroke:#000000;stroke-width:0.4328649;stroke-linecap:round;stroke-linejoin:miter;stroke-miterlimit:4;stroke-dasharray:none;stroke-dashoffset:0;stroke-opacity:1"
       d="M 21.995252,43.171734 C 21.830308,43.006796 21.58594,42.971308 20.615038,42.971308 H 19.43525 l 0.324695,-0.527696 c 0.499213,-0.811321 0.997627,-1.975698 1.183933,-2.765869 0.290273,-1.231124 0.172404,-3.638211 -0.229351,-4.683622 -0.05866,-0.152703 0.04109,-0.213643 0.51703,-0.315707 0.923555,-0.198069 1.680371,-0.572341 2.102785,-1.039897 l 0.387956,-0.429431 0.05121,0.884812 c 0.03988,0.689204 0.131426,1.051096 0.414015,1.637029 0.984828,2.041978 0.927439,3.958493 -0.169896,5.67391 -0.388998,0.608096 -1.597662,1.967323 -1.749407,1.967323 -0.03988,0 -0.162751,-0.09019 -0.272984,-0.200426 z"
       id="path1012"
       inkscape:connector-curvature="0" />
    <path
       style="display:inline;opacity:1;vector-effect:none;fill:#000000;fill-opacity:1;stroke:#000000;stroke-width:0.4328649;stroke-linecap:round;stroke-linejoin:miter;stroke-miterlimit:4;stroke-dasharray:none;stroke-dashoffset:0;stroke-opacity:1"
       d="m 19.883922,34.32537 c -1.061046,-0.477755 -1.747426,-1.314644 -1.744723,-2.127298 0.0012,-0.400701 0.453417,-1.413787 0.734758,-1.646556 0.350298,-0.289812 0.841707,-1.088765 0.975683,-1.586306 0.188136,-0.698682 -0.0067,-1.302541 -0.61701,-1.912916 l -0.494559,-0.494553 0.81666,-0.406167 c 0.449163,-0.223393 1.082948,-0.640741 1.408412,-0.927439 l 0.591745,-0.52126 0.800753,1.518051 c 1.152432,2.184742 1.301596,2.684028 1.368275,4.579933 0.03885,1.104122 0.01303,1.675093 -0.08653,1.915479 -0.212776,0.513679 -1.029818,1.204538 -1.729155,1.462105 -0.985277,0.362873 -1.467055,0.39784 -2.024313,0.146927 z"
       id="path1014"
       inkscape:connector-curvature="0" />
    <path
       style="display:inline;opacity:1;vector-effect:none;fill:#000000;fill-opacity:1;stroke:#000000;stroke-width:0.43269172;stroke-linecap:round;stroke-linejoin:miter;stroke-miterlimit:4;stroke-dasharray:none;stroke-dashoffset:0;stroke-opacity:1"
       d="m 18.230125,26.106936 c 1.022934,-1.450154 1.748971,-4.060752 1.582161,-5.688945 -0.142849,-1.394274 -0.752969,-3.059085 -1.571907,-4.289189 l -0.25721,-0.386345 0.277881,0.0845 c 0.571965,0.173918 2.242009,0.887488 2.703384,1.15509 0.263178,0.152647 0.54664,0.277469 0.629906,0.277384 0.110784,-1.13e-4 0.141939,0.161185 0.116129,0.601275 -0.03442,0.586964 0.12219,1.44722 0.495208,2.720219 0.315562,1.076893 0.02557,2.534713 -0.727176,3.655512 -0.397622,0.592048 -1.329255,1.301687 -2.363691,1.800458 -0.996761,0.480609 -1.184794,0.495493 -0.884685,0.07004 z"
       id="path1016"
       inkscape:connector-curvature="0" />
    <path
       style="display:inline;opacity:1;vector-effect:none;fill:#000000;fill-opacity:1;stroke:#000000;stroke-width:0.07652043;stroke-linecap:round;stroke-linejoin:miter;stroke-miterlimit:4;stroke-dasharray:none;stroke-dashoffset:0;stroke-opacity:1"
       d="m 15.495204,20.561246 c -0.118275,-0.03569 -0.140073,-0.08237 -0.140079,-0.300012 0,-0.107361 -0.007,-0.205965 -0.01551,-0.219115 -0.0089,-0.0137 0.0069,-0.05691 0.03703,-0.101228 0.04066,-0.05981 0.05103,-0.09676 0.04575,-0.163363 -0.0036,-0.04733 -0.0067,-0.08604 -0.0067,-0.08604 7.8e-5,6e-6 0.0483,0.0183 0.10713,0.04066 l 0.106979,0.04066 0.105604,-0.06787 c 0.05806,-0.03733 0.13637,-0.0989 0.17398,-0.136837 0.03763,-0.03794 0.07196,-0.05987 0.07633,-0.04872 0.0042,0.01115 0.03442,0.06236 0.06672,0.113851 0.06042,0.09623 0.190894,0.179713 0.280862,0.179713 0.05175,0 0.05321,0.01497 0.01545,0.156938 l -0.0283,0.106319 0.07069,0.0583 0.07069,0.05824 -0.04121,0.08077 c -0.03612,0.07075 -0.06078,0.08864 -0.199056,0.144261 -0.315235,0.126813 -0.597066,0.182476 -0.726383,0.143461 z"
       id="path1020"
       inkscape:connector-curvature="0" />
    <path
       style="display:inline;opacity:1;vector-effect:none;fill:#000000;fill-opacity:1;stroke:#000000;stroke-width:0.07652043;stroke-linecap:round;stroke-linejoin:miter;stroke-miterlimit:4;stroke-dasharray:none;stroke-dashoffset:0;stroke-opacity:1"
       d="M 9.40594,20.714742 C 9.3631,20.699472 9.30692,20.667112 9.281036,20.642782 9.211076,20.577052 9.149574,20.416286 9.130981,20.25053 c -0.009,-0.08081 -0.02679,-0.166168 -0.03939,-0.189688 -0.01261,-0.02351 -0.02291,-0.04794 -0.02291,-0.05424 0,-0.0063 0.05696,-0.01157 0.126541,-0.01176 0.06959,-1.58e-4 0.138698,-0.008 0.153564,-0.01745 0.01715,-0.01091 0.03115,-0.07718 0.0383,-0.181901 0.0062,-0.09063 0.01394,-0.164774 0.01721,-0.164774 0.003,0 0.07692,0.02733 0.163678,0.06074 0.08675,0.03339 0.160071,0.06074 0.162932,0.06074 0.003,0 0.03169,-0.05236 0.06409,-0.116409 l 0.05891,-0.116414 0.02351,0.0911 c 0.01291,0.05012 0.03006,0.112264 0.03806,0.138116 l 0.01455,0.04703 0.05333,-0.04194 c 0.02933,-0.02309 0.05872,-0.04194 0.06532,-0.04194 0.0066,0 0.012,0.05878 0.012,0.13068 v 0.130686 l 0.06969,0.01309 c 0.03836,0.0072 0.115942,0.0099 0.172482,0.0061 l 0.102804,-0.0071 -0.01242,0.151842 c -0.0068,0.08351 -0.01582,0.174622 -0.01988,0.202462 -0.0099,0.06681 -0.125663,0.16358 -0.312653,0.261318 -0.255385,0.133486 -0.48716,0.173858 -0.654856,0.114069 z"
       id="path1022"
       inkscape:connector-curvature="0" />
    <path
       style="display:inline;opacity:1;vector-effect:none;fill:#ffb380;fill-opacity:1;stroke:#ffccaa;stroke-width:0.30608171;stroke-linecap:round;stroke-linejoin:miter;stroke-miterlimit:4;stroke-dasharray:none;stroke-dashoffset:0;stroke-opacity:1"
       d="M 6.6819156,46.542367 C 5.945673,46.368914 5.4133108,45.926102 5.2381555,45.341471 c -0.1219173,-0.406906 -6.06e-4,-0.779154 0.3704302,-1.139015 0.2579908,-0.250052 0.3304394,-0.274372 0.9684294,-0.32504 0.7188743,-0.05709 0.9384078,-0.0366 2.4749419,0.230854 1.469407,0.255785 2.398834,0.335645 3.906419,0.335645 2.161016,0 3.516372,-0.215607 5.391012,-0.857566 l 1.077542,-0.369 1.167746,0.02612 c 1.429622,0.032 1.463329,0.05242 1.545188,0.934257 0.102853,1.107987 -0.280231,1.736518 -1.225972,2.011453 -0.405627,0.117923 -0.61221,0.121335 -1.92672,0.03181 -1.013674,-0.06901 -2.334554,-0.08304 -4.239864,-0.04503 -2.755537,0.05496 -3.304353,0.09225 -4.84502,0.329045 -0.870287,0.133759 -2.7200317,0.155188 -3.2203724,0.03733 z"
       id="path1024"
       inkscape:connector-curvature="0" />
    <path
       style="display:inline;opacity:1;vector-effect:none;fill:#ffb380;fill-opacity:1;stroke:#ffb380;stroke-width:0.30608171;stroke-linecap:round;stroke-linejoin:miter;stroke-miterlimit:4;stroke-dasharray:none;stroke-dashoffset:0;stroke-opacity:1"
       d="m 12.007878,24.362279 c -0.389725,-0.154709 -0.486366,-0.381884 -0.478397,-1.124574 0.01388,-1.294488 0.321053,-1.655131 1.409715,-1.655131 0.652982,0 1.098425,0.193257 1.320182,0.572777 0.143867,0.246204 0.142916,0.25564 -0.06755,0.670975 -0.493553,0.973969 -1.614213,1.762122 -2.183954,1.535953 z"
       id="path1026"
       inkscape:connector-curvature="0" />
  </g>
</svg>
