<?xml version="1.0" encoding="UTF-8" standalone="no"?>
<!-- Created with Inkscape (http://www.inkscape.org/) -->

<svg
   xmlns:dc="http://purl.org/dc/elements/1.1/"
   xmlns:cc="http://creativecommons.org/ns#"
   xmlns:rdf="http://www.w3.org/1999/02/22-rdf-syntax-ns#"
   xmlns:svg="http://www.w3.org/2000/svg"
   xmlns="http://www.w3.org/2000/svg"
   xmlns:sodipodi="http://sodipodi.sourceforge.net/DTD/sodipodi-0.dtd"
   xmlns:inkscape="http://www.inkscape.org/namespaces/inkscape"
   version="1.1"
   id="svg988"
   width="400mm"
   height="300mm"
   viewBox="0 0 1511.811 1133.8583"
   sodipodi:docname="8-ich-floppy.svg"
   inkscape:version="0.92.4 (5da689c313, 2019-01-14)">
  <metadata
     id="metadata994">
    <rdf:RDF>
      <cc:Work
         rdf:about="">
        <dc:format>image/svg+xml</dc:format>
        <dc:type
           rdf:resource="http://purl.org/dc/dcmitype/StillImage" />
        <dc:title />
      </cc:Work>
    </rdf:RDF>
  </metadata>
  <defs
     id="defs992" />
  <sodipodi:namedview
     pagecolor="#ffffff"
     bordercolor="#666666"
     borderopacity="1"
     objecttolerance="10"
     gridtolerance="10"
     guidetolerance="10"
     inkscape:pageopacity="0"
     inkscape:pageshadow="2"
     inkscape:window-width="1619"
     inkscape:window-height="1021"
     id="namedview990"
     showgrid="false"
     inkscape:document-units="mm"
     units="mm"
     inkscape:snap-global="true"
     inkscape:zoom="0.5"
     inkscape:cx="330.85194"
     inkscape:cy="532.99707"
     inkscape:window-x="61"
     inkscape:window-y="0"
     inkscape:window-maximized="1"
     inkscape:current-layer="layer2" />
  <g
     inkscape:groupmode="layer"
     id="layer2"
     inkscape:label="cut"
     style="display:inline">
    <path
       inkscape:connector-curvature="0"
       style="opacity:1;vector-effect:none;fill:none;fill-opacity:1;stroke:#000000;stroke-width:0.19145688;stroke-linecap:butt;stroke-linejoin:miter;stroke-miterlimit:4;stroke-dasharray:none;stroke-dashoffset:0;stroke-opacity:1"
       d="M 16.095014,22.70977 V 789.7624 H 338.1219 a 7.6601874,9.5752343 0 0 1 7.55284,-8.0437 7.6601874,9.5752343 0 0 1 7.55878,8.0437 h 89.66028 a 7.6601874,9.5752343 0 0 1 7.55284,-8.0437 7.6601874,9.5752343 0 0 1 7.55878,8.0437 H 783.14765 V 22.70977 Z"
       id="rect2181" />
    <circle
       style="opacity:1;vector-effect:none;fill:none;fill-opacity:1;stroke:#000000;stroke-width:0.19150467;stroke-linecap:butt;stroke-linejoin:miter;stroke-miterlimit:4;stroke-dasharray:none;stroke-dashoffset:0;stroke-opacity:1"
       id="path2275"
       cx="400.77649"
       cy="406.43939"
       r="72.771774" />
  </g>
  <g
     inkscape:groupmode="layer"
     id="layer3"
     inkscape:label="engrave"
     style="display:inline">
    <g
       id="g2438"
       transform="matrix(1.0133789,0,0,1.0133789,16.00001,-359.16981)">
      <circle
         r="15.118111"
         cy="628.91882"
         cx="439.0127"
         id="path2281"
         style="opacity:1;vector-effect:none;fill:#000000;fill-opacity:1;stroke:#000000;stroke-width:0.18897638;stroke-linecap:butt;stroke-linejoin:miter;stroke-miterlimit:4;stroke-dasharray:none;stroke-dashoffset:0;stroke-opacity:1" />
      <path
         id="path2283"
         d="M 377.55859,649.39062 A 105.82677,105.82677 0 0 0 271.73242,755.2168 105.82677,105.82677 0 0 0 377.55859,861.04492 105.82677,105.82677 0 0 0 483.38477,755.2168 105.82677,105.82677 0 0 0 377.55859,649.39062 Z m 2.13672,34.29883 a 71.81102,71.81102 0 0 1 71.81055,71.8125 71.81102,71.81102 0 0 1 -71.81055,71.81055 71.81102,71.81102 0 0 1 -71.81054,-71.81055 71.81102,71.81102 0 0 1 71.81054,-71.8125 z"
         style="opacity:1;vector-effect:none;fill:#000000;fill-opacity:1;stroke:#000000;stroke-width:0.18897638;stroke-linecap:butt;stroke-linejoin:miter;stroke-miterlimit:4;stroke-dasharray:none;stroke-dashoffset:0;stroke-opacity:1"
         inkscape:connector-curvature="0" />
      <rect
         ry="26.456694"
         rx="18.897638"
         y="924.76495"
         x="354.82373"
         height="192.75591"
         width="45.354332"
         id="rect2285"
         style="opacity:1;vector-effect:none;fill:#000000;fill-opacity:1;stroke:#000000;stroke-width:0.18897638;stroke-linecap:butt;stroke-linejoin:miter;stroke-miterlimit:4;stroke-dasharray:none;stroke-dashoffset:0;stroke-opacity:1" />
      <g
         id="g2447"
         style="display:inline">
        <rect
           style="opacity:1;vector-effect:none;fill:none;fill-opacity:1;stroke:#000000;stroke-width:3.77952766;stroke-linecap:butt;stroke-linejoin:miter;stroke-miterlimit:4;stroke-dasharray:none;stroke-dashoffset:0;stroke-opacity:1"
           id="rect2358"
           width="502.67715"
           height="188.97638"
           x="243.95184"
           y="393.51749"
           rx="7.5590553"
           ry="7.5590553" />
        <rect
           style="opacity:1;vector-effect:none;fill:#000000;fill-opacity:1;stroke:#000000;stroke-width:3.77952766;stroke-linecap:butt;stroke-linejoin:miter;stroke-miterlimit:4;stroke-dasharray:none;stroke-dashoffset:0;stroke-opacity:1"
           id="rect2360"
           width="44"
           height="188"
           x="243.95184"
           y="393.51749"
           rx="7.5590601"
           ry="7.5590601" />
        <path
           style="fill:none;fill-rule:evenodd;stroke:#000000;stroke-width:3.77952766;stroke-linecap:butt;stroke-linejoin:miter;stroke-miterlimit:4;stroke-dasharray:none;stroke-opacity:1"
           d="m 303.12322,422.55119 207.14645,-0.56066"
           id="path2368"
           inkscape:connector-curvature="0"
           sodipodi:nodetypes="cc" />
        <path
           style="fill:none;fill-rule:evenodd;stroke:#000000;stroke-width:3.77952766;stroke-linecap:butt;stroke-linejoin:miter;stroke-miterlimit:4;stroke-dasharray:none;stroke-opacity:1"
           d="M 303.12322,452.40946 510.26966,451.8488"
           id="path2368-6"
           inkscape:connector-curvature="0"
           sodipodi:nodetypes="cc" />
        <path
           style="fill:none;fill-rule:evenodd;stroke:#000000;stroke-width:3.77952766;stroke-linecap:butt;stroke-linejoin:miter;stroke-miterlimit:4;stroke-dasharray:none;stroke-opacity:1"
           d="m 303.12322,484.91339 207.14644,-0.56066"
           id="path2368-7"
           inkscape:connector-curvature="0"
           sodipodi:nodetypes="cc" />
        <path
           style="fill:none;fill-rule:evenodd;stroke:#000000;stroke-width:3.77952766;stroke-linecap:butt;stroke-linejoin:miter;stroke-miterlimit:4;stroke-dasharray:none;stroke-opacity:1"
           d="m 303.12322,515.14961 207.14644,-0.56066"
           id="path2368-5"
           inkscape:connector-curvature="0"
           sodipodi:nodetypes="cc" />
        <path
           style="fill:none;fill-rule:evenodd;stroke:#000000;stroke-width:3.77952766;stroke-linecap:butt;stroke-linejoin:miter;stroke-miterlimit:4;stroke-dasharray:none;stroke-opacity:1"
           d="M 303.12322,549.16536 510.26966,548.6047"
           id="path2368-3"
           inkscape:connector-curvature="0"
           sodipodi:nodetypes="cc" />
        <path
           style="fill:none;fill-rule:evenodd;stroke:#000000;stroke-width:3.77952766;stroke-linecap:butt;stroke-linejoin:miter;stroke-miterlimit:4;stroke-dasharray:none;stroke-opacity:1"
           d="m 524.22559,422.55119 207.14644,-0.56066"
           id="path2368-56"
           inkscape:connector-curvature="0"
           sodipodi:nodetypes="cc" />
        <path
           style="fill:none;fill-rule:evenodd;stroke:#000000;stroke-width:3.77952766;stroke-linecap:butt;stroke-linejoin:miter;stroke-miterlimit:4;stroke-dasharray:none;stroke-opacity:1"
           d="M 524.22559,452.40946 731.37203,451.8488"
           id="path2368-2"
           inkscape:connector-curvature="0"
           sodipodi:nodetypes="cc" />
        <path
           style="fill:none;fill-rule:evenodd;stroke:#000000;stroke-width:3.77952766;stroke-linecap:butt;stroke-linejoin:miter;stroke-miterlimit:4;stroke-dasharray:none;stroke-opacity:1"
           d="m 524.22559,484.91339 207.14644,-0.56066"
           id="path2368-9"
           inkscape:connector-curvature="0"
           sodipodi:nodetypes="cc" />
        <path
           style="fill:none;fill-rule:evenodd;stroke:#000000;stroke-width:3.77952766;stroke-linecap:butt;stroke-linejoin:miter;stroke-miterlimit:4;stroke-dasharray:none;stroke-opacity:1"
           d="m 524.22559,515.14961 207.14644,-0.56066"
           id="path2368-1"
           inkscape:connector-curvature="0"
           sodipodi:nodetypes="cc" />
        <path
           style="fill:none;fill-rule:evenodd;stroke:#000000;stroke-width:3.77952766;stroke-linecap:butt;stroke-linejoin:miter;stroke-miterlimit:4;stroke-dasharray:none;stroke-opacity:1"
           d="M 524.22559,549.16536 731.37203,548.6047"
           id="path2368-27"
           inkscape:connector-curvature="0"
           sodipodi:nodetypes="cc" />
      </g>
      <g
         id="g2745">
        <g
           id="g2685">
          <g
             id="g2629">
            <rect
               style="opacity:1;vector-effect:none;fill:none;fill-opacity:1;stroke:#000000;stroke-width:3.77952766;stroke-linecap:butt;stroke-linejoin:miter;stroke-miterlimit:4;stroke-dasharray:none;stroke-dashoffset:0;stroke-opacity:1"
               id="rect2481"
               width="189.50462"
               height="186.67619"
               x="17.67767"
               y="399.17432"
               rx="7.5590553"
               ry="7.5590553" />
            <g
               aria-label="Record Length 256 Bytes"
               transform="translate(7,7)"
               style="font-style:normal;font-variant:normal;font-weight:normal;font-stretch:normal;font-size:10.66666698px;line-height:125%;font-family:Arial;-inkscape-font-specification:Arial;letter-spacing:0px;word-spacing:0px;fill:#000000;fill-opacity:1;stroke:none;stroke-width:1px;stroke-linecap:butt;stroke-linejoin:miter;stroke-opacity:1"
               id="flowRoot2483">
              <path
                 inkscape:connector-curvature="0"
                 d="m 32.335938,418.06849 -2.621094,-4.18946 h -3.14388 v 4.18946 h -1.367839 v -10.0905 h 4.748047 q 0.859375,0 1.518229,0.20052 0.666016,0.19336 1.117188,0.56576 0.451172,0.37239 0.6875,0.9095 0.236328,0.53711 0.236328,1.21029 0,0.47982 -0.143229,0.94531 -0.136068,0.4655 -0.436849,0.85222 -0.300782,0.38671 -0.766276,0.66601 -0.465495,0.2793 -1.117188,0.39388 l 2.864584,4.34701 z m -0.200521,-7.19011 q 0,-0.45833 -0.157552,-0.79492 -0.157552,-0.33659 -0.458334,-0.55859 -0.300781,-0.22917 -0.730468,-0.33659 -0.429688,-0.11458 -0.973959,-0.11458 h -3.24414 v 3.72395 h 3.301432 q 0.58724,0 1.016927,-0.14323 0.429688,-0.15039 0.701823,-0.4082 0.279297,-0.25781 0.408203,-0.60872 0.136068,-0.35091 0.136068,-0.75912 z"
                 style="font-size:14.66666698px"
                 id="path2495" />
              <path
                 inkscape:connector-curvature="0"
                 d="m 36.575522,414.46627 q 0,0.60873 0.121744,1.12435 0.128907,0.50847 0.386719,0.88086 0.264974,0.36524 0.673177,0.57292 0.408203,0.20052 0.98112,0.20052 0.837891,0 1.339193,-0.33659 0.508463,-0.33659 0.6875,-0.85221 l 1.13151,0.32226 q -0.121745,0.32227 -0.34375,0.6517 -0.214844,0.32226 -0.580078,0.58724 -0.365234,0.25781 -0.916667,0.42968 -0.544271,0.16472 -1.317708,0.16472 -1.71875,0 -2.621094,-1.02409 -0.895182,-1.02409 -0.895182,-3.04362 0,-1.08854 0.272135,-1.8405 0.272136,-0.75911 0.744792,-1.23177 0.472656,-0.47265 1.102865,-0.68034 0.630208,-0.21484 1.346354,-0.21484 0.973958,0 1.625651,0.3151 0.658854,0.31511 1.052734,0.8737 0.401042,0.55143 0.565755,1.30339 0.171875,0.75195 0.171875,1.62565 v 0.17187 z m 4.196614,-0.98828 q -0.107422,-1.22461 -0.623047,-1.7832 -0.515625,-0.56576 -1.482422,-0.56576 -0.322265,0 -0.680338,0.10743 -0.350912,0.10026 -0.651693,0.36523 -0.300781,0.26497 -0.508463,0.72331 -0.207683,0.45117 -0.236329,1.15299 z"
                 style="font-size:14.66666698px"
                 id="path2497" />
              <path
                 inkscape:connector-curvature="0"
                 d="m 44.732423,414.15833 q 0,0.66602 0.0931,1.22461 0.10026,0.55859 0.329427,0.9668 0.229166,0.40104 0.601562,0.62304 0.379557,0.22201 0.93099,0.22201 0.6875,0 1.145833,-0.3724 0.465495,-0.37239 0.572917,-1.14583 l 1.303385,0.0859 q -0.06445,0.47982 -0.279297,0.92383 -0.214843,0.44401 -0.587239,0.78059 -0.365235,0.33659 -0.895183,0.54428 -0.529948,0.20052 -1.224609,0.20052 -0.909505,0 -1.546875,-0.30795 -0.63737,-0.30794 -1.038412,-0.84505 -0.39388,-0.54427 -0.572916,-1.27474 -0.179037,-0.73763 -0.179037,-1.597 0,-0.7806 0.128907,-1.375 0.128906,-0.60157 0.358073,-1.04558 0.236328,-0.45117 0.551432,-0.75195 0.315104,-0.30794 0.680338,-0.48698 0.372396,-0.1862 0.780599,-0.26497 0.408204,-0.0859 0.823568,-0.0859 0.651693,0 1.160156,0.17904 0.508464,0.17903 0.873698,0.49414 0.372396,0.30794 0.601563,0.73047 0.229166,0.42252 0.322265,0.9095 l -1.324869,0.10026 q -0.100261,-0.64453 -0.508464,-1.02409 -0.408203,-0.37955 -1.160156,-0.37955 -0.551432,0 -0.923828,0.18619 -0.365235,0.17904 -0.594401,0.55144 -0.229167,0.36523 -0.329427,0.92382 -0.0931,0.5586 -0.0931,1.31055 z"
                 style="font-size:14.66666698px"
                 id="path2499" />
              <path
                 inkscape:connector-curvature="0"
                 d="m 57.637371,414.18698 q 0,2.03385 -0.895182,3.02929 -0.895182,0.99545 -2.59961,0.99545 -0.809244,0 -1.446614,-0.24349 -0.63737,-0.24349 -1.08138,-0.74479 -0.436849,-0.50131 -0.673177,-1.25326 -0.229167,-0.75911 -0.229167,-1.7832 0,-4.01042 3.473307,-4.01042 0.902344,0 1.554037,0.25065 0.658854,0.25065 1.074219,0.75195 0.422526,0.50131 0.623046,1.25326 0.200521,0.75195 0.200521,1.75456 z m -1.353515,0 q 0,-0.90235 -0.14323,-1.48959 -0.136067,-0.58724 -0.408203,-0.93815 -0.264974,-0.35091 -0.651692,-0.48698 -0.386719,-0.14323 -0.873698,-0.14323 -0.494141,0 -0.895183,0.15039 -0.39388,0.14323 -0.673177,0.50131 -0.279297,0.35091 -0.429687,0.93815 -0.143229,0.58724 -0.143229,1.4681 0,0.90234 0.157552,1.49674 0.157552,0.58724 0.429687,0.93815 0.279297,0.35091 0.651693,0.49414 0.379557,0.14323 0.823568,0.14323 0.49414,0 0.895182,-0.13607 0.401042,-0.14322 0.680338,-0.49414 0.279297,-0.35091 0.429688,-0.94531 0.150391,-0.5944 0.150391,-1.49674 z"
                 style="font-size:14.66666698px"
                 id="path2501" />
              <path
                 inkscape:connector-curvature="0"
                 d="m 59.277345,418.06849 v -5.94401 q 0,-0.24349 -0.0072,-0.49414 0,-0.25782 -0.0072,-0.49414 -0.0072,-0.23633 -0.01432,-0.44402 -0.0072,-0.20768 -0.01432,-0.37239 h 1.217448 q 0.0072,0.16471 0.01432,0.37956 0.01432,0.20768 0.02148,0.42968 0.01432,0.22201 0.01432,0.42969 0.0072,0.20052 0.0072,0.34375 h 0.02865 q 0.136067,-0.44401 0.286458,-0.76627 0.157552,-0.32943 0.365234,-0.53711 0.207683,-0.21485 0.494141,-0.31511 0.286458,-0.10742 0.694662,-0.10742 0.157552,0 0.300781,0.0287 0.143229,0.0215 0.222005,0.043 v 1.18165 q -0.128906,-0.0358 -0.300781,-0.0501 -0.171875,-0.0215 -0.386719,-0.0215 -0.44401,0 -0.759115,0.20052 -0.307942,0.20052 -0.508463,0.5586 -0.19336,0.35091 -0.286458,0.84505 -0.0931,0.48698 -0.0931,1.06705 v 4.03907 z"
                 style="font-size:14.66666698px"
                 id="path2503" />
              <path
                 inkscape:connector-curvature="0"
                 d="m 69.038413,416.82239 q -0.358073,0.7448 -0.952474,1.06706 -0.58724,0.32227 -1.460938,0.32227 -1.468099,0 -2.16276,-0.98828 -0.6875,-0.98829 -0.6875,-2.99349 0,-4.05339 2.85026,-4.05339 0.88086,0 1.468099,0.32227 0.58724,0.32226 0.945313,1.02408 h 0.01432 q 0,-0.0716 -0.0072,-0.222 0,-0.15755 -0.0072,-0.32227 0,-0.17187 0,-0.32226 0,-0.15039 0,-0.21485 v -3.00065 h 1.289062 v 9.0306 q 0,0.2793 0,0.53711 0.0072,0.25781 0.01432,0.47266 0.0072,0.21484 0.01432,0.37239 0.0072,0.15039 0.01432,0.21485 h -1.231771 q -0.01432,-0.0716 -0.02865,-0.20052 -0.0072,-0.13607 -0.02148,-0.30795 -0.0072,-0.17187 -0.01432,-0.35807 -0.0072,-0.19336 -0.0072,-0.37956 z m -3.910156,-2.63541 q 0,0.80208 0.10026,1.375 0.10026,0.57291 0.322266,0.94531 0.222005,0.36523 0.565755,0.53711 0.34375,0.17187 0.83789,0.17187 0.508464,0 0.895183,-0.16471 0.39388,-0.16471 0.651692,-0.52995 0.264974,-0.37239 0.401042,-0.96679 0.136068,-0.59441 0.136068,-1.45378 0,-0.82357 -0.136068,-1.38932 -0.136068,-0.57292 -0.401042,-0.92383 -0.264973,-0.35091 -0.651692,-0.5013 -0.379558,-0.15756 -0.88086,-0.15756 -0.472656,0 -0.816406,0.16472 -0.34375,0.16471 -0.572917,0.52995 -0.229166,0.36523 -0.34375,0.95247 -0.107421,0.58008 -0.107421,1.41081 z"
                 style="font-size:14.66666698px"
                 id="path2505" />
              <path
                 inkscape:connector-curvature="0"
                 d="m 76.59375,418.06849 v -10.0905 h 1.367839 v 8.97331 h 5.098958 v 1.11719 z"
                 style="font-size:14.66666698px"
                 id="path2507" />
              <path
                 inkscape:connector-curvature="0"
                 d="m 85.53125,414.46627 q 0,0.60873 0.121745,1.12435 0.128906,0.50847 0.386719,0.88086 0.264974,0.36524 0.673177,0.57292 0.408203,0.20052 0.98112,0.20052 0.83789,0 1.339192,-0.33659 0.508464,-0.33659 0.6875,-0.85221 l 1.131511,0.32226 q -0.121745,0.32227 -0.34375,0.6517 -0.214844,0.32226 -0.580078,0.58724 -0.365235,0.25781 -0.916667,0.42968 -0.544271,0.16472 -1.317708,0.16472 -1.718751,0 -2.621094,-1.02409 -0.895183,-1.02409 -0.895183,-3.04362 0,-1.08854 0.272136,-1.8405 0.272135,-0.75911 0.744791,-1.23177 0.472657,-0.47265 1.102865,-0.68034 0.630208,-0.21484 1.346354,-0.21484 0.973959,0 1.625651,0.3151 0.658855,0.31511 1.052735,0.8737 0.401041,0.55143 0.565755,1.30339 0.171875,0.75195 0.171875,1.62565 v 0.17187 z m 4.196615,-0.98828 q -0.107422,-1.22461 -0.623047,-1.7832 -0.515625,-0.56576 -1.482422,-0.56576 -0.322266,0 -0.680339,0.10743 -0.350911,0.10026 -0.651692,0.36523 -0.300782,0.26497 -0.508464,0.72331 -0.207682,0.45117 -0.236328,1.15299 z"
                 style="font-size:14.66666698px"
                 id="path2509" />
              <path
                 inkscape:connector-curvature="0"
                 d="m 97.626953,418.06849 v -4.91276 q 0,-0.56576 -0.08594,-0.94532 -0.07878,-0.37955 -0.264974,-0.60872 -0.186198,-0.23633 -0.494141,-0.32943 -0.300781,-0.10026 -0.751953,-0.10026 -0.458333,0 -0.830729,0.16472 -0.365235,0.15755 -0.630209,0.46549 -0.257812,0.30078 -0.401041,0.75195 -0.143229,0.44401 -0.143229,1.02409 v 4.49024 h -1.289063 v -6.0944 q 0,-0.24349 -0.0072,-0.50847 0,-0.27213 -0.0072,-0.50846 -0.0072,-0.24349 -0.01432,-0.41537 -0.0072,-0.17187 -0.01432,-0.222 h 1.217448 q 0.0072,0.0358 0.01432,0.19336 0.0072,0.15755 0.01432,0.36523 0.01432,0.20052 0.02148,0.41537 0.0072,0.20768 0.0072,0.35091 h 0.02148 q 0.186198,-0.33659 0.408203,-0.60873 0.222006,-0.27213 0.515625,-0.45833 0.29362,-0.19336 0.673178,-0.29362 0.379557,-0.10742 0.880859,-0.10742 0.644531,0 1.110026,0.15755 0.465495,0.15755 0.766276,0.48698 0.300781,0.32943 0.436849,0.85221 0.143229,0.51563 0.143229,1.23178 v 5.16341 z"
                 style="font-size:14.66666698px"
                 id="path2511" />
              <path
                 inkscape:connector-curvature="0"
                 d="m 103.80729,421.11211 q -0.66601,0 -1.18164,-0.13607 -0.51562,-0.13607 -0.88086,-0.39388 -0.36523,-0.25065 -0.5944,-0.60156 -0.22917,-0.35091 -0.32943,-0.7806 l 1.29623,-0.1862 q 0.1289,0.53711 0.56575,0.82357 0.44401,0.29362 1.16016,0.29362 0.43685,0 0.79492,-0.12175 0.35807,-0.12174 0.60872,-0.39388 0.25066,-0.26497 0.38672,-0.69466 0.13607,-0.42969 0.13607,-1.04557 v -1.2461 h -0.0143 q -0.14323,0.29362 -0.35807,0.56576 -0.20769,0.26497 -0.51563,0.47266 -0.30078,0.20768 -0.70182,0.33658 -0.40104,0.12175 -0.91667,0.12175 -0.73763,0 -1.26758,-0.24349 -0.52278,-0.25065 -0.85937,-0.74479 -0.32943,-0.49414 -0.48698,-1.22461 -0.15039,-0.73763 -0.15039,-1.70443 0,-0.93099 0.15039,-1.67578 0.15755,-0.74479 0.5013,-1.26042 0.35091,-0.52278 0.90234,-0.79492 0.5586,-0.2793 1.35352,-0.2793 0.82357,0 1.42513,0.37956 0.60872,0.3724 0.93815,1.06706 h 0.0143 q 0,-0.17904 0.007,-0.40104 0.0143,-0.22201 0.0215,-0.41537 0.0143,-0.20052 0.0286,-0.34375 0.0143,-0.14323 0.0286,-0.16471 h 1.22461 q -0.007,0.0644 -0.0143,0.222 -0.007,0.15039 -0.0143,0.36524 -0.007,0.21484 -0.0143,0.47982 0,0.25781 0,0.53711 v 5.92252 q 0,1.62565 -0.80208,2.44206 -0.79492,0.82357 -2.44206,0.82357 z m 1.96224,-6.91797 q 0,-0.80925 -0.17904,-1.38216 -0.17187,-0.58008 -0.45833,-0.94532 -0.28646,-0.36523 -0.65885,-0.53711 -0.36524,-0.17187 -0.75196,-0.17187 -0.49414,0 -0.85221,0.17187 -0.35091,0.17188 -0.58724,0.54428 -0.22917,0.36523 -0.34375,0.94531 -0.10742,0.57291 -0.10742,1.375 0,0.83789 0.10742,1.41081 0.11458,0.56575 0.34375,0.91666 0.22917,0.35091 0.58008,0.5013 0.35091,0.15039 0.83789,0.15039 0.38672,0 0.75195,-0.16471 0.3724,-0.16471 0.66602,-0.52279 0.29362,-0.35807 0.47265,-0.92382 0.17904,-0.56576 0.17904,-1.36784 z"
                 style="font-size:14.66666698px"
                 id="path2513" />
              <path
                 inkscape:connector-curvature="0"
                 d="m 112.01432,418.0112 q -0.29362,0.0788 -0.60156,0.12174 -0.30078,0.0501 -0.70182,0.0501 -1.54688,0 -1.54688,-1.75456 v -5.17057 h -0.89518 v -0.93815 h 0.94531 l 0.37956,-1.73307 h 0.85938 v 1.73307 h 1.43229 v 0.93815 h -1.43229 v 4.89128 q 0,0.55859 0.17903,0.78776 0.1862,0.222 0.63737,0.222 0.1862,0 0.35807,-0.0286 0.17904,-0.0286 0.38672,-0.0716 z"
                 style="font-size:14.66666698px"
                 id="path2515" />
              <path
                 inkscape:connector-curvature="0"
                 d="m 114.38477,411.64466 q 0.21484,-0.39388 0.46549,-0.66602 0.25065,-0.27929 0.55144,-0.45833 0.30078,-0.17904 0.65885,-0.25781 0.35807,-0.0859 0.80208,-0.0859 0.74479,0 1.21745,0.20052 0.47982,0.20052 0.75195,0.56576 0.2793,0.35807 0.37956,0.85937 0.10742,0.5013 0.10742,1.10287 v 5.16341 h -1.29622 v -4.91276 q 0,-0.49414 -0.0644,-0.86654 -0.0573,-0.3724 -0.22917,-0.61589 -0.17188,-0.25065 -0.48698,-0.37239 -0.3151,-0.12891 -0.81641,-0.12891 -0.45833,0 -0.83073,0.16472 -0.36523,0.16471 -0.6302,0.46549 -0.25782,0.30078 -0.40105,0.73047 -0.14322,0.42969 -0.14322,0.9668 v 4.56901 h -1.28907 v -10.62761 h 1.28907 v 2.76433 q 0,0.23632 -0.007,0.47265 -0.007,0.23633 -0.0215,0.43685 -0.007,0.20052 -0.0143,0.34375 -0.007,0.13607 -0.0143,0.1862 z"
                 style="font-size:14.66666698px"
                 id="path2517" />
              <path
                 inkscape:connector-curvature="0"
                 d="m 125.08399,418.06849 v -0.90951 q 0.36523,-0.83789 0.88802,-1.47526 0.52995,-0.64453 1.11003,-1.16015 0.58007,-0.52279 1.14583,-0.9668 0.57292,-0.44401 1.03125,-0.88802 0.45833,-0.44401 0.73763,-0.93099 0.28646,-0.48698 0.28646,-1.10287 0,-0.42968 -0.12891,-0.75195 -0.1289,-0.32943 -0.37239,-0.55143 -0.24349,-0.22201 -0.58724,-0.32943 -0.33659,-0.11458 -0.75196,-0.11458 -0.38672,0 -0.73047,0.10742 -0.33658,0.10742 -0.60156,0.32226 -0.26497,0.21485 -0.43685,0.53711 -0.16471,0.31511 -0.21484,0.73763 l -1.31771,-0.12174 q 0.0645,-0.54427 0.30078,-1.02409 0.23633,-0.47982 0.6517,-0.83789 0.41536,-0.36523 0.99544,-0.57292 0.58724,-0.20768 1.35351,-0.20768 0.75196,0 1.3392,0.17904 0.58724,0.17903 0.98828,0.52995 0.4082,0.35091 0.62304,0.86653 0.21485,0.51563 0.21485,1.1888 0,0.50847 -0.1862,0.9668 -0.17904,0.45833 -0.48698,0.8737 -0.30078,0.41536 -0.70182,0.80208 -0.40104,0.38672 -0.83789,0.75912 -0.43685,0.36523 -0.88086,0.73047 -0.44401,0.35807 -0.83789,0.7233 -0.38672,0.36524 -0.69466,0.7448 -0.30795,0.37239 -0.47982,0.78059 h 5.26367 v 1.09571 z"
                 style="font-size:14.66666698px"
                 id="path2519" />
              <path
                 inkscape:connector-curvature="0"
                 d="m 140.05144,414.78138 q 0,0.75911 -0.22917,1.38932 -0.22917,0.63021 -0.68034,1.08854 -0.45117,0.45117 -1.12435,0.70183 -0.66601,0.25065 -1.54687,0.25065 -0.79492,0 -1.38932,-0.1862 -0.58724,-0.1862 -0.99545,-0.50847 -0.4082,-0.32942 -0.65169,-0.76627 -0.23633,-0.43685 -0.33659,-0.93815 l 1.30339,-0.15039 q 0.0788,0.28646 0.222,0.55859 0.14323,0.26497 0.38672,0.47982 0.25065,0.20768 0.60872,0.33659 0.36524,0.12174 0.88086,0.12174 0.50131,0 0.90951,-0.15039 0.4082,-0.15755 0.69466,-0.45833 0.29362,-0.30078 0.45117,-0.73763 0.15755,-0.43685 0.15755,-1.00261 0,-0.46549 -0.15039,-0.85221 -0.15039,-0.39388 -0.42968,-0.67318 -0.2793,-0.28646 -0.6875,-0.44401 -0.40105,-0.15755 -0.91667,-0.15755 -0.32227,0 -0.5944,0.0573 -0.27214,0.0573 -0.50846,0.15755 -0.22917,0.10026 -0.42253,0.23633 -0.1862,0.12891 -0.35091,0.27214 h -1.26042 l 0.33659,-5.42839 h 5.73633 v 1.09571 h -4.56185 l -0.19336,3.20117 q 0.34375,-0.26498 0.85937,-0.45117 0.51563,-0.19336 1.22461,-0.19336 0.75196,0 1.35352,0.22916 0.60156,0.22917 1.02409,0.6517 0.42252,0.41536 0.65169,0.99544 0.22917,0.58008 0.22917,1.27474 z"
                 style="font-size:14.66666698px"
                 id="path2521" />
              <path
                 inkscape:connector-curvature="0"
                 d="m 148.18685,414.76705 q 0,0.75912 -0.21484,1.39649 -0.20768,0.63021 -0.62305,1.08854 -0.4082,0.45117 -1.01692,0.70899 -0.60873,0.25065 -1.40365,0.25065 -0.88086,0 -1.53971,-0.33659 -0.65886,-0.33659 -1.09571,-0.9668 -0.43685,-0.63737 -0.65885,-1.55404 -0.21484,-0.92382 -0.21484,-2.0983 0,-1.34636 0.24349,-2.36328 0.25065,-1.01693 0.71614,-1.69727 0.4655,-0.68034 1.13151,-1.02409 0.67318,-0.34375 1.51823,-0.34375 0.51563,0 0.9668,0.10742 0.45117,0.10743 0.8164,0.35091 0.3724,0.23633 0.6517,0.63021 0.27929,0.39388 0.44401,0.9668 l -1.23177,0.22201 q -0.20052,-0.6517 -0.64453,-0.93816 -0.43685,-0.29362 -1.01693,-0.29362 -0.52995,0 -0.95964,0.25066 -0.42968,0.25065 -0.73047,0.75195 -0.30078,0.49414 -0.46549,1.24609 -0.15755,0.75196 -0.15755,1.75456 0.35091,-0.65169 0.98828,-0.98828 0.63737,-0.34375 1.46094,-0.34375 0.6875,0 1.24609,0.222 0.55859,0.22201 0.95247,0.64453 0.40105,0.41537 0.61589,1.01693 0.222,0.5944 0.222,1.33919 z m -1.31054,0.0573 q 0,-0.52279 -0.12891,-0.94532 -0.12891,-0.42252 -0.38672,-0.71614 -0.25781,-0.30078 -0.63737,-0.45834 -0.37955,-0.16471 -0.88086,-0.16471 -0.35091,0 -0.70898,0.10742 -0.35807,0.10026 -0.65169,0.33659 -0.28646,0.22917 -0.47266,0.60873 -0.17904,0.37955 -0.17904,0.92382 0,0.5586 0.14323,1.04558 0.14323,0.47981 0.40821,0.83789 0.27213,0.35807 0.65169,0.56575 0.37956,0.20768 0.85221,0.20768 0.4655,0 0.83073,-0.15755 0.3724,-0.16471 0.63021,-0.46549 0.25781,-0.30794 0.39388,-0.74479 0.13607,-0.43685 0.13607,-0.98112 z"
                 style="font-size:14.66666698px"
                 id="path2523" />
              <path
                 inkscape:connector-curvature="0"
                 d="m 161.91536,415.22539 q 0,0.76627 -0.30078,1.31055 -0.30078,0.5371 -0.80924,0.88085 -0.50846,0.33659 -1.18164,0.49415 -0.67318,0.15755 -1.41797,0.15755 h -4.09635 v -10.0905 h 3.66666 q 0.83789,0 1.49675,0.14323 0.65885,0.13607 1.11718,0.43685 0.45834,0.30078 0.69467,0.76628 0.24349,0.45833 0.24349,1.10286 0,0.42253 -0.12175,0.79492 -0.11458,0.3724 -0.35807,0.68034 -0.23633,0.30078 -0.60157,0.52279 -0.35807,0.21484 -0.83789,0.32226 0.60873,0.0716 1.07422,0.2793 0.47266,0.20768 0.78776,0.52995 0.31511,0.32226 0.47982,0.75195 0.16471,0.42253 0.16471,0.91667 z m -1.96223,-4.63347 q 0,-0.8164 -0.5586,-1.16731 -0.55859,-0.35091 -1.61849,-0.35091 h -2.29883 v 3.19401 h 2.29883 q 0.60156,0 1.01693,-0.11459 0.41536,-0.12174 0.67318,-0.33659 0.25781,-0.222 0.37239,-0.52994 0.11459,-0.30795 0.11459,-0.69467 z m 0.58007,4.52605 q 0,-0.47982 -0.17903,-0.81641 -0.17188,-0.33659 -0.50131,-0.55143 -0.32942,-0.21485 -0.79492,-0.31511 -0.45833,-0.10026 -1.03125,-0.10026 h -2.54948 v 3.63802 h 2.6569 q 0.52279,0 0.95964,-0.0859 0.44401,-0.0859 0.75911,-0.30078 0.32227,-0.21485 0.50131,-0.57292 0.17903,-0.35807 0.17903,-0.89518 z"
                 style="font-size:14.66666698px"
                 id="path2525" />
              <path
                 inkscape:connector-curvature="0"
                 d="m 167.02865,418.06849 q -0.27214,0.70182 -0.5586,1.26041 -0.27929,0.56576 -0.63021,0.95964 -0.35091,0.40104 -0.7806,0.60872 -0.42968,0.21485 -0.98828,0.21485 -0.24349,0 -0.45117,-0.0143 -0.20768,-0.0143 -0.43685,-0.0645 v -0.9668 q 0.13607,0.0215 0.30795,0.0287 0.17187,0.0143 0.29362,0.0143 0.56575,0 1.05273,-0.42252 0.48698,-0.42253 0.85221,-1.34636 l 0.12175,-0.30794 -3.07227,-7.71289 h 1.375 l 1.63281,4.28255 q 0.0716,0.19336 0.17904,0.51563 0.11458,0.32226 0.22201,0.64453 0.11458,0.32226 0.20052,0.58008 0.0859,0.25781 0.10026,0.32226 0.0215,-0.0788 0.10026,-0.30794 0.0859,-0.23633 0.1862,-0.52279 0.10742,-0.28646 0.21484,-0.58008 0.10742,-0.29362 0.17904,-0.50846 l 1.51823,-4.42578 h 1.36067 z"
                 style="font-size:14.66666698px"
                 id="path2527" />
              <path
                 inkscape:connector-curvature="0"
                 d="m 174.0039,418.0112 q -0.29362,0.0788 -0.60156,0.12174 -0.30078,0.0501 -0.70182,0.0501 -1.54688,0 -1.54688,-1.75456 v -5.17057 h -0.89518 v -0.93815 h 0.94531 l 0.37956,-1.73307 h 0.85937 v 1.73307 h 1.43229 v 0.93815 h -1.43229 v 4.89128 q 0,0.55859 0.17904,0.78776 0.1862,0.222 0.63737,0.222 0.1862,0 0.35807,-0.0286 0.17904,-0.0286 0.38672,-0.0716 z"
                 style="font-size:14.66666698px"
                 id="path2529" />
              <path
                 inkscape:connector-curvature="0"
                 d="m 176.08073,414.46627 q 0,0.60873 0.12175,1.12435 0.12891,0.50847 0.38672,0.88086 0.26497,0.36524 0.67317,0.57292 0.40821,0.20052 0.98112,0.20052 0.8379,0 1.3392,-0.33659 0.50846,-0.33659 0.6875,-0.85221 l 1.13151,0.32226 q -0.12175,0.32227 -0.34375,0.6517 -0.21485,0.32226 -0.58008,0.58724 -0.36523,0.25781 -0.91667,0.42968 -0.54427,0.16472 -1.31771,0.16472 -1.71875,0 -2.62109,-1.02409 -0.89518,-1.02409 -0.89518,-3.04362 0,-1.08854 0.27213,-1.8405 0.27214,-0.75911 0.7448,-1.23177 0.47265,-0.47265 1.10286,-0.68034 0.63021,-0.21484 1.34635,-0.21484 0.97396,0 1.62566,0.3151 0.65885,0.31511 1.05273,0.8737 0.40104,0.55143 0.56576,1.30339 0.17187,0.75195 0.17187,1.62565 v 0.17187 z m 4.19662,-0.98828 q -0.10742,-1.22461 -0.62305,-1.7832 -0.51562,-0.56576 -1.48242,-0.56576 -0.32227,0 -0.68034,0.10743 -0.35091,0.10026 -0.65169,0.36523 -0.30078,0.26497 -0.50846,0.72331 -0.20769,0.45117 -0.23633,1.15299 z"
                 style="font-size:14.66666698px"
                 id="path2531" />
              <path
                 inkscape:connector-curvature="0"
                 d="m 189.07162,415.92721 q 0,0.54427 -0.21484,0.97396 -0.20769,0.42253 -0.60873,0.71615 -0.40104,0.28645 -0.98828,0.44401 -0.58008,0.15039 -1.33203,0.15039 -0.67318,0 -1.21745,-0.10743 -0.53711,-0.10026 -0.94531,-0.32942 -0.4082,-0.22917 -0.6875,-0.60157 -0.27214,-0.37955 -0.40104,-0.92382 l 1.13867,-0.22201 q 0.16471,0.62305 0.68034,0.91667 0.51562,0.28646 1.43229,0.28646 0.41536,0 0.75911,-0.0573 0.35092,-0.0573 0.60157,-0.19335 0.25065,-0.14323 0.38672,-0.3724 0.14322,-0.23633 0.14322,-0.58008 0,-0.35091 -0.16471,-0.57292 -0.16471,-0.22916 -0.45833,-0.37955 -0.29362,-0.15039 -0.71615,-0.25781 -0.41536,-0.11459 -0.91666,-0.25066 -0.4655,-0.12174 -0.92383,-0.27213 -0.45834,-0.15039 -0.83073,-0.39388 -0.36524,-0.25065 -0.5944,-0.61589 -0.22917,-0.36523 -0.22917,-0.91666 0,-1.0599 0.75195,-1.61133 0.75912,-0.5586 2.20573,-0.5586 1.2819,0 2.03386,0.45118 0.75911,0.45117 0.95963,1.44661 l -1.16015,0.14323 q -0.0645,-0.30078 -0.23633,-0.5013 -0.17188,-0.20768 -0.41537,-0.32943 -0.24349,-0.12891 -0.55143,-0.17904 -0.30078,-0.0573 -0.63021,-0.0573 -0.8737,0 -1.28906,0.26498 -0.41536,0.26497 -0.41536,0.80208 0,0.3151 0.15039,0.52279 0.15755,0.20052 0.42968,0.34375 0.2793,0.13606 0.66602,0.24349 0.38672,0.10026 0.85221,0.21484 0.30795,0.0788 0.63021,0.17187 0.32227,0.0859 0.62305,0.21485 0.30794,0.12174 0.57291,0.29362 0.27214,0.16471 0.47266,0.40104 0.20052,0.23633 0.31511,0.55143 0.12174,0.31511 0.12174,0.73047 z"
                 style="font-size:14.66666698px"
                 id="path2533" />
            </g>
            <g
               aria-label="DISK NO."
               transform="translate(4.5,4)"
               style="font-style:normal;font-variant:normal;font-weight:normal;font-stretch:normal;font-size:10.66666698px;line-height:125%;font-family:Arial;-inkscape-font-specification:Arial;letter-spacing:0px;word-spacing:0px;fill:#000000;fill-opacity:1;stroke:none;stroke-width:1px;stroke-linecap:butt;stroke-linejoin:miter;stroke-opacity:1"
               id="flowRoot2536">
              <path
                 inkscape:connector-curvature="0"
                 d="m 36.289062,434.81897 q 0,1.375 -0.414062,2.42969 -0.414063,1.04687 -1.132813,1.75781 -0.71875,0.70313 -1.703125,1.07031 -0.976562,0.35938 -2.109375,0.35938 H 26.8125 v -11.00781 h 3.640625 q 1.273437,0 2.34375,0.32031 1.078125,0.3125 1.851562,0.97656 0.773438,0.65625 1.203125,1.67188 0.4375,1.01562 0.4375,2.42187 z m -1.5,0 q 0,-1.11719 -0.320312,-1.90625 -0.320313,-0.79687 -0.898438,-1.30469 -0.578125,-0.50781 -1.382812,-0.74218 -0.804688,-0.24219 -1.765625,-0.24219 h -2.117188 v 8.61719 h 2.453125 q 0.867188,0 1.601563,-0.28125 0.742187,-0.28125 1.28125,-0.83594 0.539062,-0.55469 0.84375,-1.38281 0.304687,-0.82813 0.304687,-1.92188 z"
                 style="font-size:16px"
                 id="path2544" />
              <path
                 inkscape:connector-curvature="0"
                 d="m 38.539062,440.43616 v -11.00781 h 1.492188 v 11.00781 z"
                 style="font-size:16px"
                 id="path2546" />
              <path
                 inkscape:connector-curvature="0"
                 d="m 51.4375,437.3971 q 0,0.69531 -0.273438,1.28125 -0.265625,0.58593 -0.828125,1.01562 -0.5625,0.42188 -1.421875,0.66406 -0.851562,0.23438 -2.023437,0.23438 -2.054688,0 -3.203125,-0.71875 -1.148438,-0.71875 -1.460938,-2.07813 l 1.445313,-0.28906 q 0.109375,0.42969 0.335937,0.78125 0.226563,0.35156 0.609375,0.60938 0.390625,0.25 0.960938,0.39062 0.570312,0.14063 1.367187,0.14063 0.664063,0 1.21875,-0.10938 0.554688,-0.11719 0.953125,-0.35156 0.398438,-0.23438 0.617188,-0.60156 0.226562,-0.375 0.226562,-0.89063 0,-0.53906 -0.25,-0.875 -0.242187,-0.33594 -0.6875,-0.55469 -0.445312,-0.21875 -1.0625,-0.36718 -0.617187,-0.14844 -1.367187,-0.32032 -0.460938,-0.10156 -0.929688,-0.21875 -0.460937,-0.125 -0.890625,-0.28906 -0.421875,-0.17187 -0.796875,-0.39844 -0.375,-0.22656 -0.648437,-0.53906 -0.273438,-0.32031 -0.429688,-0.73437 -0.15625,-0.42188 -0.15625,-0.96875 0,-0.78125 0.3125,-1.33594 0.320313,-0.5625 0.882813,-0.92188 0.5625,-0.35937 1.328125,-0.52343 0.765625,-0.16407 1.65625,-0.16407 1.023437,0 1.75,0.16407 0.726562,0.15625 1.226562,0.47656 0.5,0.32031 0.796875,0.79687 0.304688,0.46875 0.484375,1.09375 l -1.46875,0.25782 q -0.109375,-0.39844 -0.320312,-0.71094 -0.203125,-0.3125 -0.539063,-0.52344 -0.335937,-0.21094 -0.820312,-0.32031 -0.476563,-0.10938 -1.125,-0.10938 -0.765625,0 -1.289063,0.14063 -0.515625,0.13281 -0.835937,0.36719 -0.3125,0.23437 -0.453125,0.55468 -0.132813,0.3125 -0.132813,0.67969 0,0.49219 0.242188,0.8125 0.25,0.3125 0.671875,0.52344 0.421875,0.21094 0.976562,0.35156 0.554688,0.14063 1.179688,0.28125 0.507812,0.11719 1.007812,0.24219 0.507813,0.11719 0.96875,0.28906 0.460938,0.16406 0.859375,0.39063 0.40625,0.22656 0.703125,0.55468 0.296875,0.32813 0.460938,0.77344 0.171875,0.44531 0.171875,1.04688 z"
                 style="font-size:16px"
                 id="path2548" />
              <path
                 inkscape:connector-curvature="0"
                 d="m 60.828125,440.43616 -4.398438,-5.3125 -1.4375,1.09375 v 4.21875 H 53.5 v -11.00781 h 1.492187 v 5.51562 l 5.304688,-5.51562 h 1.757812 l -4.6875,4.78125 5.3125,6.22656 z"
                 style="font-size:16px"
                 id="path2550" />
              <path
                 inkscape:connector-curvature="0"
                 d="m 75.765625,440.43616 -5.890625,-9.375 q 0.01563,0.38281 0.03906,0.75781 0.01563,0.32031 0.02344,0.67969 0.01563,0.35156 0.01563,0.625 v 7.3125 H 68.625 v -11.00781 h 1.734375 l 5.953125,9.4375 q -0.02344,-0.38282 -0.04687,-0.76563 -0.01563,-0.32812 -0.03125,-0.71094 -0.01563,-0.39062 -0.01563,-0.74218 v -7.21875 h 1.34375 v 11.00781 z"
                 style="font-size:16px"
                 id="path2552" />
              <path
                 inkscape:connector-curvature="0"
                 d="m 90.554687,434.88147 q 0,1.28906 -0.375,2.34375 -0.367187,1.05469 -1.070312,1.80469 -0.703125,0.75 -1.71875,1.15625 -1.015625,0.40625 -2.304688,0.40625 -1.359375,0 -2.382812,-0.42188 -1.023438,-0.42968 -1.703125,-1.1875 -0.679688,-0.76562 -1.023438,-1.8125 -0.34375,-1.04687 -0.34375,-2.28906 0,-1.28906 0.359375,-2.32812 0.359375,-1.03907 1.054688,-1.76563 0.695312,-0.73437 1.710937,-1.125 1.023438,-0.39844 2.34375,-0.39844 1.3125,0 2.328125,0.39844 1.023438,0.39844 1.710938,1.13281 0.695312,0.73438 1.054687,1.77344 0.359375,1.03906 0.359375,2.3125 z m -1.523437,0 q 0,-0.99219 -0.257813,-1.80469 -0.25,-0.8125 -0.75,-1.39062 -0.492187,-0.57813 -1.226562,-0.89063 -0.734375,-0.3125 -1.695313,-0.3125 -0.984375,0 -1.726562,0.3125 -0.742188,0.3125 -1.242188,0.89063 -0.492187,0.57812 -0.742187,1.39062 -0.242188,0.8125 -0.242188,1.80469 0,0.99219 0.25,1.82031 0.257813,0.82032 0.75,1.42188 0.5,0.59375 1.234375,0.92969 0.742188,0.32812 1.703125,0.32812 1.03125,0 1.773438,-0.33594 0.75,-0.33593 1.226562,-0.92968 0.484375,-0.60157 0.710938,-1.42969 0.234375,-0.82813 0.234375,-1.80469 z"
                 style="font-size:16px"
                 id="path2554" />
              <path
                 inkscape:connector-curvature="0"
                 d="m 92.773437,440.43616 v -1.71094 h 1.523438 v 1.71094 z"
                 style="font-size:16px"
                 id="path2556" />
            </g>
            <g
               aria-label="FLOPPY DISK"
               style="font-style:normal;font-variant:normal;font-weight:normal;font-stretch:normal;font-size:10.66666698px;line-height:125%;font-family:Arial;-inkscape-font-specification:Arial;letter-spacing:0px;word-spacing:0px;fill:#000000;fill-opacity:1;stroke:none;stroke-width:1px;stroke-linecap:butt;stroke-linejoin:miter;stroke-opacity:1"
               id="flowRoot2559">
              <path
                 inkscape:connector-curvature="0"
                 d="m 33.09375,565.1108 v 3.1224 h 5.163412 v 1.63281 H 33.09375 v 3.70248 h -2.11263 v -10.0905 h 7.440755 v 1.63281 z"
                 style="font-style:normal;font-variant:normal;font-weight:bold;font-stretch:normal;font-size:14.66666698px;font-family:Arial;-inkscape-font-specification:'Arial Bold'"
                 id="path2567" />
              <path
                 inkscape:connector-curvature="0"
                 d="m 39.947266,573.56849 v -10.0905 h 2.112631 v 8.45768 h 5.414062 v 1.63282 z"
                 style="font-style:normal;font-variant:normal;font-weight:bold;font-stretch:normal;font-size:14.66666698px;font-family:Arial;-inkscape-font-specification:'Arial Bold'"
                 id="path2569" />
              <path
                 inkscape:connector-curvature="0"
                 d="m 58.724611,568.47669 q 0,1.18164 -0.350912,2.14844 -0.350911,0.96679 -1.009765,1.65429 -0.658854,0.6875 -1.611328,1.0599 -0.945313,0.3724 -2.141276,0.3724 -1.267579,0 -2.220053,-0.38672 -0.945312,-0.39388 -1.582682,-1.08854 -0.63737,-0.70183 -0.959635,-1.66146 -0.315105,-0.95964 -0.315105,-2.09831 0,-1.18164 0.329428,-2.13411 0.336588,-0.95248 0.981119,-1.61849 0.651693,-0.67318 1.597006,-1.03125 0.952474,-0.36524 2.184244,-0.36524 1.231771,0 2.177084,0.36524 0.952474,0.36523 1.597005,1.03841 0.651693,0.67317 0.988281,1.62565 0.336589,0.94531 0.336589,2.11979 z m -2.155599,0 q 0,-0.79492 -0.19336,-1.43229 -0.186197,-0.64453 -0.558593,-1.10287 -0.372396,-0.45833 -0.923828,-0.70182 -0.544271,-0.25065 -1.267579,-0.25065 -0.73763,0 -1.296224,0.25065 -0.551432,0.24349 -0.923828,0.70182 -0.372396,0.45834 -0.558593,1.10287 -0.186198,0.63737 -0.186198,1.43229 0,0.78776 0.186198,1.44661 0.193359,0.6517 0.565755,1.12435 0.372396,0.47266 0.923828,0.73763 0.551432,0.26498 1.27474,0.26498 0.773437,0 1.332031,-0.26498 0.558594,-0.27213 0.916666,-0.74479 0.365235,-0.47982 0.53711,-1.13151 0.171875,-0.65885 0.171875,-1.43229 z"
                 style="font-style:normal;font-variant:normal;font-weight:bold;font-stretch:normal;font-size:14.66666698px;font-family:Arial;-inkscape-font-specification:'Arial Bold'"
                 id="path2571" />
              <path
                 inkscape:connector-curvature="0"
                 d="m 68.614586,566.672 q 0,0.6517 -0.222005,1.26042 -0.214844,0.60156 -0.666016,1.06706 -0.451172,0.46549 -1.145833,0.74479 -0.694662,0.27213 -1.647136,0.27213 h -2.50651 v 3.55209 h -2.11263 v -10.0905 h 4.533203 q 0.966797,0 1.675781,0.23633 0.708985,0.22917 1.174479,0.65169 0.465495,0.42253 0.6875,1.00977 0.229167,0.58724 0.229167,1.29622 z m -2.126953,0.0358 q 0,-0.7806 -0.472656,-1.18164 -0.465495,-0.4082 -1.403646,-0.4082 h -2.184245 v 3.27278 h 2.241536 q 0.472657,0 0.809245,-0.12174 0.34375,-0.12175 0.565755,-0.34375 0.229167,-0.22201 0.336589,-0.52995 0.107422,-0.3151 0.107422,-0.6875 z"
                 style="font-style:normal;font-variant:normal;font-weight:bold;font-stretch:normal;font-size:14.66666698px;font-family:Arial;-inkscape-font-specification:'Arial Bold'"
                 id="path2573" />
              <path
                 inkscape:connector-curvature="0"
                 d="m 78.411461,566.672 q 0,0.6517 -0.222005,1.26042 -0.214844,0.60156 -0.666016,1.06706 -0.451172,0.46549 -1.145833,0.74479 -0.694662,0.27213 -1.647136,0.27213 h -2.50651 v 3.55209 h -2.11263 v -10.0905 h 4.533203 q 0.966797,0 1.675781,0.23633 0.708985,0.22917 1.174479,0.65169 0.465495,0.42253 0.6875,1.00977 0.229167,0.58724 0.229167,1.29622 z m -2.126953,0.0358 q 0,-0.7806 -0.472656,-1.18164 -0.465495,-0.4082 -1.403646,-0.4082 h -2.184245 v 3.27278 h 2.241536 q 0.472657,0 0.809245,-0.12174 0.34375,-0.12175 0.565755,-0.34375 0.229167,-0.22201 0.336589,-0.52995 0.107422,-0.3151 0.107422,-0.6875 z"
                 style="font-style:normal;font-variant:normal;font-weight:bold;font-stretch:normal;font-size:14.66666698px;font-family:Arial;-inkscape-font-specification:'Arial Bold'"
                 id="path2575" />
              <path
                 inkscape:connector-curvature="0"
                 d="m 84.878258,569.42916 v 4.13933 h -2.105469 v -4.13933 l -3.595052,-5.95117 h 2.212891 l 2.420573,4.26823 2.449218,-4.26823 h 2.212891 z"
                 style="font-style:normal;font-variant:normal;font-weight:bold;font-stretch:normal;font-size:14.66666698px;font-family:Arial;-inkscape-font-specification:'Arial Bold'"
                 id="path2577" />
              <path
                 inkscape:connector-curvature="0"
                 d="m 102.50977,568.44804 q 0,1.26042 -0.37956,2.22006 -0.37956,0.95247 -1.03841,1.597 -0.65886,0.64453 -1.5612,0.97396 -0.895182,0.32943 -1.933593,0.32943 h -4.082032 v -10.0905 h 3.652344 q 1.174479,0 2.155599,0.29362 0.981122,0.29362 1.690102,0.90235 0.70899,0.60872 1.10287,1.54687 0.39388,0.93815 0.39388,2.22721 z m -2.12696,0 q 0,-0.88086 -0.24349,-1.51106 -0.236324,-0.63021 -0.666011,-1.03125 -0.429688,-0.40821 -1.03125,-0.60157 -0.594401,-0.19336 -1.317709,-0.19336 h -1.496744 v 6.82487 h 1.790364 q 0.63737,0 1.174479,-0.222 0.544271,-0.22201 0.938151,-0.65885 0.401042,-0.44402 0.62305,-1.09571 0.22916,-0.65169 0.22916,-1.51107 z"
                 style="font-style:normal;font-variant:normal;font-weight:bold;font-stretch:normal;font-size:14.66666698px;font-family:Arial;-inkscape-font-specification:'Arial Bold'"
                 id="path2579" />
              <path
                 inkscape:connector-curvature="0"
                 d="m 104.11393,573.56849 v -10.0905 h 2.11263 v 10.0905 z"
                 style="font-style:normal;font-variant:normal;font-weight:bold;font-stretch:normal;font-size:14.66666698px;font-family:Arial;-inkscape-font-specification:'Arial Bold'"
                 id="path2581" />
              <path
                 inkscape:connector-curvature="0"
                 d="m 116.41016,570.66094 q 0,0.6875 -0.25065,1.25325 -0.25065,0.55859 -0.7806,0.95964 -0.52279,0.40104 -1.34636,0.62304 -0.8164,0.21485 -1.94791,0.21485 -1.00261,0 -1.76888,-0.17904 -0.76628,-0.17904 -1.31771,-0.52995 -0.54427,-0.35091 -0.88802,-0.86653 -0.33659,-0.52279 -0.48698,-1.19597 l 2.04102,-0.33659 q 0.0859,0.33659 0.25065,0.61589 0.16471,0.2793 0.45117,0.48698 0.29362,0.20052 0.72331,0.3151 0.43684,0.10742 1.05273,0.10742 1.07422,0 1.63997,-0.32226 0.57292,-0.32943 0.57292,-1.02409 0,-0.41536 -0.22917,-0.68034 -0.22916,-0.26497 -0.60872,-0.43685 -0.37956,-0.17187 -0.8737,-0.28646 -0.49414,-0.11458 -1.03125,-0.222 -0.42969,-0.10026 -0.85937,-0.20768 -0.42969,-0.10743 -0.82357,-0.25782 -0.38672,-0.15039 -0.72331,-0.35807 -0.33659,-0.20768 -0.58724,-0.50846 -0.24349,-0.30795 -0.38672,-0.71615 -0.13606,-0.4082 -0.13606,-0.95963 0,-0.75196 0.30078,-1.28907 0.30078,-0.53711 0.83073,-0.87369 0.53711,-0.34375 1.27474,-0.50131 0.73763,-0.15755 1.61132,-0.15755 0.98829,0 1.69011,0.15755 0.70898,0.15039 1.18164,0.4655 0.47982,0.3151 0.75195,0.79492 0.2793,0.47266 0.40821,1.11003 l -2.04818,0.27929 q -0.15755,-0.65169 -0.64453,-0.98112 -0.47982,-0.32942 -1.38216,-0.32942 -0.5586,0 -0.93099,0.10026 -0.36524,0.0931 -0.58724,0.25781 -0.21485,0.16471 -0.30795,0.38672 -0.0931,0.21484 -0.0931,0.45833 0,0.3724 0.17904,0.61589 0.17904,0.23632 0.5013,0.40104 0.32227,0.15755 0.76628,0.27213 0.45117,0.10743 0.98828,0.22201 0.47266,0.10026 0.93815,0.21484 0.4655,0.10742 0.88802,0.25782 0.42253,0.15039 0.78776,0.36523 0.36524,0.21484 0.63021,0.52995 0.27214,0.30794 0.42253,0.73763 0.15755,0.42969 0.15755,1.01693 z"
                 style="font-style:normal;font-variant:normal;font-weight:bold;font-stretch:normal;font-size:14.66666698px;font-family:Arial;-inkscape-font-specification:'Arial Bold'"
                 id="path2583" />
              <path
                 inkscape:connector-curvature="0"
                 d="m 124.96094,573.56849 -3.6237,-4.63347 -1.24609,0.95248 v 3.68099 h -2.11263 v -10.0905 h 2.11263 v 4.57617 l 4.54752,-4.57617 h 2.46355 l -4.3112,4.26823 4.66211,5.82227 z"
                 style="font-style:normal;font-variant:normal;font-weight:bold;font-stretch:normal;font-size:14.66666698px;font-family:Arial;-inkscape-font-specification:'Arial Bold'"
                 id="path2585" />
            </g>
          </g>
          <path
             sodipodi:nodetypes="ccccccccccccc"
             inkscape:connector-curvature="0"
             id="path2631"
             d="m 136.375,550.73328 -0.125,-4.5 27.875,0.25 v 4 h -3.75 l 0.125,18.5625 3.9375,0.0625 0.0625,3.875 -28.25,0.125 0.125,-3.875 h 3.75 l 0.125,-18.5 z"
             style="fill:none;fill-rule:evenodd;stroke:#000000;stroke-width:1.51181102;stroke-linecap:butt;stroke-linejoin:miter;stroke-miterlimit:4;stroke-dasharray:none;stroke-opacity:1" />
          <path
             inkscape:connector-curvature="0"
             id="path2633"
             d="m 148.0625,569.04577 4.4375,-0.0625 0.125,-18.5 h -4.5 z"
             style="fill:none;fill-rule:evenodd;stroke:#000000;stroke-width:1.51181102;stroke-linecap:butt;stroke-linejoin:miter;stroke-miterlimit:4;stroke-dasharray:none;stroke-opacity:1" />
          <path
             sodipodi:nodetypes="cccccccccc"
             inkscape:connector-curvature="0"
             id="path2635"
             d="m 167.58431,569.17101 3.9257,-0.0518 -0.23549,-18.66824 -3.56521,0.0549 0.0518,-3.9882 17.58929,0.0884 c 5.09087,1.67907 9.53881,4.28235 9.36916,13.52342 -0.074,8.44409 -3.97651,11.40052 -9.01561,12.72792 l -18.05711,0.0732 z"
             style="fill:none;fill-rule:evenodd;stroke:#000000;stroke-width:1.51181102;stroke-linecap:butt;stroke-linejoin:miter;stroke-miterlimit:4;stroke-dasharray:none;stroke-opacity:1" />
          <path
             sodipodi:nodetypes="ccccccc"
             inkscape:connector-curvature="0"
             id="path2637"
             d="m 180.0625,550.48327 v 18.5625 l 2.875,-0.0625 c 1.50589,-0.48822 2.55643,-1.88715 3.0625,-4.375 l -0.0625,-9.875 c -0.44966,-1.9779 -1.47297,-3.5386 -3.75,-4.1875 z"
             style="fill:none;fill-rule:evenodd;stroke:#000000;stroke-width:1.51181102;stroke-linecap:butt;stroke-linejoin:miter;stroke-miterlimit:4;stroke-dasharray:none;stroke-opacity:1" />
        </g>
        <path
           style="fill:#000000;fill-opacity:1;fill-rule:evenodd;stroke:#000000;stroke-width:0.37795275;stroke-linecap:butt;stroke-linejoin:miter;stroke-miterlimit:4;stroke-dasharray:none;stroke-opacity:1"
           d="m 31.6875,558.23327 3.0625,-0.0625 -0.0625,-11.8125 9.0625,9.8125 c 0.890091,0.97195 1.761734,2.0546 2.8125,2.0625 h 6.5625 l -0.0625,-16.1875 -3.0625,-0.0625 -0.125,12.1875 -9.6875,-10.375 c -1.328735,-2.0387 -1.93431,-1.4258 -2.8125,-1.8125 l -5.6875,-0.0625 z"
           id="path2687"
           inkscape:connector-curvature="0"
           sodipodi:nodetypes="ccccccccccccc" />
        <path
           style="display:inline;fill:#000000;fill-opacity:1;fill-rule:evenodd;stroke:#000000;stroke-width:0.37795275;stroke-linecap:butt;stroke-linejoin:miter;stroke-miterlimit:4;stroke-dasharray:none;stroke-opacity:1"
           d="m 55.875,542.04577 19.544194,-0.0183 0.01831,2.01831 -12.658471,-0.0183 -0.04419,4.5625 L 74,548.54577 l 0.0076,1.96339 -11.228553,-0.0259 0.03347,3.9375 c -0.119636,1.48927 0.570096,1.35981 1.125,1.5 l 11.570082,-0.10669 -0.0076,2.41919 -15,0.25 c -2.684575,0.0528 -4.41237,-1.12457 -4.625,-4.25 z"
           id="path2689"
           inkscape:connector-curvature="0"
           sodipodi:nodetypes="ccccccccccccccc" />
        <path
           style="display:inline;fill:#000000;fill-opacity:1;fill-rule:evenodd;stroke:#000000;stroke-width:0.37795275;stroke-linecap:butt;stroke-linejoin:miter;stroke-miterlimit:4;stroke-dasharray:none;stroke-opacity:1"
           d="m 98.3125,558.48327 -0.375,-2.875 c -6.247929,0.76532 -12.782294,2.34522 -13.875,-5.75 0.63671,-4.07426 1.453295,-7.96231 14,-6 L 98,541.42077 c -10.411957,-0.63245 -20.892349,-1.33442 -21.0625,8.4375 0.05551,12.27752 21.197448,8.65231 21.375,8.625 z"
           id="path2691"
           inkscape:connector-curvature="0"
           sodipodi:nodetypes="ccccccc" />
      </g>
    </g>
  </g>
</svg>
