<?xml version="1.0" encoding="UTF-8" standalone="no"?>
<!-- Created with Inkscape (http://www.inkscape.org/) -->

<svg
   width="210mm"
   height="297mm"
   viewBox="0 0 210 297"
   version="1.1"
   id="svg5"
   inkscape:version="1.1.2 (0a00cf5339, 2022-02-04)"
   sodipodi:docname="v1.svg"
   xmlns:inkscape="http://www.inkscape.org/namespaces/inkscape"
   xmlns:sodipodi="http://sodipodi.sourceforge.net/DTD/sodipodi-0.dtd"
   xmlns="http://www.w3.org/2000/svg"
   xmlns:svg="http://www.w3.org/2000/svg">
  <sodipodi:namedview
     id="namedview7"
     pagecolor="#ffffff"
     bordercolor="#666666"
     borderopacity="1.0"
     inkscape:pageshadow="2"
     inkscape:pageopacity="0.0"
     inkscape:pagecheckerboard="0"
     inkscape:document-units="mm"
     showgrid="false"
     inkscape:snap-global="false"
     inkscape:zoom="1.0175015"
     inkscape:cx="-444.22539"
     inkscape:cy="834.8882"
     inkscape:window-width="1305"
     inkscape:window-height="744"
     inkscape:window-x="61"
     inkscape:window-y="0"
     inkscape:window-maximized="1"
     inkscape:current-layer="layer1" />
  <defs
     id="defs2" />
  <g
     inkscape:label="Layer 1"
     inkscape:groupmode="layer"
     id="layer1">
    <rect
       style="fill:#ff0000;fill-opacity:1;stroke:#ff0000;stroke-width:0.535796;stroke-miterlimit:4;stroke-dasharray:none;stroke-opacity:1"
       id="rect6072"
       width="3.2664239"
       height="33.194363"
       x="84.340134"
       y="31.89221"
       transform="rotate(-3.8860219)" />
    <rect
       style="display:inline;fill:#ff0000;fill-opacity:1;stroke:#ff0000;stroke-width:0.661411;stroke-miterlimit:4;stroke-dasharray:none;stroke-opacity:1"
       id="rect5968"
       width="3.1964917"
       height="6.7464309"
       x="70.219734"
       y="-66.162933"
       transform="rotate(48.163764)" />
    <circle
       style="display:inline;fill:#ff0000;fill-opacity:1;stroke:#ff0000;stroke-width:2.04365;stroke-miterlimit:4;stroke-dasharray:none;stroke-opacity:1"
       id="path5578"
       cx="95.277946"
       cy="26.46653"
       r="8.1745987" />
    <circle
       style="display:inline;fill:#ff0000;fill-opacity:1;stroke:#ff0000;stroke-width:3.02845;stroke-miterlimit:4;stroke-dasharray:none;stroke-opacity:1"
       id="path5578-3"
       cx="79.903412"
       cy="15.763054"
       r="12.113799" />
    <circle
       style="display:inline;fill:#ff0000;fill-opacity:1;stroke:#ff0000;stroke-width:3.02845;stroke-miterlimit:4;stroke-dasharray:none;stroke-opacity:1"
       id="path5578-3-6"
       cx="103.35182"
       cy="19.453804"
       r="12.113799" />
    <path
       style="display:inline;fill:none;fill-rule:evenodd;stroke:#000000;stroke-width:0.131085px;stroke-linecap:butt;stroke-linejoin:miter;stroke-opacity:1"
       d="m 89.860546,19.010813 c 0.347419,-6.69503 3.43333,-9.0872697 6.55249,-11.4272697 l 2.36154,3.0669097 -5.2357,4.70892 c 0.32314,5.0211 -2.202067,7.3783 -3.87099,10.05505 l 4.18108,58.90553 -3.821368,0.26359 -3.963407,-57.1723 c 0.299569,-2.90772 0.0997,-5.87105 3.796355,-8.40043 z"
       id="path4606"
       sodipodi:nodetypes="ccccccccc" />
    <rect
       style="display:inline;fill:#ff0000;fill-opacity:1;stroke:none;stroke-width:0.535796;stroke-miterlimit:4;stroke-dasharray:none;stroke-opacity:1"
       id="rect6072-7"
       width="4"
       height="50"
       x="160.23161"
       y="39.800156"
       transform="rotate(-3.8860219)" />
    <rect
       style="display:inline;fill:#ff0000;fill-opacity:1;stroke:none;stroke-width:0.661411;stroke-miterlimit:4;stroke-dasharray:none;stroke-opacity:1"
       id="rect5968-5"
       width="4"
       height="7"
       x="122.00637"
       y="-122.59278"
       transform="rotate(48.163764)" />
    <circle
       style="display:inline;fill:#ff0000;fill-opacity:1;stroke:none;stroke-width:2.04365;stroke-miterlimit:4;stroke-dasharray:none;stroke-opacity:1"
       id="path5578-35"
       cx="171.66647"
       cy="27.85018"
       r="9" />
    <circle
       style="display:inline;fill:#ff0000;fill-opacity:1;stroke:none;stroke-width:3.02845;stroke-miterlimit:4;stroke-dasharray:none;stroke-opacity:1"
       id="path5578-3-62"
       cx="156.1183"
       cy="17.146818"
       r="14" />
    <circle
       style="display:inline;fill:#ff0000;fill-opacity:1;stroke:none;stroke-width:3.4262;stroke-miterlimit:4;stroke-dasharray:none;stroke-opacity:1"
       id="path5578-3-6-9"
       cx="180.36896"
       cy="20.940878"
       r="14" />
    <path
       style="display:inline;fill:none;fill-rule:evenodd;stroke:#000000;stroke-width:0.131085px;stroke-linecap:butt;stroke-linejoin:miter;stroke-opacity:1"
       d="m 166.44946,20.489752 c 0.34742,-6.69503 3.43333,-9.08727 6.55249,-11.4272703 l 2.36153,3.0669203 -5.23569,4.70891 c 0.32314,5.0211 -2.20207,7.3783 -3.87099,10.05506 l 4.18107,58.90551 -3.82136,0.26359 -3.96341,-57.17229 c 0.29957,-2.90771 0.0997,-5.87105 3.79636,-8.40043 z"
       id="path4606-1"
       sodipodi:nodetypes="ccccccccc" />
    <rect
       style="display:inline;fill:#ff0000;fill-opacity:1;stroke:none;stroke-width:0.535796;stroke-miterlimit:4;stroke-dasharray:none;stroke-opacity:1"
       id="rect6072-7-2"
       width="4"
       height="50"
       x="19.654667"
       y="26.091965"
       transform="rotate(0.0833293)" />
    <rect
       style="display:inline;fill:#ff0000;fill-opacity:1;stroke:none;stroke-width:0.661411;stroke-miterlimit:4;stroke-dasharray:none;stroke-opacity:1"
       id="rect5968-5-7"
       width="4"
       height="7"
       x="24.745316"
       y="-20.171698"
       transform="rotate(52.133115)" />
    <circle
       style="display:inline;fill:#ff0000;fill-opacity:1;stroke:none;stroke-width:2.04365;stroke-miterlimit:4;stroke-dasharray:none;stroke-opacity:1"
       id="path5578-35-0"
       cx="30.483709"
       cy="23.700666"
       r="9"
       transform="rotate(3.9693512)" />
    <circle
       style="display:inline;fill:#ff0000;fill-opacity:1;stroke:none;stroke-width:3.02845;stroke-miterlimit:4;stroke-dasharray:none;stroke-opacity:1"
       id="path5578-3-62-9"
       cx="14.935537"
       cy="12.997298"
       r="14"
       transform="rotate(3.9693512)" />
    <circle
       style="display:inline;fill:#ff0000;fill-opacity:1;stroke:none;stroke-width:3.4262;stroke-miterlimit:4;stroke-dasharray:none;stroke-opacity:1"
       id="path5578-3-6-9-3"
       cx="39.186195"
       cy="16.791365"
       r="14"
       transform="rotate(3.9693512)" />
    <path
       style="display:inline;fill:none;fill-rule:evenodd;stroke:#000000;stroke-width:0.131085px;stroke-linecap:butt;stroke-linejoin:miter;stroke-opacity:1"
       d="m 24.074972,18.050073 c 0.810035,-6.65492 4.05414,-8.8278066 7.3278,-10.9462763 l 2.143564,3.2230353 -5.549095,4.335185 c -0.02521,5.031424 -2.707535,7.208167 -4.557744,9.762979 l 0.09343,59.053634 -3.83044,-0.0016 0.0037,-57.309504 c 0.500131,-2.879998 0.505871,-5.850066 4.368755,-8.117485 z"
       id="path4606-1-6"
       sodipodi:nodetypes="ccccccccc" />
    <rect
       style="display:none;fill:#ff0000;fill-opacity:1;stroke:none;stroke-width:0.546837;stroke-miterlimit:4;stroke-dasharray:none;stroke-opacity:1"
       id="rect6072-7-2-0"
       width="4.0000005"
       height="52.081844"
       x="-150.31581"
       y="34.135841"
       transform="matrix(0.99999885,0.00151493,-0.00139624,0.99999903,0,0)" />
    <rect
       style="display:none;fill:#ff0000;fill-opacity:1;stroke:none;stroke-width:0.661411;stroke-miterlimit:4;stroke-dasharray:none;stroke-opacity:1"
       id="rect5968-5-7-6"
       width="4"
       height="7"
       x="-71.801842"
       y="120.07541"
       transform="rotate(52.133115)" />
    <circle
       style="display:none;fill:#ff0000;fill-opacity:1;stroke:none;stroke-width:2.04365;stroke-miterlimit:4;stroke-dasharray:none;stroke-opacity:1"
       id="path5578-35-0-2"
       cx="-138.40532"
       cy="45.313148"
       r="9"
       transform="rotate(3.9693512)" />
    <circle
       style="display:none;fill:#ff0000;fill-opacity:1;stroke:none;stroke-width:3.02845;stroke-miterlimit:4;stroke-dasharray:none;stroke-opacity:1"
       id="path5578-3-62-9-6"
       cx="-153.95349"
       cy="34.609779"
       r="14"
       transform="rotate(3.9693512)" />
    <circle
       style="display:none;fill:#ff0000;fill-opacity:1;stroke:none;stroke-width:3.4262;stroke-miterlimit:4;stroke-dasharray:none;stroke-opacity:1"
       id="path5578-3-6-9-3-1"
       cx="-129.70284"
       cy="38.403847"
       r="14"
       transform="rotate(3.9693512)" />
    <path
       style="display:inline;fill:none;fill-rule:evenodd;stroke:#000000;stroke-width:0.131085px;stroke-linecap:butt;stroke-linejoin:miter;stroke-opacity:1"
       d="m -145.90501,27.919733 c 0.81004,-6.65492 4.05414,-8.827807 7.3278,-10.946276 l 2.14357,3.223035 -5.5491,4.335185 c -0.0252,5.031424 -2.70753,7.208167 -4.55774,9.762979 l 0.0934,59.053634 -3.83044,-0.0016 0.004,-57.309504 c 0.50013,-2.879998 0.50587,-5.850066 4.36875,-8.117485 z"
       id="path4606-1-6-8"
       sodipodi:nodetypes="ccccccccc" />
    <path
       id="rect7647"
       style="display:inline;fill:#ff0000;stroke-width:2.49982"
       d="m -524.66016,64.580078 a 52.913386,52.913386 0 0 0 -1.94922,1.125 l -9.45312,7.353516 a 52.913386,52.913386 0 0 0 -7.88477,9.816406 l 7.49219,9.636719 20.88672,-16.240235 z"
       transform="scale(0.26458333)" />
    <path
       id="circle7692"
       style="display:inline;fill:#ff0000;stroke-width:11.4461"
       d="m -538.63672,75.751953 a 52.913386,52.913386 0 0 0 -13.23633,31.451167 52.913386,52.913386 0 0 0 1.91602,18.09766 52.913386,52.913386 0 0 0 13.21289,-31.421874 52.913386,52.913386 0 0 0 -1.89258,-18.126953 z"
       transform="scale(0.26458333)" />
    <path
       id="circle7717"
       style="display:inline;fill:#ff0000;stroke-width:7.72403"
       d="m -537.72852,100.88672 a 34.015748,34.015748 0 0 0 -29.9121,31.39844 34.015748,34.015748 0 0 0 0.13671,6.00586 52.913386,52.913386 0 0 0 29.77539,-37.4043 z"
       transform="scale(0.26458333)" />
    <path
       id="rect7742"
       style="display:inline;fill:#ff0000;stroke-width:2.06679"
       d="m -567.07812,128.1582 a 34.015748,34.015748 0 0 0 -0.5625,4.12696 34.015748,34.015748 0 0 0 14.4082,30.1875 l 0.0488,-34.29297 z"
       transform="scale(0.26458333)" />
    <rect
       style="display:inline;fill:#ff0000;fill-opacity:1;stroke:none;stroke-width:0.541404;stroke-miterlimit:4;stroke-dasharray:none;stroke-opacity:1"
       id="rect7767"
       width="4.0000005"
       height="51.051968"
       x="-150.31339"
       y="35.161339"
       transform="matrix(0.9999989,0.00148497,-0.00142441,0.99999899,0,0)" />
    <path
       id="rect7647-7"
       style="display:inline;fill:#ff0000;stroke-width:2.49982"
       d="m -611.74805,98.779297 a 52.913386,52.913386 0 0 0 -1.94922,1.125 l -9.45312,7.353513 a 52.913386,52.913386 0 0 0 -2.57031,2.71094 52.913386,52.913386 0 0 0 -0.004,-0.0176 52.913386,52.913386 0 0 0 -0.31055,0.36524 52.913386,52.913386 0 0 0 -0.01,0.0117 52.913386,52.913386 0 0 0 -12.78906,29.70899 34.015748,34.015748 0 0 0 -15.75391,24.99414 34.015748,34.015748 0 0 0 -0.11914,1.21875 h -0.68359 l -0.2754,192.95117 15.11914,0.0234 0.27344,-192.95313 h -0.004 l 0.006,-3.46093 a 52.913386,52.913386 0 0 0 3.22265,-3.32617 52.913386,52.913386 0 0 0 0.004,0.0156 52.913386,52.913386 0 0 0 0.28711,-0.33789 52.913386,52.913386 0 0 0 0.29883,-0.34961 52.913386,52.913386 0 0 0 1.18359,-1.42383 52.913386,52.913386 0 0 0 0.17578,-0.22656 52.913386,52.913386 0 0 0 1.22656,-1.61133 52.913386,52.913386 0 0 0 0.0547,-0.0801 52.913386,52.913386 0 0 0 9.98633,-27.39258 52.913386,52.913386 0 0 0 0.0859,-1.62695 l 0.20312,0.25977 20.88672,-16.24024 z"
       transform="scale(0.26458333)" />
  </g>
</svg>
